<?xml version="1.0" encoding="UTF-8"?><svg id="Layer_2" xmlns="http://www.w3.org/2000/svg" viewBox="0 0 500 118.59"><defs><style>.cls-1{fill:#fdffff;}.cls-1,.cls-2,.cls-3,.cls-4,.cls-5,.cls-6,.cls-7,.cls-8,.cls-9,.cls-10,.cls-11,.cls-12,.cls-13{stroke-width:0px;}.cls-2{fill:#091c26;}.cls-3{fill:#ba7642;}.cls-4{fill:#d9dadb;}.cls-5{fill:#dfdedb;}.cls-6{fill:#e7e7e7;}.cls-7{fill:#d98e78;}.cls-8{fill:#dba89a;}.cls-9{fill:#5b5a3f;}.cls-10{fill:#6b6041;}.cls-11{fill:#0a1a1b;}.cls-12{fill:#cf7a4d;}.cls-13{fill:#ce6832;}</style></defs><g id="Layer_1-2"><path class="cls-2" d="m492.97,76.74c-2.48-2.79-5.58-4.87-8.37-7.3-.75-.66-1.63-1.2-2.3-1.93-1.35-1.47-1.23-3.13-.12-4.66,1.11-1.53,2.7-1.86,4.22-.77,4.49,3.19,8.71,6.73,12.67,10.55,1.23,1.18,1.08,2.95.48,4.55-2.34,3.13-4.33,3-6.58-.44Z"/><path class="cls-2" d="m357.74,110.05c-1.54-1.78-1.64-3.31-.96-4.9.64-1.51,1.98-2.08,3.43-1.81,3.82.73,7.62,1.62,11.41,2.5,1.39.33,2.4,1.24,2.31,2.74-.1,1.61-.51,3.64-2.32,3.78-4.93.37-9.58-1.24-13.86-2.31Z"/><path class="cls-2" d="m468.98,67.55c-3.82,1.8-8.24,3.17-12.92,3.55-1.15.09-1.77-.87-1.97-1.92-.29-1.54-.25-3.22,1.24-4.02,3.78-2.02,7.82-3.44,12.09-3.99,1.29-.17,2.5.41,2.96,1.96.48,1.61.14,2.92-1.4,4.41Z"/><path class="cls-2" d="m332.47,101.79c-3.47-3.14-3.65-4.16-1.3-7.34,5.12.28,9.35,2.95,13.66,5.28,1.75.95,1.16,2.76.42,4.26-.78,1.59-2.15,2.16-3.73,1.56-3.05-1.16-6.04-2.5-9.05-3.76Z"/><path class="cls-2" d="m385.15,106.51c.9-.61,1.66-1.07,2.59-1.19,3.17-.4,6.32-.88,9.49-1.26,2.01-.24,3.74.36,3.97,2.61.21,2.06-.67,3.71-2.95,4.13-3.43.63-6.86,1.29-10.31,1.78-1.45.21-2.81-.35-3.47-1.78-.75-1.62-.28-3.1.68-4.3Z"/><path class="cls-2" d="m425.46,100.28c-2.76,1.77-5.48,3.64-8.31,5.29-2.01,1.17-3.77.36-4.84-1.5-1.05-1.83-.43-3.5,1.28-4.65,2.48-1.66,5.04-3.22,7.56-4.82,1.93-1.22,3.77-1.39,5.28.61,1.52,2.01.42,3.52-.98,5.06Z"/><path class="cls-2" d="m438.32,80.28c1.06-1.06,2.11-2.13,3.18-3.18,1.55-1.52,3.3-1.55,4.77-.12,1.47,1.43,1.54,3.19,0,4.76-2.18,2.2-4.35,4.42-6.6,6.54-1.55,1.47-3.33,1.46-4.76-.1-1.4-1.53-1.38-3.23.19-4.77,1.07-1.05,2.12-2.12,3.18-3.18.01.01.03.03.04.04Z"/><path class="cls-2" d="m51.92,53.29c6.05-6.16,12.9-8.34,20.63-8.08,3.2.11,4.91,1.57,4.77,3.78-.14,2.28-1.99,3.48-5.14,3.12-7.37-.83-12.7,2.37-16.69,8.29-.67.99-1.18,2.08-1.82,3.08-1.26,1.96-3.02,3.19-5.29,2.05-2.43-1.21-2.08-3.46-1.13-5.48,1.29-2.72,2.92-5.24,4.65-6.77Z"/><path class="cls-2" d="m118.97,20.77c5.7,7.5,10.21,15.89,12.54,25.36.49,2-.06,3.66-2.25,4.19-2.05.5-3.52-.35-4.21-2.39-1.44-4.25-2.54-8.62-4.7-12.61-1.91-3.53-4.22-6.78-6.54-10.04-1.23-1.72-1.78-3.84.13-5.41,1.63-1.35,3.4-.69,5.04.9Z"/><path class="cls-2" d="m50.41,91.68c-2.37-4.26-4.58-8.6-5.22-13.53-.22-1.66.79-2.87,2.4-3.36,1.49-.45,2.93-.03,3.6,1.38,1.98,4.23,3.65,8.6,4.83,13.13.36,1.37-.33,2.56-1.74,3.11-1.4.55-2.73.55-3.86-.73Z"/><path class="cls-2" d="m62.81,103.4c-1.5-1.34-1.36-2.85-.67-4.44.76-1.75,2.3-1.99,3.78-1.49,3.79,1.27,7.53,2.69,11.24,4.17,1.7.68,1.9,2.27,1.52,3.82-.38,1.55-1.41,3.05-3.08,2.73-4.52-.85-8.76-2.6-12.79-4.79Z"/><path class="cls-2" d="m4.9,89.15c-.27-.44-.8-.99-.97-1.63-.9-3.46-2.09-6.87-2.33-10.47-.14-2.14.73-3.74,2.97-4.17,2.4-.46,3.51,1.1,4.01,3.06.84,3.28,1.52,6.6,2.21,9.91.36,1.74-.21,3.07-1.89,3.92-1.45.73-2.67.45-4-.62Z"/><path class="cls-2" d="m129.95,75.17c-1.06,1.21-2.39,1.44-3.82.91-1.51-.56-2.24-1.89-1.99-3.35.67-3.94,1.5-7.85,2.4-11.74.33-1.41,1.5-2.1,2.96-2.03,1.48.07,2.69.63,3.3,2.14.9,2.25-1.12,12.31-2.85,14.07Z"/><path class="cls-2" d="m16.63,100.2c1.92,3.25,3.98,6.43,5.69,9.79.85,1.68.12,3.4-1.58,4.36-1.75.98-3.44.5-4.49-1.09-1.91-2.91-3.71-5.9-5.36-8.96-1-1.86-.75-3.83,1.17-5.01,1.63-1,3.28-.69,4.57.91Z"/><path class="cls-2" d="m42.11,10.01c-1.64-1.7-1.23-4.39,1.03-5.49,3.43-1.65,7.14-2.51,10.84-3.33,1.53-.34,2.97.29,3.59,1.99.68,1.88.07,3.66-1.52,4.38-3.6,1.62-7.4,2.83-11.3,3.55-.92.17-1.98-.22-2.64-1.11Z"/><path class="cls-2" d="m.78,63.13c-.52-.8-.9-1.73-.75-2.76.53-3.56,1.24-7.07,2.48-10.47.8-2.2,2.42-2.36,4.34-1.98,2.01.4,2.64,1.93,2.32,3.59-.7,3.62-1.54,7.23-2.61,10.75-.68,2.22-4.1,2.64-5.77.86Z"/><path class="cls-2" d="m94.07,11.74c-1.65-1.49-2-3.07-.99-4.74.96-1.59,2.51-2,4.17-1.25,3.17,1.43,6.32,2.93,9.4,4.54,1.72.9,2.31,2.52,1.51,4.32-.67,1.51-1.78,2.66-3.7,2.37-.86-.13-9.91-4.77-10.39-5.24Z"/><path class="cls-2" d="m82.9,7.41c-.37.2-.9.74-1.42.73-4.1-.07-8.18-.46-12.09-1.7-1.44-.45-1.98-1.92-1.71-3.48.26-1.5.98-2.72,2.61-2.86,4.13-.35,8.21.27,12.04,1.72,2.31.88,2.49,3.8.58,5.6Z"/><path class="cls-2" d="m121.49,92.84c-2.19,1.71-3.55,4.38-6.31,5.42-3.95-1.5-4.73-4.19-2.1-7.28,1.43-1.68,2.85-3.37,4.33-5,1.44-1.6,3.13-2.22,5.01-.75,1.97,1.55,1.75,3.41.54,5.32-.48.76-.97,1.52-1.45,2.28Z"/><path class="cls-2" d="m102,105.65c-3.45,1.38-7.2,2.73-11.25,2.71-1.24,0-2.05-1.15-2.24-2.48-.24-1.66.3-3.18,1.79-3.81,3.04-1.27,6.18-2.36,9.46-2.81,1.5-.21,2.77.47,3.38,1.95.65,1.57.01,2.91-1.15,4.44Z"/><path class="cls-2" d="m23.64,16.18c1.06-1.06,2-2.27,3.2-3.14,1.7-1.23,3.55-1.38,5.06.42,1.39,1.65,1.13,3.34-.29,4.82-1.66,1.73-3.35,3.44-5.14,5.03-1.7,1.51-3.72,2.39-5.52.33-1.69-1.94-1.53-3.99.6-5.72.69-.56,1.28-1.26,1.92-1.89.05.05.11.11.16.16Z"/><path class="cls-2" d="m91.28,63.46c-1.79.99-3.62,1.2-5.53.38-1.04-2.48-1.84-5.03-2.09-7.72-.19-2.01.68-3.71,2.57-4.26,2.07-.61,3.34.87,4.1,2.65,1.23,2.88,2.24,5.8.96,8.95Z"/><path class="cls-2" d="m16.1,29.18c1.04,1.02,1.4,2.04,1.14,3.18-.54,2.4-1.97,4.36-3.54,6.12-.88.98-2.25,1.16-3.59.46-1.25-.66-2.17-1.58-1.98-3.04.33-2.62,1.24-5.04,3.3-6.82,1.67-1.44,3.3-.85,4.67.1Z"/><path class="cls-7" d="m175.81,47.2c1.72-6.02,3.58-11.99,7.67-16.94,6.52-8.7,14.26-16.08,23.58-21.75,18.71-9.99,44.88-7.34,59.97,9,1.62,1.76,3.04,3.71,4.55,5.57,1.42.83,2.27,2.07,3.01,3.54,1.9,3.75,3.17,7.69,4.04,11.78.26,1.25.58,2.56-.42,3.68-1.75,1.58-2.91-.49-4.37-.69-.81-.14-1.62-.66-2.46-.03-3.67-1.05-5.8,1.6-8.27,3.43-.6.09-1.17-.18-1.76-.2-2.79-.1-3.6.75-3.22,3.48.1.69.3,1.36,0,2.04-1.09,1.75-2.87,1.92-4.66,1.99-1.48.06-2.95.09-4.42.21-1.13-.08-2.26-.29-3.4-.18-8.73-.37-17.28-2.1-25.83-3.69-8.87-1.65-17.79-3.03-26.83-2.93-4.49.05-8.99.56-13.4,1.6-1.27.3-2.49.82-3.77.1Z"/><path class="cls-2" d="m277.93,41.6c-.1-6.86-2.84-12.82-6.34-18.51,13.63.84,23.63,7.34,29.95,19.4,1.07,2.04,1.72,2.7,3.8.97,1.7-1.41,3.31-2.9,4.97-4.33,1.62-1.39,1.94-3.03,1.65-5.12-.46-3.37,2.33-6.4,5.57-6.37,3.52.03,6.01,2.76,5.66,6.28-.26,2.56-1.8,4.44-4.15,4.93-2.07.42-3.44,1.43-4.65,2.92-2.1,2.59-4.53,4.77-7.35,6.58-2.12,1.36-3.1,5.9-1.83,7.87.45.69,1.24.59,1.87.75,2.94.76,5.66,2.05,8.19,3.67,2.12,1.36,3.83,2.82,6.86,1.89,2.77-.85,5.72,1.88,6.19,4.78.46,2.85-1.41,5.74-4.15,6.41-3.12.76-6.61-.79-7.27-3.73-1.32-5.88-6.68-6.58-10.79-8.84-1.27-.7-1.37.65-1.52,1.5-1.01,5.92-3.28,11.3-6.76,16.19-5.19,5.87-11,10.81-18.91,12.6-1.27-.25-.9-1.18-.65-1.87,1.81-4.97,1.97-10.17,2.21-15.36-.28-4.76-1.36-9.33-3.16-13.75,1.82-4.59,1.95-9.2.25-13.86-.46-1.7-.3-3.36.34-4.99Z"/><path class="cls-9" d="m181.02,85.67c-5.31-9.11-7.38-19.01-7.15-29.46.64-2.44.31-5.06,1.33-7.43,1.25-1.19,2.83-.86,4.3-.82,7.21.21,14.37,1.09,21.53,1.94,10.34,1.22,20.74,2.02,30.95,4.2,1.07.23,2.31.21,2.72,1.49.29.93-.4,1.46-1.14,1.88-13.69,3.44-26.47,8.99-38.4,16.51-4.56,2.53-7.81,6.4-10.89,10.48-.68.9-1.26,3.29-3.24,1.22Z"/><path class="cls-12" d="m233.44,56.94c1.57-1.23.77-1.77-.63-1.99-9.26-1.41-18.49-2.92-27.84-3.78-9.42-.87-18.78-2.33-28.27-2.44-.5,0-1,.03-1.5.05-.18-.67.29-1.1.61-1.58,14.41-4.09,28.8-2.43,43.17.26,8.9,1.67,17.81,3.24,26.84,4.04.94.55,1.96.56,2.99.38,1.32-1.06,2.87-.52,4.32-.57,1.73-.06,3.36-.26,4.7-1.48,1.26-.25,2.49-.32,3.5.69.44,1.01,1.15,1.85,1.68,2.79.47.84,1.06,1.81-.3,2.48-3.1-1.95-6.41-.02-9.59-.49-2.17-.36-4.49.19-6.47-.2-4.23-.84-7.42,1.11-10.88,2.63-.85.37-2.01.78-2.32-.81Z"/><path class="cls-7" d="m207.06,8.51c-7.51,4.52-12.62,11.76-19.43,17.09-1.64,1.28-2.26,3.55-4.15,4.66,2.92-6.11,7.75-10.62,12.79-14.87,3.26-2.75,6.61-5.5,10.79-6.88Z"/><path class="cls-3" d="m181.02,85.67c1.49.94,1.62-.55,2.1-1.24,2.94-4.19,6.43-7.83,10.67-10.73.39-.26.9-.35,1.35-.52.1,1.44-.96,2.13-1.91,2.84-1.12.85-2.24,1.69-3.2,2.73-1.19,1.29-2.38,2.49.62,3.05,1.29.24,2.21,1.39,3.02,2.4,3.34,4.16,8.07,6.5,12.29,9.49,4.11,2.91,8.94,3.28,13.72,3.67,2.11.17,4.05,1.17,6.19,1.14,1.06.34,1.45,1.28,1.96,2.14,3.39,5.72,10.91,5.88,14.61.34.54-.82.81-1.86,1.85-2.25,6.06-2.15,11.93-4.82,17.75-7.55,2.58-1.21,5.21-2.57,7.25-4.72.14-.15.26-.32.43-.42,4.48-2.68,8.07-6.13,9.94-11.15.2-.55.82-.86,1.5-.8.05,5.54-.16,11.04-2.42,16.24-.12.28.12.72.2,1.09-1.75,1.47-2.35,3.68-3.56,5.5-10.29,15.47-31.89,24.32-50.25,20.96-13.91-2.54-25.7-8.7-35.16-19.19-3.54-3.93-6.74-8.14-8.94-13.01Z"/><path class="cls-11" d="m262.85,55.67c.45-1.16-.41-1.8-.93-2.63-.45-.74-1.65-1.32-.87-2.52,1.62-1.78.77-4.3,1.87-6.24,3.31-3.99,5.04-4.65,8.66-3.29,2.53.4,3.51,2.62,3.48,4.45-.08,6.11,1.17,12.28-.51,18.35-3.33,3.82-7.29,3.58-9.61-.57-.45-2.32-.91-4.63-2.1-6.73-.08-.28-.07-.55.01-.82Z"/><path class="cls-10" d="m214.5,25.26c-4.17-4.02-2.55-8.51.38-11.62,3.1-3.3,8.53-3.3,11.54-.22,3.17,3.25,3.31,8.97.28,11.91-3.71,3.61-8.66,3.58-12.2-.06Z"/><path class="cls-1" d="m252.06,14.99c1.76,2.01,3.1,3.93,1.96,6.42-1.07,2.34-3.39,2.74-5.57,2.81-3.88.13-7.51-.91-10.71-3.19-1.98-1.41-3.54-3.22-2.82-5.8.74-2.64,2.78-4.3,5.51-4.33,4.41-.05,8.46,1.26,11.63,4.08Z"/><path class="cls-6" d="m273.99,63.64c1.28-5.56-.02-11.2.52-16.79.24-2.43-1.53-4.11-2.94-5.86.57-1.26,1.31-.39,2-.16,2.58.95,3.81,3.04,4.61,5.49,1.82,4.86,2.18,9.67-.49,14.38-.55,1.85-.73,4.16-3.71,2.93Z"/><path class="cls-5" d="m262.92,44.28c-.12,2.23,1.57,5-1.87,6.24-1.07-.24-2.29.19-3.23-.68-.41-1.73-1.9-3.51-.03-5.19,1.56-1.41,3.34-1.31,5.13-.37Z"/><path class="cls-8" d="m278.19,46.33c-1.3-2.03-2.73-3.95-4.61-5.49.87-.73,1.45-.1,2.03.44.71.66,1.42,1.1,2.32.32.09,1.58.17,3.15.26,4.73Z"/><path class="cls-13" d="m248.81,51.89c-1.18,1.27-2.2,1.35-2.99-.38,1.05-.27,2.07-.35,2.99.38Z"/><path class="cls-13" d="m273.99,63.64c2.31.38,2.43-2.01,3.71-2.93,2.26,1.91,2.01,4.8,2.73,7.27.57,1.96.95,4.02.73,6.12-1.05,1.85-2.25,3.64-3.1,5.58-1.01,2.31-2.51,4.04-4.88,4.84-1.13.38-1.85,1.15-2.61,1.91-2.89,2.9-6.43,4.64-10.13,6.34-4.02,1.86-8.18,3.47-12.04,5.66-1.16.65-1.75.28-2.48-.35-.9,1.11.48,2.06.08,3.22-1.62-.24-.97-1.75-1.52-2.52-1.09-.75-.76-1.99-1.01-3.01-.96-3.87-3.85-6.42-7.58-6.6-3.9-.19-6.97,1.85-8.4,5.51-.54,1.38-.52,2.99-1.68,4.12-2.16,2.05-3.99-.69-6.16-.58-1.59.08-3.59.05-5.36-.38-4.16-1.02-7.7-3.14-11.42-5.26-4.59-2.61-7.96-6.24-11.68-9.64-.55-.51-1.09-.87-1.87-.48-.66.33-1.4.49-1.94-.14-.71-.82.04-1.55.4-2.17,1.08-1.84,2.64-3.29,4.42-4.42,1.12-.72,2.06-1.58,2.95-2.54,6.99-4.92,14.64-8.56,22.6-11.56,5.11-1.92,10.21-3.97,15.69-4.69,1.74,1.17,3.2-.19,4.24-.98,1.39-1.05,3.25-1.01,4.41-2.32.12-.14.43-.32.51-.26,3.28,2.27,7.09-.29,10.45,1.14.17.07.3.26.45.39-.92.89-1.72,1.92.32,2.21,2.54.36,4.21,2.04,6.04,3.51,1.22,2.38,3.42,2.31,5.62,2.26,2.22,3.55,4.92,3.79,8.53.75Z"/><path class="cls-7" d="m259.39,60.77c-2.56-1.63-5.33-2.82-8.14-3.94-.3-.12-.62-.62-.62-.94,0-.64.59-.66,1.09-.72.59-.07,1.18-.17,1.76-.26,1.46-.21,2.99-.22,4.37-.68,2.1-.7,3.64-.08,5,1.45,0,0-.14.11-.14.11-1.17,1.62-1.69,3.67-3.32,4.99Z"/><path class="cls-2" d="m225.8,98.8c.3-5.9,3.08-9.57,7.84-10.42,5.49-.99,11.42,3.08,10.84,10.41-2.77,5.76-6.45,7.95-11.62,6.9-3.08-.62-5.1-2.43-6.12-5.4-.18-.54-.62-.99-.94-1.48Z"/><path class="cls-4" d="m259.39,60.77c.61-1.99,1-4.13,3.32-4.99,2.14,1.9,2.8,4.36,2.75,7.11-3.01,1.86-4.72,1.26-6.08-2.12Z"/></g></svg>