<?xml version="1.0" encoding="UTF-8"?><svg id="Layer_2" xmlns="http://www.w3.org/2000/svg" viewBox="0 0 300 293.94"><defs><style>.cls-1{fill:#97a9af;}.cls-1,.cls-2,.cls-3,.cls-4,.cls-5,.cls-6,.cls-7,.cls-8,.cls-9,.cls-10,.cls-11,.cls-12,.cls-13,.cls-14,.cls-15,.cls-16,.cls-17,.cls-18,.cls-19,.cls-20,.cls-21,.cls-22,.cls-23,.cls-24,.cls-25,.cls-26,.cls-27,.cls-28,.cls-29,.cls-30,.cls-31,.cls-32,.cls-33,.cls-34,.cls-35,.cls-36,.cls-37,.cls-38,.cls-39,.cls-40,.cls-41,.cls-42,.cls-43,.cls-44,.cls-45,.cls-46,.cls-47,.cls-48{stroke-width:0px;}.cls-2{fill:#f9b49a;}.cls-3{fill:#1b4660;}.cls-4{fill:#d39a87;}.cls-5{fill:#e7dfdf;}.cls-6{fill:#77929e;}.cls-7{fill:#f3f1f1;}.cls-49{opacity:.9;}.cls-8{fill:#769197;}.cls-9{fill:#d39a88;}.cls-10{fill:#dda28e;}.cls-11{fill:#e4eeef;}.cls-12{fill:#e9e0df;}.cls-13{fill:#728e99;}.cls-14{fill:#fbf6f5;}.cls-15{fill:#fbf6f7;}.cls-16{fill:#9db3b8;}.cls-17{fill:#a8babd;}.cls-18{fill:#f6f2f1;}.cls-19{fill:#66858a;}.cls-20{fill:#d69a88;}.cls-21{fill:#eff6f4;}.cls-22{fill:#ebe3e2;}.cls-23{fill:#fbf6f4;}.cls-24{fill:#f6fdfd;}.cls-25{fill:#ebe1e0;}.cls-26{fill:#fcf7f6;}.cls-27{fill:#00304a;}.cls-28{fill:#fbf5f6;}.cls-29{fill:#728f9c;}.cls-30{fill:#92a8ae;}.cls-31{fill:#9fb5b9;}.cls-32{fill:#154760;}.cls-33{fill:#00344f;}.cls-34{fill:#1d4862;}.cls-35{fill:#76909b;}.cls-36{fill:#96abb1;}.cls-37{fill:#9bb2b7;}.cls-38{fill:#eae2e1;}.cls-39{fill:#7b959c;}.cls-40{fill:#ebe2e0;}.cls-41{fill:#89a2a6;}.cls-42{fill:#8ca2aa;}.cls-43{fill:#96acb2;}.cls-44{fill:#f8b399;}.cls-45{fill:#95abb1;}.cls-46{fill:#9eb3b7;}.cls-47{fill:#ebf3f3;}.cls-48{fill:#90a8ad;}</style></defs><g id="Layer_1-2"><path class="cls-45" d="m4.76,235.88c-1.61-6.4-.91-12.46,2.65-18.12,1.26-2,2.65-3.89,4.11-5.73,2.24-3.26,5.25-5.7,8.47-7.93,7.32-5.09,15.26-8.96,23.63-11.99,3.64-1.21,7.25-2.48,10.96-3.48.71-.19,1.46-.6,2.18.02.16.62-.08,1.17-.29,1.72-2.36,6.18-3.81,12.55-3.91,19.2,0,.48-.08.94-.35,1.36-2.58,1.64-5.43,2.85-7.82,4.81-2.47,2.02-4.94,4-6.53,6.9-3.2,5.85-1.73,11.03,2.08,15.78,5.32,6.64,12.54,10.83,19.92,14.78,6.07,3.25,12.46,5.72,18.96,7.9,10.09,3.39,20.43,5.79,30.98,7.32,6.6.96,13.21,1.7,19.86,2.15,9.46.64,18.94.57,28.38.17,12.14-.51,24.18-2.27,36.07-4.87,7.27-1.59,14.43-3.57,21.47-6.03,6.15-2.15,12.19-4.52,17.97-7.51,5.68-2.94,11.15-6.24,15.9-10.56,3.39-3.09,6.29-6.57,7.49-11.17.83-1.17.63-2.5.5-3.77-.95-9.19-1.51-18.43-2.65-27.6-.07-.59-.09-1.18.11-1.74.82-1.21,1.65-.32,2.45.02,3.63,1.57,6.95,3.71,10.44,5.55,3.3,2.21,6.36,4.72,9.24,7.46.27.25.46.54.54.89,1.29,2.1,3.12,3.78,4.42,5.89,3.68,5.95,4.56,12.26,2.81,18.99-2.09,5.79-5.9,10.41-10.28,14.56-6.41,6.06-13.79,10.72-21.54,14.89-5.02,2.69-10.14,5.12-15.38,7.3-11.67,4.84-23.74,8.41-36.11,11.03-6.84,1.45-13.7,2.69-20.63,3.54-6.63.81-13.27,1.43-19.95,1.79-7.52.41-15.02.22-22.54.25-5.97.02-11.92-.55-17.88-.92-6.8-.43-13.54-1.37-20.27-2.33-6.5-.93-12.9-2.45-19.3-3.92-6.65-1.52-13.15-3.55-19.54-5.87-9.79-3.56-19.3-7.74-28.31-13.04-6.55-3.85-12.87-8-18.38-13.24-3.7-3.52-6.94-7.43-9.08-12.15-.34-.75-.24-1.65-.87-2.27Z"/><path class="cls-31" d="m274.35,203c-3.54-1.88-7.08-3.77-10.63-5.64-.56-.3-1.18-.5-1.77-.75-.86-.56-.88-1.48-.96-2.35-1.05-10.48-1.89-20.99-3.07-31.46-.08-.71-.15-1.41.26-2.06.49-.49,1.11-.55,1.75-.54.94.02.96-.67,1.05-1.33,1.08-8.25,1.88-16.53,2.95-24.78.34-2.65.31-4.93-1.17-7.36-1.48-2.44-2.44-5.22-3.69-7.83-.07-2.06.8-3.92,1.23-5.88.41-1.85,1.07-3.64,1.27-5.53.3-2.78-.51-3.69-3.31-3.7-11.42-.03-22.84,0-34.27-.01-7.46,0-14.91,0-22.37,0-.88,0-1.78.08-2.63-.27-.48-.29-.53-.61-.02-.91.53-.31,1.14-.3,1.73-.3,9.94-.01,19.89,0,29.83,0,.48,0,.95.04,1.71.33-3.12-1-5.65-2.43-7.97-4.19-5.66-4.29-9.55-9.98-12.48-16.35-4.71-10.23-7.7-20.99-9.59-32.06-.75-4.37-.9-8.84-.27-13.26.48-3.37,1.47-4.26,4.83-4.08,8.27.44,15.94,2.93,22.07,8.59,10.5,9.7,17.3,21.64,20.08,35.76.54,3.2,1,6.39.93,9.66-.1,4.81.12,9.61.52,14.41.03.24.39-.07.17.03-.07.03-.11,0-.12-.12-.6-7.35-.95-14.69-.05-22.04.82-6.55,2.78-12.73,6.19-18.41.36-.61.75-1.19,1.29-1.67,2.71-3.03,5.35-6.14,8.81-8.38.76-.5,1.45-1.1,2.35-.29,5.36,6.53,10.21,13.39,14.02,20.97,3.91,7.77,6.82,15.91,9.46,24.17.43,1.29-.4,2.12-1.12,2.97-3.68,4.31-7.16,8.79-10.78,13.15-3.69,5.06-7.45,10.07-11.07,15.18-1.44,2.04-2.16,4.15-2.41,6.53-.74,6.99-1.49,13.98-1.88,21.01-.08,1.47-.35,2.93-.32,4.42.02,1.13.49,1.58,1.61,1.58,1.41,0,2.84-.18,4.24.21,1.78,1.09,3.52.18,5.26-.13,1.97-.25,3.94-.11,5.91-.13.29.04.59.06.88.07,3.03.09,3.31.36,2.59,3.39-2.06,8.64-4.4,17.2-6.75,25.76-1.03,3.76-1.98,7.55-3.2,11.27-.27.83-.35,1.76-1.11,2.36Z"/><path class="cls-13" d="m11.4,235.37c.19-.7.4-.39.54,0,2.77,7.66,8.28,13.16,14.45,18.08,3.54,2.82,7.21,5.5,11.14,7.74,4.94,2.83,9.83,5.77,15.12,7.96,3.79,1.57,7.45,3.48,11.3,4.87,5.3,1.92,10.59,3.91,16.04,5.4,4.94,1.34,9.91,2.54,14.93,3.58,3.22.67,6.45,1.31,9.68,1.94,3.76.73,7.56,1.11,11.36,1.55,4.15.48,8.29.93,12.45,1.36,1.87.19,3.77.24,5.64.35,10.04.59,20.1.64,30.15.33,5.39-.16,10.8-.6,16.19-1.19,5.21-.57,10.39-1.29,15.58-1.96,3.32-.43,6.62-1.11,9.89-1.84,5.28-1.19,10.58-2.35,15.79-3.83,7.77-2.19,15.44-4.69,22.87-7.9,4.16-1.8,8.36-3.51,12.34-5.65,7.67-4.13,15.21-8.46,21.8-14.29,3.93-3.47,7.36-7.3,10.17-11.7.89-1.38,1.62-2.87,2.13-4.45.25-.77.35-.29.49.05-1.35,6.84-4.83,12.53-9.56,17.5-6.77,7.12-14.92,12.37-23.54,16.9-15.38,8.09-31.68,13.66-48.6,17.49-13.29,3.01-26.74,4.76-40.33,5.66-10.94.73-21.88.79-32.82.21-19.84-1.05-39.41-3.87-58.48-9.57-17.04-5.09-33.21-12.11-47.7-22.59-7.03-5.08-13.09-11.08-16.82-19.1-1.02-2.2-1.89-4.47-2.21-6.9Z"/><path class="cls-37" d="m3.63,137.97c-4.55-6.42-3.86-13.58-3-20.79.23-1.94.48-3.86,1.12-5.71.27-.76.38-1.69,1.36-1.92,1.02-.24,1.45.58,1.96,1.22.18.23.42.42.62.63,1.8,1.38,2.59,3.47,3.62,5.35,2.77,5.05,4.01,10.56,4.43,16.28.24,3.36.83,6.68,1.6,9.95.49,2.09.87,2.23,2.71,1.1.16-.1.33-.12.51-.11,1.16,1.39,2.76.85,4.22.96,1.37.26,2.57-.54,3.88-.63,1.76.19,3.51.53,5.29.47,1.7-.06,2.48.63,2.32,2.33-.26,2.72-.11,5.44-.26,8.16-.5,9.5-1.05,19-1.4,28.51-.07,2.01-.4,4-.37,6.02,0,.59-.09,1.18-.53,1.65-.4.3-.87.36-1.34.36-5.19.02-10.38.13-15.58.1-.47,0-.94-.04-1.4-.19-.45-.16-.76-.45-.91-.9-.62-7.3-1.52-14.57-2.24-21.85-.68-6.88-1.39-13.75-1.9-20.64-.26-3.55-.32-3.54,3.46-3.87-3.09-1.95-6.59-3.05-8.15-6.47Z"/><path class="cls-19" d="m10.7,82.93c3.52,1.3,5.56,3.94,6.78,7.36.91,2.54,1.86,5.08,2.78,7.61.51.27.68.79.85,1.28,1.15,3.31,2.28,6.62,2.95,10.08.27,1.6.85,3.16.68,4.83.07,4.74.06,9.48-.43,14.2-.23.8-.27,1.61-.26,2.45.06,4.48-1.02,8.89-.81,13.38.02.47-.21.92-.47,1.32-.92,0-1.84-.04-2.76.03-1.11.09-1.62-.34-1.53-1.45-.7-.82-.55-1.8-.37-2.71.47-2.44.18-4.84-.42-7.19-1.5-5.95-2.96-11.91-4.19-17.93-.74-3.63-2.27-7.07-3.47-10.59-.51-1.49-1.1-2.96-1.07-4.57-1.06-3.91-3.03-7.53-3.68-11.57-.14-.86-.26-1.75-.24-2.62.05-2.71,1.53-4.06,4.27-3.97.47.01.94.05,1.41.08Z"/><path class="cls-27" d="m63.21,188.05c1.67-3.3,3.34-6.6,5.01-9.9.06-.56.35-.88.93-.9,3.07.85,6.14,1.66,9.33,1.97,3.36.75,6.79.85,10.19,1.11,4.65.36,9.31.57,13.98.41,7.14-.24,14.27-.67,21.32-1.94,1.21-.22,2.42-.62,3.68-.3.74.3.99,1,1.35,1.62,1.34,3.08,2.86,6.1,3.56,9.42.44,2.08.34,2.21-1.75,2.8-6.43.84-12.76,2.05-18.35,5.6-8.42,5.34-13.39,12.83-14.26,22.9-.15,1.78-.28,3.51-.03,5.29.3,2.09-.26,2.7-2.41,3.11-3.64.71-6.68-.61-8.65-3.73-2.52-4-6.27-4.28-9.36-.68-2.19,2.55-4.67,4.7-7.89,5.85-1.07.22-1.76-.43-2.48-1.06-2.16-1.89-3.75-4.22-5.23-6.64-1.79-3.25-3.09-6.67-3.6-10.36-.09-.63-.08-1.28.07-1.92.02-.09.04-.18.06-.27-.23-7.82,1.62-15.22,4.51-22.41Z"/><path class="cls-33" d="m168.39,178.17c.97-10.52,1.96-21.03,2.58-31.58.02-.41-.04-.84.37-1.12.55-.35,1.16-.18,1.73-.18,4.32-.02,8.65.16,12.96-.04,21.05-.99,42.11-.14,63.17-.44,1.78-.03,3.55.21,5.32.11.58-.08,1.15,0,1.7.2.96.42,1.4,1.21,1.55,2.2.58,3.96.46,7.98,1.07,11.93.08.53-.09,1.05-.46,1.48.26,2.97.52,5.95.79,8.92.31,3.46.62,6.93.95,10.39.39,4.02.72,8.05,1.25,12.06.2,1.5-.14,3.08.57,4.52.4,4.29.8,8.58,1.19,12.88.57,6.3,1.14,12.6,1.67,18.9.07.88.37,2.02-1.17,2.04-.19.07-.37.05-.54-.06-.71-.64-.65-1.57-.9-2.38-.34-2.15-.4-4.32-.68-6.47-.08-.3-.12-.61-.12-.92-.88-7.72-1.54-15.46-2.41-23.18-.15-1.34.14-2.72-.36-4.03-.9-10.82-2.21-21.6-3.05-32.43-.01-.18-.07-.35-.12-.52-.32-2.44-.5-4.89-.78-7.34-.13-1.2-.59-1.8-1.88-1.75-2.17.08-4.34-.08-6.5.1-1.14,1.51-2.13-.23-3.22-.14-.2,0-.4.03-.6.06-18.05.07-36.09.02-54.13.03-3.4,0-3.46,0-3.72,3.32-.43,5.54-.68,11.09-1.01,16.63-.13,2.18-.35,4.36-.49,6.54-.58,1.32.12,2.85-.67,4.14-.35.35-.77.39-1.23.33-1.61-.39-1.68-1.62-1.53-2.92.1-.81.43-1.6.24-2.44.1-5.37.6-10.72.91-16.08.15-2.53.12-5.08.46-7.6.18-1.3-.37-2-1.79-1.95-1.36.05-2.72.05-4.08,0-1.39-.05-2.03.54-2.14,1.95-.46,5.77-.84,11.54-1.41,17.3-.16,1.65-.35,3.29-.54,4.93-.31.91-.29,1.85-.29,2.79,0,.77,0,1.57-.98,1.84-1.13-.2-2.19-.45-1.71-2.01Z"/><path class="cls-21" d="m263.33,230.33c.1.02.21.05.3.1.19,1.12-.24,2.07-.74,3.03-3.07,5.77-7.9,9.79-13.2,13.34-8.31,5.56-17.36,9.53-26.77,12.84-9.28,3.26-18.75,5.69-28.41,7.46-7.78,1.43-15.6,2.45-23.49,3.16-10.34.93-20.68.8-31.02.53-8.08-.2-16.12-1.18-24.11-2.44-11.93-1.88-23.62-4.67-34.97-8.85-10.09-3.71-19.71-8.3-28.23-14.94-3.54-2.76-6.76-5.88-8.85-10.01-2.61-5.16-2-10.02,1.38-14.48,3.28-4.32,7.79-7.17,12.61-9.53.25-.12.58-.07.87-.11h0c.35,1.45-.96,1.63-1.72,2.07-3.18,1.85-6.16,3.9-8.83,6.49-5.94,5.77-5.63,11.78-1.06,17.92,3,4.03,6.84,7.19,11.03,9.92,8.13,5.3,16.93,9.19,26.07,12.37,13.83,4.8,28.09,7.63,42.59,9.23,10.88,1.21,21.84,1.5,32.78,1.12,12.19-.42,24.28-1.82,36.27-4.17,11.83-2.31,23.41-5.48,34.54-10.07,8.55-3.53,16.77-7.75,23.89-13.8,3.55-3.02,6.63-6.43,8.34-10.87.19-.24.4-.43.74-.35Z"/><path class="cls-3" d="m254.83,145.43c-1.65,0-3.31.02-4.96.03-26.18,0-52.36.01-78.54.02.55-.52,1.23-.31,1.85-.31,4.61-.02,9.22-.01,13.98-.01-.48-.93-1.19-.59-1.73-.6-4.56-.06-9.11-.07-13.67-.12-.59,0-1.2,0-1.76-.16-.74-.22-1.26-.78-1.12-1.59.13-.8.89-.64,1.44-.64,4.97.02,9.94.03,14.91.12,1.14.02,1.6-.27,1.87-1.46,2.51-11.12,5.09-22.23,7.68-33.34.49-2.09,1.24-4.01,3.83-4.25,8.75.02,17.5.05,26.25.05,11.12,0,22.23.05,33.35-.08,3.92-.04,4.61,2.07,3.92,5.11-.77,3.39-1.73,6.75-2.6,10.12-.07.28-.08.58-.11.87.4,2.16-.65,4.07-1.04,6.09-.81,2.92-1.44,5.88-2.08,8.84-.67,2.43-1.22,4.89-1.7,7.36-.26,1.35-.69,2.61-1.72,3.5.75-.37,1.49-.65,1.96.45Z"/><path class="cls-17" d="m257.96,125.19c.19,8,1.02,15.96,1.16,23.96.07,3.86.66,7.72,1.01,11.58-.58,0-1.17,0-1.76,0-.36-4.27-.74-8.54-1.07-12.82-.08-1-.27-1.85-1.18-2.39-.29-3.81-.69-7.63-.3-11.46.44-3.03,1.32-5.95,2.13-8.88Z"/><path class="cls-18" d="m248.45,76.9c.4.24.88.54.9.99.07,1.23.79.97,1.52.77-.36,4.99-.94,9.98-.7,15,.14,2.98.34,5.96.31,8.95-1.08-8.54-.64-17.2-2.03-25.71Z"/><path class="cls-45" d="m270.8,160.79c1.64,0,3.28,0,4.92,0-1.64.37-3.28,1.4-4.92,0Z"/><path class="cls-8" d="m27.35,129.48c0,4.07.43,8.14-.25,12.2-.16.94-.38,1.85-.77,2.71-.84,1.54-2.28,1-3.56,1.04.32-3.46-.54-6.96.59-10.42.44-1.34.09-2.93.15-4.41.03-.74-.27-1.55.34-2.2.44.51.8,1.08,1.67.61.66-.36,1.33-.11,1.83.47Z"/><path class="cls-18" d="m67.2,37.45c-.43,1.4-1.66,1.74-2.84,2.14.74-.99,1.7-1.69,2.84-2.14Z"/><path class="cls-40" d="m45.01,42.11c-.18.33-.47.32-.75.26-.33-.07-.5-.3-.39-.63.12-.34.41-.37.7-.26.27.11.49.29.44.63Z"/><path class="cls-18" d="m240.57,41.36c-2.23-.42-3.47-2.36-5.18-3.55-1.3-.9-2.9-1.65-3.7-3.2,3.24,1.88,6.21,4.12,8.88,6.75Z"/><g class="cls-49"><path class="cls-38" d="m280.4,111.01c3.53-4.31,7.05-8.63,10.57-12.94.66-.81,1.49-1.53,1.5-2.7,2.38,7.63,4.45,15.33,5.7,23.25,1.06,6.7,1.62,13.42,1.79,20.2.1,4.2-.05,8.37-.21,12.56-.35,9.2-1.61,18.25-3.81,27.15-1.42,5.75-3.09,11.44-5.12,17.04-1.6,4.42-3.5,8.7-5.28,13.04-.33.81-.88,1.53-1.33,2.29-3.27-2.66-6.36-5.54-9.87-7.89,1.47-5.33,2.99-10.65,4.41-16,2.12-8.02,4.2-16.05,6.23-24.09.54-2.13.43-2.16-1.77-2.18-.35,0-.71-.03-1.06-.05,2.24-1.27,2.06-3.52,2.21-5.6.7-9.46.57-18.9-.69-28.3-.71-5.32-1.6-10.64-3.27-15.77Z"/><path class="cls-40" d="m106.64,6.91c6.38-1.64,12.73-3.32,19.26-4.37,6.22-1,12.44-1.75,18.72-2.2,5.44-.39,10.9-.49,16.3-.09,7.36.55,14.72,1.24,22.03,2.55,6.8,1.22,13.42,3.03,20.01,4.95,3.03.88,6.09,1.83,8.94,3.28.53.27,1.06.54,1.68.49.55.82.67,1.69.27,2.61-.41.55-.76.25-.91-.16-.4-1.13-1.29-1.15-2.28-1.26-1.82-.2-3.65-.1-5.45-.42-.44-.08-.76.02-1.13.28-2.23,1.59-4.02,1.1-5.16-1.41-.36-.81-.81-1.6-1.75-1.51-1.93.19-3.56-.65-5.26-1.29-1.31-.49-2.59-.72-3.96-.14-.93.39-1.8.16-2.61-.56-1.34-1.21-3.9-1.35-5.44-.4-1.69,1.04-1.95.99-3.19-.58-.78-.99-.8-1-2.14-1.31-.26,2.03.5,3.52,2.27,4.56.5.3,1.48.38,1.12,1.42-1.16.71-2.46.66-3.74.7-1.73.14-3.43-.19-5.11-.44-8.17-1.21-16.4-1.29-24.59-.88-11.95.59-23.72,2.65-35.22,6.03-11,3.24-21.39,7.9-31.2,13.8-3.59,2.16-7.06,4.54-10.42,7.05-1.25.53-2.14,1.6-3.35,2.2-.18.05-.36.07-.54.07-.99-.21-1.99-.16-3-.07-1.48.14-2.64-1.32-2.21-2.73.73-2.41,1.95-3.3,4.62-3.41,1.16-.05,1.87-.64,2.04-1.81.05-.35.04-.71.05-1.06.08-2.78.67-3.41,3.51-3.44,1.26-.01,2.03-.25,2.47-1.65.68-2.17,2.08-3.68,4.65-3.56.71.03,1.43-.11,2.06-.46,1.01-.56,1.95-.56,3.03-.09,1.25.54,1.68.16,1.76-1.25.02-.42-.03-.83-.12-1.23-.28-1.19.25-1.99,1.29-2.41,1.28-.52,2.47-1.18,4.04-.48,1.13.51,2.55.38,3.84.26,2.02-.19,2.56-.79,2.52-2.82-.02-1.06.32-1.91,1.38-1.85,2.31.13,4.39-.42,6.43-1.46.6-.31,1.37-.44,2.07-.44,1.31,0,1.99-.55,2-1.89,0-.42.24-.79.47-1.13Z"/><path class="cls-22" d="m10.7,82.93c3.05-6.06,6.7-11.77,10.62-17.29,5.56-7.81,11.76-15.09,18.85-21.53,7.02-6.38,14.42-12.31,22.54-17.29,7.68-4.71,15.55-9.06,23.9-12.5.97-.4,1.85-1.06,2.96-1.04-.11,1.39-1.19,1.83-2.27,2.08-1.53.35-2.88,1-4.1,1.95-1.1.86-2.46,1.17-3.72,1.62-3.33,1.21-6.05,3.42-9.1,5.11-.47.26-.87.62-1.05,1.16-.06.17-.09.43-.22.47-1.91.69-3.05,2.84-5.15,2.97-3.07.19-5.39,1.84-7.4,3.77-1.51,1.45-3.15,2.66-4.83,3.84-1.41.99-2.67,2.14-4.03,3.17-.78.59-.99,1.42-.99,2.35,0,1.53.12,3.05-.73,4.48-.45.75-.11,1.39.84,1.51,1.05.13,2.13.08,3.17.29.55.11.85-.25,1.2-.59,1.25-1.25,2.7-2.16,4.28-3.02,1.52-.83,3.26-1.63,4.29-3.22.91-1.42,2.18-1.89,3.8-1.42.43.86-.33,1.17-.79,1.52-4.43,3.3-8.35,7.17-12.2,11.1-8.06,8.24-15.1,17.3-20.9,27.24-3.09,5.29-5.83,10.84-7.9,16.65-.28.8-.59,1.58-1.61,1.66-.84-.35-.86-1.21-1.16-1.89-1.08-2.5-1.67-5.18-2.91-7.62-1.03-2.02-2.52-3.55-4.53-4.6-.39-.2-.96-.27-.88-.93Z"/><path class="cls-38" d="m174.14,11.52c1.33.22,2.59-.35,3.91-.36,2.69-.17,5.42-.83,7.98.61.28.19.51.57.87.55,2.99-.21,5.69,1.72,8.71,1.21.19.01.37.05.55.1.11.03.26.05.32.13,1.39,1.9,3.52,1.91,5.54,2.54,2.95.91,6.19,1.57,8.52,3.97.88.9,2.04,1.24,3.23,1.26,1.82.03,3.6.75,5.45.3.28-.07.72-.07.85.13,1.02,1.69,3.37,1.94,4.14,3.88.39.98,1.16,1.45,2.21,1.49.41.02.82.13,1.23.14,2.55.04,4.34,1.35,5.61,3.43.54.89,1.24,1.38,2.28,1.44,1.21.07,2.13.99,3.34,1.13,1.93.22,2.64-.38,2.59-2.33-.02-.72-.15-1.41-.41-2.08-.45-1.18-.96-1.98-2.47-1.15-1.2.66-2.28.14-2.6-1.46-.4-2.04-1.49-2.57-3.34-2.4-.93.09-1.79-.28-2.27-1.12-.66-1.15-1.66-1.42-2.86-1.33-1.63.12-2.91-.31-3.47-2.04-.3-.93-1.22-.79-1.94-.96-1.24-.28-2.67-.16-3.36-1.58-.12-.13-.22-.27-.32-.41-1.4-.89-3.12-.38-4.57-1.03-.37-.35-.66-.72-.28-1.24v-2.84c5.61,2.43,11.11,5.08,16.49,8.03,3.97,2.17,7.82,4.52,11.58,6.98,4.9,3.21,9.61,6.75,14.08,10.58,4.74,4.06,9.04,8.57,13.29,13.12-.59-.15-1.05-.05-1.61.34-3.22,2.23-6.12,4.78-8.42,7.96-.16.23-.44.37-.66.55-.78-.02-1.26-.52-1.75-1.06-3.4-3.76-6.79-7.53-10.47-11.04-1.92-1.83-4.12-3.34-5.88-5.34-2.61-2.59-5.56-4.74-8.69-6.65-.85-.38-1.72-.74-2.31-1.51-1.4-1.49-3.19-2.4-4.96-3.33-6.1-4.02-12.77-6.91-19.49-9.7-7.01-2.91-14.26-5.05-21.68-6.58-2.54-.52-5.08-1.09-7.65-1.5-.53-.08-1.27.06-1.29-.84Z"/><path class="cls-12" d="m12.85,190.58c.12.24.23.47.35.71.56,1.17,1.6,1.35,2.69,1.19,4.89-.71,9.83-.51,14.75-.74.47-.02.93-.17,1.34-.41.79-.34,1.62-.28,2.43-.28,4.64,0,9.28-.1,13.91.24.71.05,1.42.07,1.88.75-3.75,1.56-7.56,2.99-11.18,4.84-7.37,3.77-14.52,7.87-20.15,14.13-.19.21-.47.35-.7.52-1.45-2.81-2.88-5.62-3.93-8.6-1.44-4.07-3.27-8.01-3.88-12.34.83-.82,1.67-.88,2.51,0Z"/><path class="cls-40" d="m63.65,39.94c-1.55.09-3.1.18-3.71,2.02-.05.16-.19.34-.33.4-1.69.77-2.79,2.4-4.69,2.96-1.39.41-2.62,1.4-3.44,2.69-.47.73-.88.96-1.72.59-.9-.4-1.91-.27-2.88-.26-1.34.02-2.3-1.15-1.51-2.12,1.23-1.51.81-3.13.85-4.73.02-.96.25-1.71.99-2.33,2.25-1.9,4.7-3.51,7.07-5.24,1.68-1.23,3.03-2.84,4.83-4.01,1.51-.98,2.98-1.58,4.7-1.66.88-.04,1.64-.08,1.99-1.06.09-.26.35-.68.52-.67,2.6.05,3-2.86,5.07-3.69,2.09-.84,3.89-2.41,5.83-3.63.64-.4,1.43-.38,2.15-.67,2.23-.9,4.3-2.06,6.4-3.2,1.26-.68,2.93-.61,3.83-2.03,4.82-2.45,9.94-4.09,15.09-5.63.68-.2,1.32-.48,1.96-.75,0,.71.03,1.42-.02,2.13-.08.96-.53,1.43-1.61,1.42-1.62-.01-3.22.15-4.57,1.29-1.1.93-2.44.6-3.72.49-1.36-.12-2.24-.02-1.86,1.88.5,2.5-1.43,3.1-4.04,2.94-1.3-.08-2.88.62-4.17-.73-.28-.3-1.79.47-2.69.87-1.03.46-1.22,1.08-.69,2.26.34.76.28,2.15-.39,2.81-.72.71-1.78.19-2.59-.37-.34-.24-.73-.59-1.11-.27-1.16.97-2.55,1-3.95,1.15-1.98.21-3.49,1.71-3.72,3.83-.11,1.04-.53,1.33-1.45,1.25-.29-.03-.59,0-.89,0-3.3,0-3.38.08-3.39,3.38,0,2.45-1.02,3.31-3.31,2.79-.37-.08-.68-.05-1.03.08-1.55.57-2.67,3.22-2.09,4.73.27.72.58.69,1.18.56,1.16-.26,2.34-.36,3.46.19.09.32-.04.44-.35.36Z"/><path class="cls-5" d="m12.85,190.58c-.84-.42-1.67-.04-2.51,0-.49-.22-.66-.64-.77-1.12-1.17-5.26-3.09-10.32-3.57-15.76-.26-3-.95-5.99-1.44-8.99-.5-3.08-.7-6.19-.88-9.28-.22-3.7-.69-7.4-.44-11.12.14-2.11.51-4.21.38-6.34,2.3,2.42,4.98,4.28,8.02,5.66.41.19.75.55,1.1.86.16.15.37.39.15.61-.14.14-.42.23-.61.2-1.16-.2-2.58-.62-3.39.14-.9.85,0,2.24.1,3.38.49,6.03,1.1,12.05,1.68,18.07.49,5.09.99,10.17,1.49,15.25.28,2.81.84,5.59.71,8.43Z"/><path class="cls-38" d="m8.95,101.02c2.68,7.55,5.52,15.04,6.77,23.03.65,4.13,2.25,8.06,2.94,12.2.44,2.64-.22,5.17-.19,7.75-.36,1.06-.98,1.62-2.22,1.47-1.28-.16-1.09-1.12-1.33-1.94-1.5-5.17-1.48-10.57-2.43-15.82-.84-4.68-2.43-9.07-5.02-13.08-.67-1.03-1.2-2.15-1.79-3.24,1.1-1.8,1.28-3.92,2.09-5.84.6-1.42.79-3.02,1.17-4.54Z"/><path class="cls-5" d="m31.64,191.24c.01.13.02.27.04.4-.78,1.18-1.97.36-2.92.48-1.93.25-3.86.59-5.89.34-1.87-.23-3.83.18-5.74.45-.94.14-1.88.2-2.8.12-.99-.09-1.73-.54-1.13-1.75,6.15-.01,12.29-.03,18.44-.04Z"/><path class="cls-25" d="m185.86,12.23c-.8-.78-1.8-.67-2.81-.73-1.67-.1-3.39.41-5.01-.34-.57-.29-1.13-.61-1.71-.88-2.3-1.06-2.16-3.39-2.71-5.32-.2-.71.6-.6,1-.44,1.09.44,2.2.9,2.7,2.12.52,1.28,1.23,1.24,2.11.32,1.22-1.27,5.18-1.17,6.18.25.63.89,1.48,1.02,2.13.58,2.02-1.36,3.85-.13,5.52.51,1.18.46,2.21.85,3.47.74,1.29-.11,2.25.35,2.61,1.79.2.79.32,2,1.39,1.98,1.1-.02,2.71.89,3.18-1.13.07-.29.38-.54.69-.31,1.78,1.27,3.86.47,5.78.74,1.67.23,2.9.36,3.18,2.25.12.36.24.71.36,1.07,1.04.84,2.09,1.49,3.52.76.41-.21,1.04-.14,1.45.31.25.73.13,1.59,1.04,2.07.49.26.43.92.23,1.45-.71,1.89-2.07,2.37-3.87,1.56-1.12-.5-2.26-.96-3.36-1.52-.63-.32-1.62-.31-1.11-1.5.17-.39-.24-.13-.34-.16-1.08-.23-2.13-.6-3.29-.25-.96.29-1.72-.21-2.22-1.04-.36-.6-.77-.89-1.41-.4-.8.61-1.48.31-1.97-.38-.61-.87-1.41-1.19-2.42-1.17-.23,0-.61,0-.67-.14-.71-1.68-2.19-.79-3.33-1.02h-.36c-1.97-.39-4.03-.32-5.84-1.49-.67-.43-1.72-.14-2.59-.08-.53.04-1.05.16-1.51-.21Z"/><path class="cls-40" d="m196.17,14.01c.49-.19,1-.35,1.47-.57,1.31-.6,1.3-.61,1.54.78.12.72.72.51,1.11.48,1.22-.09,2.18.11,2.67,1.45.34.93.97.64,1.49.06.86-.96,1.4-.87,1.79.42.26.86.96,1.56,1.86,1.11,1.05-.52,1.9-.29,2.85.08.37.14.8.2,1.2.19.33-.01.74-.71.97,0,.19.58-.43.55-.81.66-.25.07-.44.23-.31.51.06.13.24.26.39.31,1.76.6,3.56,1.09,5,2.37.4.35.86.28,1-.19.22-.68.79-.99,1.22-1.46.38-.43.61-1.25.08-1.36-1.79-.39-.65-1.54-.77-2.35.83,2.02,2.8,1.34,4.29,1.73.71.19,1.22.07,1.33,1.11.13,1.2.91,1.95,2.36,1.8,1.64-.17,3.29-.29,4.07,1.8.34.91,1.44.76,2.23.64,1.88-.28,3.07.22,3.12,2.34,0,.33.16.69.33.99.52.87,1.12,1.4,2.08.43.98-1,1.77-.67,2.36.46.44.84.89,1.72.89,2.67,0,1.13.54,2.56-.68,3.29-1.28.77-2.81.48-4.05-.19-.81-.44-1.53-.81-2.45-.73-.74.06-1.3-.31-1.58-.94-1.36-3.03-3.84-4.11-6.96-4.01-1.46.05-2.16-.73-2.59-1.94-.3-.84-.47-1.7-1.79-1.42-.74.15-1.03-.62-1.23-1.27-.27-.9-.78-1.05-1.74-.92-2.52.34-5.07-.08-7.47-.72-.8-.21-1.9-1-2.6-1.84-.56-.66-1.18-1.22-2.03-1.32-2.79-.32-5.11-2.73-8.2-1.82-.47.14-.96-.2-.98-.78-.04-.99-.76-1.38-1.44-1.83Z"/><path class="cls-40" d="m185.86,12.23c2.56-1,4.88.03,7.15.98.93.39,1.99.13,2.8.8-1.99-.03-3.98.22-5.85-.88-.63-.37-1.61-.16-2.43-.18-.66-.01-1.32.02-1.66-.72Z"/><path class="cls-40" d="m218.9,16.49c-.59.02-1.41-.2-1.73.1-1.95,1.84-2.4-.15-3.24-1.17,1.41-.15,2.77.21,4.15.35.47.05.77.22.83.71Z"/></g><path class="cls-18" d="m229.56,33.19c-1.75-.93-3.7-1.53-4.97-3.2,1.95.61,3.55,1.77,4.97,3.2Z"/><path class="cls-16" d="m23.53,109.18c1.01-1.97.82-4.2,1.37-6.28,1.25-4.75,2.73-9.39,5.8-13.33.39-.5.87-1,1.41-1.32,1.39-.84,2.75-.01,2.78,1.62.02,1.24-.61,2.27-1.1,3.32-3.14,6.67-5.31,13.56-5.76,20.99-.15,2.51.11,5.07-.57,7.54-.44-.3-.53-.78-.56-1.24-.06-.91-.44-1.42-1.42-1.38-.99.04-1.08-.6-1.09-1.41-.02-1.28.19-2.58-.14-3.85.19-1.62-.66-3.07-.71-4.65Z"/><path class="cls-41" d="m24.24,113.83c.69,1.22.16,2.54.34,3.8.06.42-.12,1.18.62.96,2.5-.74,2.26.88,2.21,2.41,0,.23.03.47.05.71-.03,2.59-.07,5.18-.1,7.77-.81-.06-1.52-.23-2.42.24-1.4.74-.91-.7-1.08-1.32.04-4.86.57-9.7.39-14.57Z"/><path class="cls-27" d="m59.36,165.04c-13.29.49-23.22-10.47-25.55-22.33-1.04-5.31-1.31-10.56.76-15.71,1.37-3.39,3.64-6.05,6.59-8.16,1.4-1,2.78-2,4.14-3.05,2.17-1.67,3.25-3.84,3.06-6.62-.17-2.6-.41-5.2-.39-7.79.06-9.88,4.36-17.44,13.24-21.76,5.78-2.82,9.21-6.63,10.45-13.13,1.62-8.47,6.3-15.34,13.46-20.35,9.82-6.88,23-6.19,31.42,1.71,4.39,4.12,6.67,9.41,7.76,15.23,1.63,8.65.71,16.87-3.92,24.6-2.72,4.54-4.49,9.57-6.64,14.41-.09.2-.03.47-.04.7-.52.49-1.1.32-1.65.11-2.99-1.08-6-2.08-9.15-2.63-.57-.1-1.16-.26-1.52-.8-.59-1.78-.29-3.61-.27-5.42.27-1.29-.1-2.8,1.32-3.68.87-.26,1.76-.18,2.64-.16,3.77.1,6.42-1.71,8.28-4.85,1.5-2.53,2.43-5.31,2.74-8.2.66-5.99.68-11.95-2.01-17.57-.1-.21-.19-.44-.32-.63-.26-.36-.31-1.02-.9-.94-.45.06-.49.62-.63.99-2.22,5.87-6.33,9.76-12.31,11.62-3.11.97-6.28,1.13-9.43.13-1.28-.4-2.58-.85-3.6.38-1,1.2-.66,2.55-.11,3.86.57,1.36,1.63,2.18,2.99,2.58,1.34.4,1.68,1.21,1.52,2.55-.53,4.64-1.49,9.22-1.59,13.92-.07,2.95.59,5.62,2.09,8.12,1.2,2.1,2.49,4.15,3.77,6.2,5.01,8.04,4.85,16.27.97,24.64-.37.8-.82,1.57-1.19,2.37-4.03,6.81-8.66,13.17-14.12,18.92-4.57,4.02-9.33,7.74-15.23,9.69-1.57.52-3.18.87-4.77,1.28-.66.17-1.28.08-1.87-.26Z"/><path class="cls-44" d="m80.96,153.98c5.35-5.67,9.8-12.01,13.96-18.57,4.89-5.75,10.04-11.24,15.67-16.29.87-.78,1.67-1.64,2.58-2.38,1.46-1.19,2.16-2.69,2.26-4.6.13-2.6.76-5.11,1.89-7.48,1.49-.32,1.6-1.78,2.14-2.79,1.31-2.46,3.12-3.88,6-3.68,3.59-.28,4.97.85,5.47,4.53.13.93.36,1.84.5,2.77.3,1.96-.31,3.37-2.02,4.23-.88.44-1.09,1.35-1.74,1.93-.64.36-.42.96-.43,1.5-.87,1.53-1.45,3.22-2.54,4.63-1.96,2.38-2.7,5.36-3.93,8.09-2.62,5.82-5.38,11.56-8.28,17.25-3.86,7.58-8.61,14.55-13.54,21.4-4.01,5.57-8.58,10.7-14.79,14.09-1.97,1.07-3.9,1.07-5.95,1.03-3.25-.13-6.37-.84-9.35-2.15-1.64-.58-2.44-1.97-3.13-3.39-.77-1.58-1.3-3.27-1.44-5.05.13-1.46,1.29-2.08,2.36-2.64,5.44-2.83,9.58-7.18,13.72-11.54.24-.26.49-.51.58-.87Z"/><path class="cls-10" d="m168.39,178.17c.06,1.03.94,1.36,1.59,1.88.32.13.5.4.68.67,3.98,3.07,7.57,6.59,11.38,9.85,1.72,1.48,3.59,2.6,5.73,3.43,5.39,2.08,9.15,5.97,11.46,11.21,1.17,2.64,1.1,5.54.9,8.38-.07,1.02-.64,1.85-1.69,2.01-.95.14-1.7-.59-1.83-1.37-.46-2.73-2.16-4.02-4.6-5.04-1.93-.81-3.68-2.09-5.78-2.6-.81-.26-1.44-.82-2.01-1.39-2.56-2.5-5.67-4.13-8.81-5.73-.46-.23-1.01-.4-.98-1.08.98-.83,1.88-.19,3.13.3-1.35-1.76-2.6-3.15-4.38-3.97-2.79-1.29-5.63-2.47-8.45-3.71-7.05-3.1-13.89-6.59-19.94-11.45-3.84-2.62-7.88-4.96-11.54-7.86-2.36-1.88-4.57-3.91-6.38-6.33-.48-.65-1.15-1.21-1.19-2.12.19-.65.67-1.04,1.21-1.38,4.98-2.17,9.74-4.74,14.22-7.82.87-.6,1.72-1.02,2.78-.65,1.85,1.95,3.65,3.96,5.56,5.85,3.81,3.77,7.72,7.44,11.51,11.24,1.74,1.75,3.27,3.71,4.94,5.53.74.81,1.31,1.85,2.49,2.16Z"/><path class="cls-34" d="m127.67,111.63c.18-1.13.12-2.16,1.85-2.45,1.39-.23,1.56-1.96,1.45-3.24-.15-1.64-.51-3.27-.89-4.87-.36-1.56-1.47-2.34-3.04-2.52-.54-.06-1.2.36-1.59-.37.73-.78,1.48-1.52,2.66-1.55.71-.02,1.02-.52,1.16-1.14.35-1.53,1.35-2.07,2.85-2.07,7.75,0,15.5-.04,23.25-.07,1.67,0,2.6.87,2.63,2.46.07,3.31.23,6.66-.37,9.91-2.16,11.72-15.83,16.04-25.15,7.92-1.48-1.29-2.87-2.14-4.81-2.01Z"/><path class="cls-39" d="m143.89,153.4c-2.86.7-4.93,2.8-7.42,4.18-3.11,1.72-6.18,3.5-9.59,4.58-.58.21-.92,1.13-1.66.76-.74-.37-.58-1.21-.64-1.91-.03-.41.02-.83-.02-1.24-.41-4.21.37-7.69,3.7-10.95,4.34-4.24,4.46-9.7,2.2-15.3-1.59-3.96-3.75-7.62-5.53-11.47-.68-1.48-1.13-2.96-.55-4.59.55-1.01,1.06-2.03,1.66-3.01.3-.5.34-1.28,1.18-1.32,5.97,8.58,9.74,18.32,14.48,27.55,1.4,2.73,2.88,5.43,4.84,7.81.75.91.61,1.55-.24,2.21-.79.62-1.54,1.29-2.35,1.87-.41.3-.39.52-.08.83Z"/><path class="cls-30" d="m117.32,104.66c.32,1.1-.14,2.21-.56,3.05-.71,1.4-.71,2.88-.8,4.27-.14,2.24-.97,3.91-2.65,5.32-3.92,3.3-7.53,6.91-11.03,10.65-2,2.14-4.01,4.28-6,6.43-.4.43-.68.98-1.36,1.02,1.47-3.22,2.96-6.41,3.6-9.95,1.24-6.95-.69-13.07-4.55-18.77-.92-1.36-1.69-2.83-2.53-4.25.61-.61,1.41-.49,2.15-.51,1.17-.03,2.35-.12,3.51.02,2.1.25,3.35-1.03,4.63-2.32,3.58.37,6.97,1.5,10.34,2.7.55.2,1.12.32,1.67.48,1.2.62,2.4,1.23,3.59,1.85Z"/><path class="cls-42" d="m80.96,153.98c-.69,2.38-2.76,3.69-4.3,5.39-3.07,3.39-6.91,5.8-10.83,8.08-.58.34-1.07.74-1.16,1.46-.82.45-1.56,1.02-2.29,1.62-.55.45-1.2,1.13-1.92.16-.9-1.78-.43-3.83-1.11-5.65,7.36-.82,13.49-4.23,19.03-8.94.85-.72,1.71-1.42,2.57-2.13Z"/><path class="cls-35" d="m60.47,170.69c1.06.45,1.54-.42,2.17-.95.59-.5,1.06-1.29,2.04-.83.49,3.3,1.74,6.22,4.19,8.56-.21.23-.43.45-.64.68-3.73-1.29-6.34-3.75-7.75-7.46Z"/><path class="cls-2" d="m174.49,198.39c2.41,1.51,5.14,2.47,7.4,4.24,1.47,1.15,2.87,2.38,4.31,3.58,3.4,2.66,4.63,6.52,5.38,10.46.74,3.89.69,7.87-.17,11.79-.16.75-.32,1.5-.69,2.18-.11.21-.26.4-.36.61-2.98,6.85-8.79,9.92-15.59,11.67-9.91,2.55-20.02,3.27-30.21,3.71-7.28.32-14.55.34-21.82.23-6.85-.1-13.7-.31-20.55-.88-5.89-.49-11.79-.82-17.65-1.61-7.03-.95-14.08-1.85-20.98-3.6-.98-.43-2.09-.58-2.95-1.31-1.2-2.17-.95-4.02,1.06-5.37,2.43-1.63,5.07-2.92,7.94-3.65,3.08-1.48,5.69-3.53,7.87-6.18,3.06-3.73,7.75-3.38,9.93.88,1.99,3.9,6.3,4.2,9.68,3.33,1.07-.28.67-1.11.59-1.75-.61-5.04.05-9.96,1.99-14.6,4.15-9.91,11.77-15.88,22.02-18.62,2.96-.79,5.97-1.43,9.06-1.55,10.16-2.11,20.12-.45,30.07,1.6,3.72.77,7.26,2.07,10.85,3.2.79.46,1.67.77,2.48,1.2.15.11.26.25.34.42Z"/><path class="cls-45" d="m60.84,239.24c.8.36,1.6.71,2.41,1.07-.27.99.41,1.25,1.14,1.42,3.72.9,7.22,2.48,10.87,3.59,2.19.67,4.37,1.43,6.64,1.82.35.06.71.11,1.03.26,3.15,1.45,6.59,1.84,9.92,2.47,2.97.57,5.92,1.35,9.05,1.43,3.63.09,7.29.7,10.94.96,2.7.19,5.39.51,8.12.37,2.87-.15,5.73.56,8.63.66,2.44.09,4.83-.27,7.24-.39.35-.02.73-.24,1.05-.13,2.53.94,5.14.16,7.71.35,2.11.16,4.24-.17,6.37-.3,5.07-.3,10.16-.32,15.2-.9,3.34-.39,6.65-1.06,9.94-1.77,1.87-.41,3.79-.24,5.62-.74,5.29-1.43,10.6-2.74,15.87-4.24,5.55-1.58,10.71-4.05,16-6.21,2.07-.85,4.15-1.98,5.92-3.48,2.64-2.25,5.98-3.27,8.93-4.97,1.12-.64,2.52-.66,3.82-.67,9.17-.05,18.34-.03,27.52,0,.8,0,1.71-.12,2.16.85-.6,3.03-2.5,5.32-4.49,7.5-5.59,6.14-12.61,10.29-19.94,13.97-11.91,5.99-24.54,9.89-37.52,12.71-9,1.96-18.08,3.42-27.27,4.27-10.09.94-20.19,1.25-30.3.9-9.2-.32-18.37-1.07-27.49-2.58-8.99-1.49-17.9-3.29-26.58-5.99-12.41-3.86-24.39-8.72-34.89-16.6-4.04-3.03-7.69-6.49-9.95-11.14-2.35-4.84-1.52-9.98,2.11-13.95,3.08-3.37,6.76-5.89,10.72-8.06.57-.31,1.21-.53,1.37-1.28.54,4.39,1.85,8.53,3.89,12.45.34.47.08.78-.3,1-.51.3-1.05.65-1.61.7-2.4.23-2.97,2.11-3.67,3.89-.11.28-.22.61-.08.86,1.08,2,.44,4.16.65,6.24.17,1.66,1.63,3.25,3.29,3.63Z"/><path class="cls-48" d="m124.41,117.46c.18,4.04,2.51,7.25,4.23,10.68,1.91,3.79,3.79,7.63,3.83,11.92.03,3.82-1.48,7.35-4.33,9.89-2.44,2.18-3.52,4.53-3.06,7.72.15,1.04.02,2.12.03,3.19q0,1.99,1.78,1.3c-.24.47-.6.82-1.06,1.07.73,2.07.57,4.27.85,6.41.31,2.33.54,4.67,1.24,6.94.23.75.65,1.57-.03,2.33-2.56-.05-4.99.78-7.5,1.09-11.24,1.39-22.49,1.83-33.79.73-2.81-.27-5.63-.46-8.39-1.11,7.19-.63,11.72-5.4,16.2-10.31,4.03-4.41,7.35-9.34,10.53-14.35,2.04-3.22,4.43-6.25,6.03-9.73,2.07-4.53,4.6-8.82,6.57-13.43,1.76-4.14,3.6-8.26,5.38-12.4.33-.77.89-1.37,1.49-1.94Z"/><path class="cls-9" d="m172.01,197.33c-4.47-1.2-8.81-2.9-13.4-3.67-3.87-.65-7.71-1.41-11.65-1.74-4.01-.33-8.01-.1-12.01-.31-1.43-.07-2.76.7-4.2.36,1.52-.15,1.71-.89,1.36-2.32-.79-3.23-2.38-6.14-3.43-9.25.2-.89.96-.97,1.65-1.05,4.1-.46,8.21-.69,12.33-.73.78,0,1.5.29,2.22.54,5.81,4.49,12.27,7.88,18.88,11.01,2.71,1.28,5.52,2.33,8.29,3.46,2.48,1.01,4.45,2.63,5.92,4.86.2.3.49.58.17.93-.37.4-.64.03-.87-.2-.79-.77-1.76-.91-2.79-.83-.12,0-.23,0-.35-.01-.44-.91-1.46-.63-2.14-1.05Z"/><path class="cls-6" d="m60.84,239.24c-.23.35-.58.88-.93.54-1.05-1-2.21-2-2.83-3.25-.28-.55-.4-1.71-.14-2.53.48-1.52.2-2.9-.52-4.23-.46-.85.17-1.44.43-2.14.2-.53.94-.87.35-1.7-.38-.53.42-.69.8-.84,1.3-.52,2.61-1.02,3.93-1.46.4-.14.59-.34.65-.72,1.55,2.36,3.17,4.65,5.26,6.57.53.48.99,1.01,1.78.99-2.45,1.26-4.96,2.43-7.34,3.82-2.09,1.23-2.39,2.63-1.45,4.95Z"/><path class="cls-29" d="m262.92,230.7c-.64-.4-1.36-.34-2.07-.34-9.12,0-18.23-.05-27.35.06-1.6.02-3.23-.07-4.79,1.34-1.2,1.09-3.45,1-4.9,2.2-1.42,1.17-3.01,2.14-4.5,3.16-1.36.94-2.99,1.77-4.57,2.47-4.08,1.8-8.28,3.29-12.36,5.12-2.14.96-4.69.97-6.88,2-2.98,1.4-6.35,1.18-9.39,2.45-3.22,1.35-6.81,1.01-10.19,1.79-2.23.52-4.48.98-6.78,1.18-3.02.26-6.02.85-9.04.93-4.48.12-8.96.6-13.41.58-2.53-.01-5.1.76-7.73-.1-2.17-.71-4.51.37-6.8.29-2.93-.11-5.89.23-8.77-.6-.61-.17-1.29-.14-1.94-.1-5.04.28-10-.63-14.99-.86-2.24-.1-4.44-1.18-6.77-.34-.59.21-1.45-.37-2.19-.57-2.77-.76-5.69-1.53-8.42-1.73-3.01-.22-5.5-1.69-8.37-2.14-2.26-.35-4.84-.89-6.99-2.15-.84-.49-1.66-.79-2.65-.78-1.84.01-3.1-1.56-4.88-1.9-1.14-.22-2.46-.1-3.44-1-.3-.28-.8-.49-.72-.93.13-.66.78-.29,1.19-.42,3.36.61,6.7,1.31,10.08,1.82,6.75,1.02,13.51,1.95,20.33,2.6,12.54,1.19,25.08,1.64,37.66,1.67,9.22.03,18.43-.34,27.59-1.21,6.8-.65,13.59-1.71,20.02-4.19,4.72-1.82,8.76-4.55,10.61-9.63.15-.41.61-.7.92-1.04,1.15-1.59,3.11-1.85,4.64-2.81,3.67-2.31,6.64-5.26,8.79-9.02.44-.77.84-1.56,1.66-2.02.5-.25,1.02-.31,1.56-.21,3.37.64,6.76,1.21,9.82,2.91.83.46,1.72.8,2.63,1.06,3.41.96,6.7,2.27,10.01,3.52,1.09.41,2.23.26,3.32.5,5.03,1.09,10.14,1.66,15.24,2.18,4.17.43,8.38.3,12.55.9.78.11,1.52.21,2.01.91.22.7.44,1.4.66,2.1l-.41.37Z"/><path class="cls-43" d="m182.61,178.1c.13.66.59.74,1.17.77,7.95.45,15.81,1.68,23.68,2.82,6.24.9,12.44,1.99,18.56,3.54,2.09.53,2.16.45,1.71-1.87-1.31-6.82-2.65-13.63-4-20.44-.42-2.13-.42-2.17,1.8-2.17,5.26,0,10.52,0,15.78,0,.7,0,1.43.14,2.03-.4.66.49.66,1.23.67,1.94.35,14.91.49,29.82.36,44.74,0,.3-.04.59-.09.88-.04.21-.12.41-.23.59-.8.82-1.6.16-2.26-.14-5.5-2.49-11.25-4.25-17.05-5.86-4.94-1.37-9.93-2.52-14.93-3.64-.92-.21-1.86-.36-2.71-.79-.66-.37-1.01-.99-1.29-1.64-1.68-3.92-5.14-6.01-8.44-8.26-3.47-2.36-7.37-3.54-11.44-4.38-1.33-.27-2.75-.71-3.76-1.81.14-1.29.29-2.59.43-3.88Z"/><path class="cls-36" d="m243.74,208.76c.03-.18.06-.35.09-.53.8.22.87,1.47,1.92,1.34.16.04.31.1.44.19,2.19,1.51,4.66,2.5,6.88,3.96,3.32,2.17,6.45,4.52,8.88,7.71.24,2.27.48,4.54.72,6.8-1.33-.57-2.78-.45-4.17-.64-2.33-.31-4.69-.37-7.05-.4-2.72-.03-5.38-.55-8.07-.76-4.18-.32-8.23-1.43-12.4-1.76-1.89-.15-3.62-1.06-5.27-1.74-2.55-1.04-5.28-1.53-7.75-2.76-3.27-1.63-6.72-2.69-10.32-3.3-.76-.13-1.49-.29-2.24-.01-.59-.81-.18-1.6.1-2.35,1.64-4.54,2.77-9.13,1.53-13.99-.14-.56-.2-1.17.03-1.74,1.09-.66,2.22-.16,3.25.07,9.28,2.14,18.54,4.38,27.5,7.72,1.97.74,3.76,1.96,5.92,2.18Z"/><path class="cls-20" d="m207.24,198.69c1.47,5.41.93,10.66-1.17,15.8-.31.75-.44,1.57-.65,2.36-2.04,4.05-4.93,7.4-8.52,10.14-1,.76-2.16,1.32-3.28,1.9-1.03.53-2.11.95-3.16,1.43,1.72-7.42,1.58-14.62-2.34-21.43-.56-.97-1.75-1.46-1.92-2.68,2.21.13,3.95,1.39,5.78,2.43.45.26.77.78,1.34.8,2.28.06,3.06,1.4,3.28,3.48.11,1,.55,2.45,1.75,2.3,1.41-.17,1.28-1.64,1.39-2.86.57-6.55-2.72-11.26-7.29-15.3-1.2-1.06-2.73-1.98-4.27-2.4-3.4-.93-5.82-3.21-8.38-5.36-3.22-2.71-6.02-5.92-9.67-8.13-.24-.15-.09-.41.12-.56.72-.69,1.64-.59,2.52-.57,2.69.06,5.37.16,7.71,1.78.21.15.58.04.86.15.28,0,.56,0,.84,0,2.08.64,4.19,1.19,6.23,1.94,1.09.4,2.24.52,3.33.82,2.5.69,4.72,2,6.7,3.35,3.41,2.33,6.96,4.82,8.36,9.12.07.2.3.35.45.52.23.32.25.64,0,.96Z"/><path class="cls-46" d="m255.89,160.34c.42,3.81.88,7.62,1.26,11.44.67,6.71,1.28,13.42,1.91,20.13.04.47.02.94.02,1.42.28,2.32-.06,2.6-2.17,1.75-3.54-1.42-6.97-3.12-10.74-3.92-.31-.06-.5-.3-.63-.57-.42-1.79-.61-3.61-.62-5.45-.02-7.22-.01-14.43,0-21.65,0-.94-.1-1.91.46-2.76.3-.31.68-.48,1.09-.49,3.14-.1,6.28-.32,9.41.12Z"/><path class="cls-36" d="m245.88,190.94c1-.41,1.86-.06,2.84.29,3.14,1.12,6.15,2.54,9.25,3.72,1.72.66.76-1.05,1.12-1.62.32,2.69.67,5.37.95,8.06.64,6.23,1.24,12.46,1.85,18.69.02.23,0,.47-.01.71-.41.14-.69-.12-.91-.38-3.88-4.63-8.99-7.54-14.32-10.12-.21-.1-.42-.22-.6-.38-.05-.05-.1-.1-.15-.15-.64-.59-.61-1.39-.61-2.14-.03-4.84-.03-9.68,0-14.52,0-.76-.02-1.55.59-2.16Z"/><path class="cls-32" d="m245.88,190.94c0,6.27.01,12.55.02,18.82-1.78.97-1.64-.67-2.07-1.53-.06-13.36,0-26.73-.35-40.09-.07-2.6-.09-5.2-.13-7.8.02-.1.02-.19,0-.29-.21-3.07-.13-6.13-.04-9.2.39.02,1.06-.09,1.14.07.58,1.29.77.08,1.1-.14.43.45.58,1.02.59,1.61.06,2.28.07,4.57,0,6.85-.02.54-.14,1.04-.53,1.45-.04,10.08-.16,20.16.28,30.23Z"/><path class="cls-1" d="m170.89,175.61q.16,2.8,3.03,2.85c1.46.03,2.93-.03,4.39.11,1.25.12,1.99-.24,2.17-1.52.3,1.12-.26,2.18-.26,3.29,0,.92.33,1.38,1.12,1.64-1.72-.36-3.45-.66-5.15-1.09-1.97-.49-3.96-.12-5.93-.28-.09-.19-.18-.38-.27-.57.95-.54.46-1.45.55-2.21.09-.75-.05-1.53.35-2.22Z"/><g class="cls-49"><path class="cls-14" d="m63.65,39.94c.12-.12.24-.24.35-.36.12,0,.23,0,.35,0,.97-.68,2.04-1.23,2.84-2.14,5.22-4.14,10.87-7.6,16.73-10.76,4.26-2.3,8.59-4.47,13.09-6.2,3.22-1.24,6.47-2.41,9.79-3.43,4.27-1.32,8.58-2.44,12.92-3.44,4.98-1.14,10.04-1.82,15.11-2.53,7.41-1.04,14.82-1.07,22.25-.95,4.88.08,9.75.42,14.57,1.31.8.15,1.65.06,2.48.08,3.43.71,6.87,1.38,10.3,2.13,6.84,1.5,13.5,3.49,20.01,6.16,6.19,2.54,12.29,5.2,18.05,8.61.75.45,1.59.79,2.09,1.57,1.59,1.17,3.38,2.03,4.97,3.2.46.86,1.42.96,2.13,1.42,2.96,2.25,5.87,4.57,8.88,6.75,1.66,1.91,3.78,3.31,5.59,5.05,3.88,3.74,7.57,7.66,11.08,11.76.3.35.7.61,1.06.91-2.33,2.92-3.72,6.3-5,9.77-1.18,3.19-1.82,6.49-2.43,9.82-.88.84-1.52.86-1.82-.5-.1-.46-.43-.83-.61-1.26-1.13-4.75-2.52-9.4-4.6-13.86-2.66-5.7-5.96-10.94-9.98-15.77-3.55-4.27-7.49-8.06-12.61-10.38-4.77-2.16-9.72-3.67-15.02-3.74-2.48-.03-3.35.67-3.69,3.08-.95,6.71-.12,13.29,1.36,19.85,2.11,9.29,4.74,18.41,8.93,27.01,2.93,6.02,6.8,11.37,12.27,15.36,2.42,1.77,5.12,3.11,7.94,4.4-.66,0-1.33,0-1.99,0-10.24,0-20.48,0-30.72.02-.58,0-1.19-.14-1.72.25-2.66,1.66-3.23,4.36-3.88,7.18-2.27,9.79-4.55,19.58-6.85,29.37-.68,2.89-1.06,3.39-3.96,3.11-4.07-.39-8.14.28-12.19-.24-.6-.08-1.64-.24-1.69.47-.07.93,1,.79,1.65.8,4.2.07,8.4.02,12.59.04.77,0,1.55-.05,2.28.25.4.16.78.42.71.89-.06.38-.46.5-.82.57-.53.1-1.06.07-1.59.08-3.67,0-7.33,0-11,0-.7,0-1.44-.12-1.97.52-.22.3-.29.65-.31,1-.42,7.78-1.27,15.53-1.85,23.3-.18,2.41-.31,4.84-.85,7.2-.59,1.23-1.32.63-1.97.1-1.24-1.02-2.13-2.37-3.19-3.56-3.62-4.06-7.47-7.88-11.51-11.51-3.12-2.81-5.94-5.92-8.6-9.17-.49-.76.02-1.2.55-1.62.46-.37.95-.71,1.4-1.09.79-.68.99-1.37.33-2.3-4.76-6.7-7.73-14.34-11.34-21.65-2.02-4.08-4.18-8.09-6.71-11.87-.43-.64-.9-1.25-.99-2.05-.02-.62.1-1.17.7-1.49,1.7-.56,3.09-.06,4.39,1.11,3.28,2.95,7.02,4.76,11.55,4.69,7.74-.12,13.72-6.04,13.77-13.78.01-2.13.51-4.23.37-6.37-.16-2.41-.86-3.25-3.25-3.25-7.39-.01-14.78.52-22.17.35-.66-.02-1.48.04-1.75.65-.93,2.05-3.05,2.49-4.65,3.62-1.13.44-2.41.23-3.51.95-1.42.92-2.06,2.34-2.83,3.71-.49.86-.9,1.82-2.12,1.84-1.41-.45-2.86-.84-3.85-2.07-.22-1.58.74-2.81,1.26-4.17,2.19-5.83,5.68-11.07,7.83-16.89,3.73-10.12,2.64-20.03-2.85-29.17-5.88-9.79-17.44-13.03-28.18-9.08-10.4,3.82-16.22,11.84-19.2,22.19-.49,1.71-.89,3.44-1.32,5.16-.79,3.13-2.76,5.3-5.49,6.87-2,1.15-4.07,2.18-6.03,3.41-7.15,4.47-10.61,11.03-10.95,19.37-.13,3.03.32,6.02.37,9.04.05,2.83-1.11,5.03-3.37,6.69-1.29.94-2.48,2.02-3.82,2.89-4.91,3.21-7.53,7.89-7.98,13.6-.74,9.53,1.8,18.1,8.7,25,4.21,4.2,9.35,6.58,15.39,6.75.59.02,1.19.02,1.72.36.91.78.66,1.9.81,2.9.13.85.3,1.7.5,2.54.94,3.26,3.35,5.25,6.08,6.93.49.3,1.11.38,1.46.92.15.63-.15,1.15-.41,1.67-1.16,2.31-2.29,4.63-3.47,6.93-.28.56-.5,1.23-1.29,1.31-4.34,1.33-8.67,2.66-13.01,3.99-5.28-.52-10.57-.37-15.86-.39-.89,0-1.77,0-2.66,0-.1-.08-.14-.17-.12-.26.02-.09.05-.14.08-.14.5-11.3.9-22.61,1.57-33.89.21-3.47-.04-6.95.49-10.41.17-1.12-.1-1.85-1.67-1.65-1.67.21-3.4-.08-5.1-.16-.46-.02-.55-.37-.6-.73-.11-.21-.2-.45-.15-.68,1.04-4.71.46-9.5.7-14.25-.08-2.48-.16-4.96.06-7.44.71-2.66.39-5.4.55-8.1.44-7.34,2.66-14.12,5.68-20.72.39-.86.84-1.7,1.02-2.64.12-.65.16-1.33-.51-1.74-.75-.45-1.39-.11-1.92.4-1.42,1.38-2.45,3.04-3.23,4.83-1.86,4.24-3.36,8.58-3.85,13.22-.08.74,0,1.73-1.14,1.9-.69-3.88-2.35-7.47-3.26-11.28,1.5-1.74,1.85-4.03,2.8-6.03,2.34-4.93,4.64-9.88,7.49-14.56,3.54-5.79,7.4-11.38,11.81-16.5,6.38-7.41,12.93-14.72,20.98-20.45.14-.1.21-.28.31-.43Z"/><path class="cls-23" d="m280.4,111.01c1.49.7,1.43,2.29,1.65,3.47,1.39,7.32,2.83,14.63,3.04,22.15.12,4.19.22,8.38.2,12.56-.02,3.4-.44,6.8-.66,10.21-.04.65-.29.97-.96.99-.52.01-1.08-.13-1.52.3-2.14.03-4.29.07-6.43.1-1.64.13-3.28.65-4.92,0-1.71-.02-3.43-.08-5.14-.04-.99.02-1.41-.31-1.33-1.33.45-5.76.83-11.52,1.33-17.28.3-3.46.83-6.9,1.14-10.36.18-1.95.95-3.51,2.08-5.11,2.97-4.18,5.94-8.36,9.01-12.46.81-1.08,1.67-2.13,2.5-3.19Z"/><path class="cls-14" d="m257.96,125.19c.48-2,.97-4.01,1.45-6.01,1.37,1.08,1.6,2.82,2.37,4.24,1.01,1.85,1.49,3.96,2.94,5.62.94,1.07.02,2.4-.1,3.58-.72,6.97-1.57,13.92-2.38,20.88-.24,2.11-.76,4.18-.74,6.32,0,1.03-.73.86-1.36.9-.93-1.16-.73-2.59-.89-3.91-.75-6.29-.87-12.62-1.21-18.93-.14-2.59-.19-5.2-.52-7.78-.21-1.68.33-3.27.44-4.91Z"/><path class="cls-23" d="m144.89,179.16c-4.81.04-9.6.31-14.39.72-.64.06-1.3,0-1.81.51-.45-.4-.69-.91-.8-1.48-1.43-4.8-1.89-9.76-2.31-14.72-.03-.36-.11-.7.24-.96,4.4,6.45,10.79,10.54,17.21,14.62.64.41,1.24.87,1.86,1.31Z"/><path class="cls-28" d="m182.61,178.1c.5-8.74,1.03-17.48,1.47-26.22.06-1.19.63-1.13,1.45-1.13,7.87.01,15.74.01,23.61,0,10.77,0,21.54-.03,32.31-.03.53,0,1.06.07,1.58.11.65.6.52,1.4.54,2.15.06,2.3-.09,4.6.1,6.89,0,.22-.05.43-.15.62-.74.92-1.8.79-2.78.79-4.67.03-9.35,0-14.02.01-2.61,0-2.67.1-2.18,2.58,1.22,6.21,2.36,12.43,3.62,18.63.13.64.22,1.28.26,1.93.07,1.06-.43,1.54-1.48,1.46-.71-.05-1.4-.21-2.09-.37-12.23-2.88-24.67-4.44-37.13-5.8-1.29-.14-2.59-.28-3.88-.4-.68-.06-1.51-.16-1.22-1.25Z"/><path class="cls-26" d="m170.89,175.61c.64-7.71,1.3-15.43,1.9-23.15.1-1.28.5-1.84,1.9-1.74,1.82.14,3.67.11,5.49,0,1.36-.09,1.85.28,1.75,1.73-.46,6.78-.82,13.57-1.22,20.35-.08,1.42-.16,2.83-.24,4.25.07,1.69-.94,2.08-2.38,2.05-1.42-.02-2.84.01-4.26,0-3.01-.03-3.3-.39-2.95-3.49Z"/><path class="cls-15" d="m245.6,160.7c-.07-3.31-.27-6.61-.06-9.92,2.77-.01,5.55-.02,8.32-.04.7,0,1.22,0,1.29.97.19,2.88.48,5.76.73,8.64-.44.58-1.08.38-1.63.38-2.88.01-5.77-.01-8.65-.02Z"/><path class="cls-7" d="m255.83,134.07c.29.25.35.6.34.95-.13,3.21.32,6.4.43,9.6.02.45.07.8-.47.91-.43-.03-.87-.06-1.3-.1-.73-.47-1.61-.03-2.39-.36,2.34-3.33,2-7.43,3.39-11Z"/></g><path class="cls-11" d="m246.05,209.91c3.99,1.13,7.38,3.38,10.61,5.86,1.92,1.47,3.68,3.14,5.22,5.02.03.21.05.43.08.64-.23.12-.15.82-.34.54-3.63-5.32-9.13-8.14-14.55-11.09-.4-.22-1.14-.17-1.02-.97Z"/><path class="cls-43" d="m243.31,150.85c.01,3.07.03,6.13.04,9.2-.6-3.05-.21-6.14-.33-9.21.1-.03.19-.03.28.01Z"/><path class="cls-24" d="m225.49,123.01c1.87-.02,3.29,1.45,3.3,3.41,0,1.85-1.5,3.36-3.37,3.39-1.82.02-3.33-1.49-3.35-3.36-.01-2.05,1.35-3.43,3.42-3.45Z"/><path class="cls-44" d="m101.72,99.62c-.52,1.86-1.61,2.8-3.46,2.83-2.28.04-4.55,0-6.83-.02-2.48-3.34-2.53-7.18-2.13-11.04.4-3.88.98-7.74,1.56-11.59.14-.95-.01-1.3-1.02-1.57-2.57-.7-4.09-2.72-4.14-5.14-.04-2.41,1.69-4.01,3.91-3.15,4.96,1.92,9.54.98,13.97-1.39,4.51-2.41,7.26-6.3,8.68-11.17.06-.22.16-.43.27-.74,1.36.71,1.89,2.04,2.33,3.24,3.19,8.65,3.26,17.26-.93,25.61-2.3,4.58-6.36,5.86-11.2,5.23-3.89.24-6.83-1.61-9.04-3.7,1.52,2.3,3.77,4.77,7.02,6.13.39.16.65.5.95.79.02,1.89.04,3.79.06,5.68Z"/><path class="cls-4" d="m101.66,93.94c-4.51-1.37-7.26-4.66-9.35-8.75,2.77,3.23,6.36,4.85,10.42,5.52-1.39.73-.53,2.21-1.07,3.23Z"/><path class="cls-10" d="m172.01,197.33c.85.08,1.94-.34,2.14,1.05-.69-.4-1.6-.35-2.14-1.05Z"/><path class="cls-47" d="m207.24,198.69c0-.32,0-.64,0-.96,7.4,1.77,14.85,3.31,22.12,5.58,4.9,1.53,9.76,3.16,14.37,5.45-.6,1.03-1.26.16-1.75-.05-5.75-2.48-11.71-4.33-17.74-5.99-5.22-1.45-10.48-2.78-15.83-3.68-.4-.07-.79-.23-1.19-.34Z"/></g></svg>