<?xml version="1.0" encoding="UTF-8"?><svg id="Layer_2" xmlns="http://www.w3.org/2000/svg" viewBox="0 0 300 309.49"><defs><style>.cls-1{fill:#adc8bc;}.cls-1,.cls-2,.cls-3,.cls-4,.cls-5,.cls-6,.cls-7,.cls-8,.cls-9,.cls-10,.cls-11,.cls-12,.cls-13,.cls-14,.cls-15,.cls-16,.cls-17,.cls-18,.cls-19,.cls-20,.cls-21,.cls-22,.cls-23,.cls-24,.cls-25,.cls-26,.cls-27,.cls-28,.cls-29,.cls-30,.cls-31,.cls-32,.cls-33,.cls-34,.cls-35,.cls-36,.cls-37,.cls-38,.cls-39,.cls-40,.cls-41,.cls-42,.cls-43,.cls-44,.cls-45,.cls-46,.cls-47,.cls-48,.cls-49,.cls-50,.cls-51,.cls-52,.cls-53,.cls-54,.cls-55,.cls-56,.cls-57,.cls-58,.cls-59,.cls-60,.cls-61,.cls-62,.cls-63,.cls-64,.cls-65,.cls-66,.cls-67,.cls-68,.cls-69,.cls-70,.cls-71,.cls-72,.cls-73,.cls-74,.cls-75,.cls-76,.cls-77,.cls-78,.cls-79,.cls-80,.cls-81,.cls-82,.cls-83,.cls-84,.cls-85,.cls-86,.cls-87,.cls-88,.cls-89,.cls-90,.cls-91,.cls-92,.cls-93,.cls-94,.cls-95,.cls-96,.cls-97,.cls-98,.cls-99,.cls-100,.cls-101,.cls-102,.cls-103,.cls-104,.cls-105,.cls-106,.cls-107,.cls-108,.cls-109,.cls-110,.cls-111,.cls-112,.cls-113,.cls-114,.cls-115,.cls-116,.cls-117,.cls-118,.cls-119,.cls-120,.cls-121,.cls-122,.cls-123,.cls-124,.cls-125,.cls-126,.cls-127,.cls-128,.cls-129,.cls-130,.cls-131,.cls-132,.cls-133,.cls-134,.cls-135,.cls-136,.cls-137,.cls-138,.cls-139,.cls-140,.cls-141,.cls-142,.cls-143,.cls-144,.cls-145,.cls-146,.cls-147,.cls-148,.cls-149,.cls-150,.cls-151,.cls-152,.cls-153,.cls-154,.cls-155,.cls-156,.cls-157,.cls-158,.cls-159,.cls-160,.cls-161,.cls-162,.cls-163,.cls-164,.cls-165,.cls-166,.cls-167,.cls-168,.cls-169,.cls-170,.cls-171,.cls-172,.cls-173{stroke-width:0px;}.cls-2{fill:#f2b299;}.cls-3{fill:#a9c8be;}.cls-4{fill:#95a2ae;}.cls-5{fill:#405659;}.cls-6{fill:#f2ebde;}.cls-7{fill:#f0dfd0;}.cls-8{fill:#f2ebe0;}.cls-9{fill:#f0e0d1;}.cls-10{fill:#ba9992;}.cls-11{fill:#f3aa8f;}.cls-12{fill:#55686d;}.cls-13{fill:#95bdb9;}.cls-14{fill:#ec9f87;}.cls-15{fill:#71787f;}.cls-16{fill:#a7c8cd;}.cls-17{fill:#7e7b79;}.cls-18{fill:#334c47;}.cls-19{fill:#f4ebdb;}.cls-20{fill:#65615d;}.cls-21{fill:#6c7372;}.cls-22{fill:#7e7e7d;}.cls-174{opacity:.9;}.cls-23{fill:#5d6164;}.cls-24{fill:#5c646f;}.cls-25{fill:#9bb7bc;}.cls-26{fill:#a6cdc8;}.cls-27{fill:#51676a;}.cls-28{fill:#7c7f7d;}.cls-29{fill:#6c7473;}.cls-30{fill:#a9c6cd;}.cls-31{fill:#485a59;}.cls-32{fill:#687377;}.cls-33{fill:#737982;}.cls-34{fill:#e79881;}.cls-35{fill:#787d7c;}.cls-36{fill:#ababb1;}.cls-37{fill:#78878d;}.cls-38{fill:#6a6f76;}.cls-39{fill:#eedece;}.cls-40{fill:#717a80;}.cls-41{fill:#636667;}.cls-42{fill:#f2e4d8;}.cls-43{fill:#f4ebe0;}.cls-44{fill:#adc8be;}.cls-45{fill:#f1e1d3;}.cls-46{fill:#f6edde;}.cls-47{fill:#5c5e5d;}.cls-48{fill:#646b72;}.cls-49{fill:#596061;}.cls-50{fill:#70767c;}.cls-51{fill:#978d83;}.cls-52{fill:#f3a48a;}.cls-53{fill:#c5dbd6;}.cls-54{fill:#fbf6ef;}.cls-55{fill:#eee0d1;}.cls-56{fill:#212f38;}.cls-57{fill:#696f72;}.cls-58{fill:#666d74;}.cls-59{fill:#f2a389;}.cls-60{fill:#5e6163;}.cls-61{fill:#faf8f4;}.cls-62{fill:#787d7d;}.cls-63{fill:#9e9b97;}.cls-64{fill:#b2d8d6;}.cls-65{fill:#727980;}.cls-66{fill:#57554d;}.cls-67{fill:#615c57;}.cls-68{fill:#f0ebdd;}.cls-69{fill:#f6eddd;}.cls-70{fill:#ea9981;}.cls-71{fill:#f4b59e;}.cls-72{fill:#7e7c78;}.cls-73{fill:#576a6f;}.cls-74{fill:#b2c6c1;}.cls-75{fill:#bdb9b1;}.cls-76{fill:#d48d7a;}.cls-77{fill:#92b2a6;}.cls-78{fill:#f5b7a1;}.cls-79{fill:#596f6f;}.cls-80{fill:#f3b7a0;}.cls-81{fill:#e0937a;}.cls-82{fill:#f0ebdb;}.cls-83{fill:#f3b39d;}.cls-84{fill:#6a7271;}.cls-85{fill:#6c737b;}.cls-86{fill:#f3a78c;}.cls-87{fill:#aba29d;}.cls-88{fill:#f0eadb;}.cls-89{fill:#f6ebdb;}.cls-90{fill:#727b83;}.cls-91{fill:#3f4d4a;}.cls-92{fill:#f2a082;}.cls-93{fill:#757877;}.cls-94{fill:#a9aeac;}.cls-95{fill:#8e898a;}.cls-96{fill:#253138;}.cls-97{fill:#273338;}.cls-98{fill:#435352;}.cls-99{fill:#f3a990;}.cls-100{fill:#a6b7ba;}.cls-101{fill:#f6efe0;}.cls-102{fill:#687a81;}.cls-103{fill:#f2ebdb;}.cls-104{fill:#efe0d2;}.cls-105{fill:#7a7d7b;}.cls-106{fill:#eedfd1;}.cls-107{fill:#f2eddb;}.cls-108{fill:#c8cbbe;}.cls-109{fill:#767d7a;}.cls-110{fill:#a6a6a1;}.cls-111{fill:#636668;}.cls-112{fill:#687876;}.cls-113{fill:#9db7ae;}.cls-114{fill:#627a7d;}.cls-115{fill:#4f5d5c;}.cls-116{fill:#f4ebdd;}.cls-117{fill:#6b7370;}.cls-118{fill:#635f58;}.cls-119{fill:#f2ebdd;}.cls-120{fill:#badddb;}.cls-121{fill:#a0bdb7;}.cls-122{fill:#8aa093;}.cls-123{fill:#f3a387;}.cls-124{fill:#a2b7b3;}.cls-125{fill:#9dadb0;}.cls-126{fill:#8ab4a5;}.cls-127{fill:#253137;}.cls-128{fill:#535151;}.cls-129{fill:#7e7f7f;}.cls-130{fill:#1d2628;}.cls-131{fill:#27363b;}.cls-132{fill:#62686f;}.cls-133{fill:#7a7e7d;}.cls-134{fill:#f6efdd;}.cls-135{fill:#b2cbc2;}.cls-136{fill:#4f6669;}.cls-137{fill:#f2eada;}.cls-138{fill:#212d35;}.cls-139{fill:#eee0cf;}.cls-140{fill:#f4efe0;}.cls-141{fill:#f3a58b;}.cls-142{fill:#efe0d3;}.cls-143{fill:#4b6367;}.cls-144{fill:#6d8484;}.cls-145{fill:#f4efdb;}.cls-146{fill:#709795;}.cls-147{fill:#f4edde;}.cls-148{fill:#213237;}.cls-149{fill:#6a7177;}.cls-150{fill:#de9580;}.cls-151{fill:#a0bdb9;}.cls-152{fill:#f4efdd;}.cls-153{fill:#6c6864;}.cls-154{fill:#757a7a;}.cls-155{fill:#536369;}.cls-156{fill:#46555e;}.cls-157{fill:#6f7c7d;}.cls-158{fill:#c8cbc1;}.cls-159{fill:#f4eddb;}.cls-160{fill:#f6eddb;}.cls-161{fill:#6a7171;}.cls-162{fill:#41535a;}.cls-163{fill:#25363e;}.cls-164{fill:#495a61;}.cls-165{fill:#f2e5d9;}.cls-166{fill:#625e5a;}.cls-167{fill:#67625d;}.cls-168{fill:#61666b;}.cls-169{fill:#f4ba9d;}.cls-170{fill:#f8dfc5;}.cls-171{fill:#f6eadb;}.cls-172{fill:#646a6f;}.cls-173{fill:#606969;}</style></defs><g id="Layer_1-2"><path class="cls-2" d="m1.98,161.88c3.48-1.69,6.98-3.36,10.44-5.09,5.58-2.79,11.13-5.63,16.71-8.42,5.91-2.95,11.77-5.98,17.66-8.96,3.52-1.78,7.09-3.51,10.52-5.48.65-.37,1.27-.56,1.98-.55.92.07.95.86.9,1.42-.26,2.97,1.02,5.77.87,8.73-.08,1.66.76,2.96,2.25,3.45,3.75,1.24,7.66,1.87,11.5,2.76.38.09.75-.11,1.11-.23,1.33-.45,2.67-.89,4.04-1.21,5.22-.96,10.46-1.81,15.61-3.13,1.36-.35,2.72-.73,3.96-1.44.33-.19.71-.41.68-.85-.04-.45-.47-.57-.82-.7-1.5-.57-3.11-.73-4.65-1.18-1.03-.31-2.46-.39-2.69-1.54-.26-1.3,1.26-1.59,2.13-2.12,1.63-1.01,3.4-1.79,5.04-2.78.66-.14.72-.96,1.3-1.19.3.97,1.06,1.35,1.98,1.52,6.33,1.19,12.52,2.98,18.78,4.48,5.81,1.39,11.66,2.65,17.48,4.02,4.83,1.14,9.64,2.4,14.47,3.55,9.28,2.2,18.57,4.31,27.84,6.53,5.63,1.35,11.23,2.83,16.84,4.27,1.45.37,2.94.54,4.4.95,1.32.37,1.63.9,1.61,2.08-.04,2.24-.03,4.48-.01,6.73.02,2.73.83,3.81,3.46,4.55,3.26.91,6.53,1.75,9.79,2.65.5.14.97.39,1.39-.13.14-.12.3-.2.47-.26,1.35-.22,2.67-.57,3.98-.96,6.28-1.61,12.74-2.51,18.76-5.03.86-.06,1.71-.2,2.56-.31.95,2.01,3.11,1.63,4.72,2.2.85.3,1.36.71,1.83,1.35.01.93-.66,1.34-1.34,1.72-1.46.81-2.87,1.68-4.37,2.42-11.92,5.82-23.67,11.96-35.49,17.98-8.85,4.51-17.69,9.03-26.44,13.72-1.32.71-1.94,1.52-1.61,3.05.21.99.25,2.04-.2,3.02-.3.45-.72.72-1.23.88-1.09.37-2.17.8-3.36.48-.3-.12-.55-.33-.86-.43-1.04-.36-2.14-.67-2.18-2.07-.03-1.41.78-2.21,2.02-2.68-1.94.33-3.82-.03-5.67-.48-5.97-1.44-11.89-3.1-17.86-4.57-6.21-1.54-12.38-3.27-18.57-4.88-9.24-2.4-18.55-4.55-27.75-7.08-5.49-1.51-11.02-2.85-16.52-4.33-6.43-1.73-12.9-3.31-19.36-4.92-4.6-1.15-9.2-2.27-13.78-3.5-7.17-1.93-14.39-3.66-21.57-5.58-9.84-2.64-19.76-4.95-29.55-7.76-.87-.25-1.71-.56-2.44-1.11-1.52-1.13-1.67-1.81-.78-3.55Z"/><path class="cls-162" d="m90.02,104.59c-3.37-1.3-3.36-1.3-3.36-5.14.02-17.88.03-35.75.04-53.63,0-13.97,0-27.93-.01-41.9,0-.57-.1-1.16.21-1.69,3.15,1.86,6.8,1.85,10.23,2.45,6.06,1.07,11.97,2.8,18.03,3.82,7.38,1.25,14.54,3.59,22.01,4.36.64.07,1.28.16,1.66.8.52,1.23.36,2.52.36,3.79,0,30.9,0,61.81,0,92.71,0,1.41.01,2.81.08,4.22.09.22.12.45.12.68-.46.87-1.18.57-1.85.39-9.52-2.6-19.26-4.27-28.86-6.52-5.54-1.3-11.1-2.58-16.7-3.62-.69-.13-1.4-.22-1.96-.71Z"/><path class="cls-139" d="m1.98,161.88c-.33,2.19.23,3.15,2.58,3.84,4.09,1.19,8.22,2.29,12.34,3.37,5.72,1.5,11.46,2.97,17.19,4.44,9.99,2.56,19.97,5.13,29.96,7.68,6.96,1.77,13.93,3.48,20.88,5.28,5.52,1.43,11.12,2.64,16.58,4.25,9.41,2.77,18.99,4.79,28.43,7.42,5.88,1.64,11.81,3.13,17.73,4.64,7.07,1.8,14.19,3.44,21.23,5.35,2.75.74,5.41,1.42,8.24.71.29-.07.68-.07.76.35.07.39-.24.6-.55.66-.69.13-1.4.13-2.02.52-.71.44-1.04,1.03-1.07,1.89-.04.98.64,1.15,1.3,1.37.54.19,1.14.27,1.41.88-.61.77-1.56.66-2.37.92-.97.12-1.93.16-2.88-.16-.88-.64-1.9-.61-2.92-.54-4.56-.74-8.98-2.06-13.44-3.22-11.83-3.09-23.65-6.2-35.5-9.21-16.32-4.15-32.58-8.52-48.91-12.64-11.11-2.8-22.21-5.63-33.29-8.52-11.34-2.95-22.73-5.69-34-8.88-1.41-.4-2.85-.84-3.59-2.33,0-1.45.09-2.9-.04-4.34-.15-1.71.48-2.92,1.96-3.73Z"/><path class="cls-71" d="m166.57,284.16c0-16.15,0-32.31,0-48.46-1.1-1.42-.74-3.1-.63-4.64.2-2.68.35-5.36.35-8.05,0-.71.07-1.41.55-2,.58-.41,1.22-.37,1.85-.19,1.6.47,3.23.83,4.84,1.23,1.65.42,2.51,1.43,2.53,3.15,0,.77.03,1.54.03,2.31,0,25.12,0,50.24,0,75.37,0,.51-.03,1.03,0,1.54.13,2.5-.63,4.41-3.3,5.07-4.49-.57-5.78-1.58-5.83-5.61-.05-4.03-.02-8.06-.01-12.09,0-2.55.07-5.1-.39-7.63Z"/><path class="cls-80" d="m12.67,268.02c-2.07-.23-3.92-2.14-4.14-4.31-.03-.32-.01-.64-.01-.96,0-26.98,0-53.96,0-80.93,0-.38.03-.77.05-1.15,2.69-.11,5.11.9,7.54,1.84.79.31,1.01,1.11,1.1,1.9.1.89.07,1.79.07,2.68,0,25.14,0,50.28,0,75.42,0,.32,0,.64,0,.96-.04,3.88-.67,4.51-4.6,4.55Z"/><path class="cls-135" d="m242.34,128.81c-1.17.5-2.21-.21-3.26-.44-6.83-1.52-13.63-3.16-20.45-4.7-4.1-.92-8.21-1.8-12.35-2.53-1.42-.25-2.03-.78-2.03-2.2.02-5.06.03-10.13-.01-15.19,0-1.1.23-1.46,1.42-1.17,6.11,1.5,12.24,2.95,18.38,4.38,5.27,1.23,10.55,2.43,15.84,3.62.56.13,1.14.1,1.72.15.52.68.35,1.47.35,2.22.02,4.92-.06,9.83.2,14.75.02.38-.07.77.2,1.1Z"/><path class="cls-138" d="m148.91,16.1c-.03,9.15-.08,18.29-.09,27.44-.01,21.3,0,42.61,0,63.91,0,5.47-.55,6.17-6.04,7.83-.26-.39-.34-.83-.33-1.28.11-5.06-.31-10.12.28-15.17.08-.7.1-1.41-.02-2.11-.28-1.65-.42-3.33-.24-4.98.58-5.25-.18-10.49,0-15.72.38-10.63.54-21.26.29-31.89-.22-9.02-.32-18.04-.3-27.07,0-2.81,2.02-4.57,4.96-4.47,1.16.88,1.13,2.28,1.5,3.5Z"/><path class="cls-7" d="m242.32,52.25c-1.89.74-3.52-.45-5.25-.76-3.99-.71-7.82-2.11-11.85-2.76-3.61-.58-7.17-1.55-10.7-2.52-3-.83-6.14-.93-9.12-1.92-.97-.32-1.15-.76-1.14-1.62.02-3.72.03-7.43,0-11.15-.01-1.27.3-1.69,1.69-1.35,6.5,1.56,13.02,3.01,19.53,4.49,5.11,1.16,10.22,2.3,15.33,3.46.31.07.58.26.88.39.57.71.44,1.55.46,2.37.11,3.79-.24,7.59.18,11.38Z"/><path class="cls-42" d="m45.08,69.17c-3.38-1.84-6.47-4.15-9.16-6.83-2.02-2.01-3.66-4.5-5.11-7.03-3.87-6.77-6.1-14-5.7-21.83.27-5.38,1.02-10.77,4.07-15.43,2.44-3.74,5.6-6.78,9.91-8.33.77-.27,1.36-1.01,2.28-.87,7.53-1.49,13.61,1.55,18.83,6.47,8.42,7.95,12.56,17.87,12.75,29.47.1,6.34-.92,12.37-4.23,17.87-.9,1.49-1.96,2.85-3.36,3.91-5.76,4.73-12.11,5.57-18.99,2.85-.42-.17-.81-.38-1.28-.27Z"/><path class="cls-59" d="m.06,169.95c2.98,2.02,6.51,2.45,9.86,3.41,5.02,1.43,10.03,2.9,15.12,4.02,5.04,1.11,9.98,2.58,15,3.73,2.67.61,5.3,1.39,7.95,2.07,5.55,1.4,11.1,2.79,16.63,4.23,6.66,1.72,13.33,3.41,19.98,5.16,7.63,2.01,15.33,3.75,22.93,5.89,8.7,2.46,17.51,4.47,26.24,6.79,6.7,1.78,13.46,3.32,20.12,5.21,4.47,1.27,9,2.29,13.47,3.54.48.13,1.01.13,1.51.2.86.4,1.92.06,2.7.74,1.05.02,2.1.05,3.14.07,1.06.69,2.13,1.79,1.78,2.88-.39,1.2-2,.76-3.09.72-2.35-.09-4.64-.64-6.92-1.2-10.68-2.91-21.4-5.68-32.14-8.34-7.95-1.97-15.89-3.97-23.78-6.15-9.07-2.5-18.27-4.48-27.27-7.24-.43-.13-.88-.14-1.33-.19-3.9-.79-7.75-1.82-11.59-2.86-4.81-1.56-9.73-2.7-14.62-3.92-12.03-3.01-24.04-6.09-36.06-9.1-2.97-1.11-6.11-1.6-9.12-2.56-.72-.23-1.49-.34-2.04-.92-1.64-1.07-3.63-1-5.4-1.7-2.22-.89-3.04-1.98-3.07-4.45Z"/><path class="cls-3" d="m76.17,150c-2.21,1.13-4.23-.25-6.21-.74-1.8-.44-3.65-.68-5.45-1.15-2.42-.64-4.06-2.11-4.09-4.62-.04-3.4-.84-6.72-1.14-10.09.6-.71.79-1.53.78-2.47-.04-3.82,0-7.65-.03-11.47-.02-1.41.31-1.78,1.77-1.2,2.28.89,4.66,1.52,7.02,2.19.56.16,1.29.36,1.6-.51-.14-.46.09-.71.48-.87.95,0,1.8,1.43,2.54.7.76-.74-.17-1.87-.43-2.81-.33-1.22-.8-2.4-1.17-3.6-.22-.72-.53-1.45.01-2.17,1.98-.31,3.66.84,5.5,1.22,2.67.54,5.26,1.45,7.85,2.34.54.18,1.67.24,1.34,1.42-.49.97-1.36,1.5-2.28,1.96-2.57,1.3-4.99,2.88-7.66,3.98-1.07.44-1.37,1.15-1.36,2.23.05,7.61.03,15.22.01,22.82,0,1.08.28,2,.91,2.85Z"/><path class="cls-44" d="m242.04,81.01c-11.88-2.65-23.75-5.32-35.65-7.91-1.56-.34-2.29-.87-2.18-2.63.17-2.75.13-5.51.01-8.26-.08-1.76.61-2.12,2.17-1.75,5.08,1.21,10.13,2.61,15.26,3.5,6.72,1.17,13.29,3,20.01,4.15.68,1.51.47,3.12.46,4.7-.02,2.73.13,5.47-.08,8.2Z"/><path class="cls-146" d="m242.35,66.14c-.41.6-.89.2-1.36.1-11.33-2.51-22.65-5.03-33.99-7.51-2.74-.6-2.75-.55-2.75-3.32,0-2.62.03-5.25-.01-7.87-.02-1.09.23-1.45,1.45-1.17,7.63,1.79,15.28,3.48,22.92,5.23,4.34.99,8.67,2.02,13,3.04.58.84.49,1.81.53,2.76.11,2.91-.27,5.84.2,8.74Z"/><path class="cls-106" d="m242.43,83.78c.63,3.49.17,7,.25,10.5.02.77-.47.86-1.2.64-5.88-1.82-11.95-2.97-17.93-4.32-3.04-.68-6.09-1.59-9.26-1.92-3.11-.33-6.13-1.47-9.2-2.2-.79-.19-.82-.68-.82-1.27,0-3.01.02-6.02,0-9.03-.01-1.26.7-1.37,1.64-1.13,9.11,2.34,18.32,4.21,27.52,6.13,2.85.6,5.59,1.76,8.58,1.49.36,3.72,0,7.46.17,10.77.15-2.94-.37-6.32.26-9.67Z"/><path class="cls-55" d="m242.34,108.82c-2.08.66-3.93-.4-5.8-.91-6.25-1.73-12.59-3.05-18.9-4.5-3.6-.83-7.15-1.83-10.81-2.39-1.55-.23-2.88-.91-2.62-3.14.28-2.4.1-4.86.05-7.3-.03-1.28.58-1.63,1.66-1.29,3.21,1,6.56,1.39,9.83,2.07,5.59,1.17,11.15,2.52,16.73,3.74,3.03.66,6.03,1.43,9.12,1.77.6,1.32.5,2.72.55,4.12.09,2.61-.25,5.22.19,7.82Z"/><path class="cls-123" d="m251.26,174.1c-.04.93-.08,1.87-.12,2.8-.25,1.06-.95,1.69-1.83,2.32-3.26,2.33-7.04,3.65-10.56,5.47-4.1,2.11-8.09,4.43-12.24,6.45-11.29,5.5-22.35,11.43-33.54,17.13-3.25,1.66-6.44,3.45-9.78,4.92-.66.29-1.35.87-2.12.17.01-.83.23-1.73,0-2.48-.71-2.31.43-3.28,2.33-4.25,13.26-6.76,26.46-13.64,39.7-20.45,8.58-4.41,17.19-8.76,25.78-13.14.74-.38,1.51-.72,1.96-1.48.69.76.11,1.72.41,2.55Z"/><path class="cls-9" d="m191.53,100.34c-2.79-.66-5.55-1.49-8.37-1.92-3.38-.52-6.64-1.58-10.05-2.01-3.07-.39-6.07-1.4-9.1-2.15-.46-.11-.94-.32-.87-.86.27-2.03-.82-4-.16-6.08.32-1.02.24-2.15-.09-3.22-.26-.88-.22-1.77-.08-2.66.21-1.38.53-2.02,2.32-1.37,2.43.87,5.08,1.09,7.61,1.71,4.97,1.22,9.98,2.28,14.98,3.35,1.38.3,2.8.42,4.2.62-.38,4.18-.06,8.37-.18,12.55-.02.68.22,1.4-.21,2.04Z"/><path class="cls-1" d="m191.2,53.41c-4.62-.82-9.16-2.02-13.75-3-3.98-.85-7.93-1.79-11.92-2.59-2.11-.42-2.73-1.55-2.77-3.32-.07-3.07-.03-6.14-.03-9.21,0-1.04.32-1.39,1.52-1.22,2.84.4,5.55,1.29,8.35,1.84,5.79,1.14,11.45,2.89,17.32,3.71.44.06.86.23,1.29.34.41.49.35,1.08.35,1.65,0,3.39.01,6.77,0,10.16,0,.56.1,1.16-.36,1.63Z"/><path class="cls-55" d="m191.93,83.77c-.44.64-.99.35-1.55.21-4.38-1.09-8.74-2.22-13.21-2.97-4.37-.74-8.65-1.99-12.98-2.99-.77-.18-1.08-.61-1.08-1.34-.01-3.45.04-6.89-.37-10.33-.17-1.4.4-1.96,1.94-1.61,6.36,1.43,12.67,3.03,19.1,4.2,2.59.47,5.17,1.24,7.78,1.78.42,3.02.07,6.06.2,9.08.06,1.32-.21,2.65.17,3.96Z"/><path class="cls-114" d="m191.56,38.05c-3.33-.21-6.49-1.31-9.74-1.89-5.84-1.04-11.56-2.6-17.35-3.88-1.38-.31-1.8-.99-1.75-2.38.1-3.07,0-6.14.01-9.21,0-2.02.25-2.25,2.24-1.81,7.09,1.56,14.19,3.1,21.26,4.76,1.92.45,4.05.32,5.68,1.75-.33,3.53-.04,7.08-.15,10.62-.02.68.19,1.39-.19,2.04Z"/><path class="cls-156" d="m147.41,12.59c-1.24.63-2.48,1.27-3.73,1.88-.68.33-.59.92-.57,1.49.22,6.78.04,13.57.23,20.36.29,10.55.25,21.12.04,31.67-.1,5.05-.25,10.09.02,15.14.17,3.18-.31,6.39-.21,9.58.22,6.72-.22,13.43-.06,20.14.02.82.13,1.68-.36,2.43-1.17.08-2.26-.65-3.45-.29,0,0-.13-.13-.13-.13.83-1.29.94-2.71.94-4.2-.02-30.78-.02-61.57,0-92.35,0-1.84-.04-3.6-1.62-4.89-4.45.13-8.68-1.19-12.96-2.1-8.36-1.77-16.65-3.91-25.06-5.39-3.66-.64-7.24-1.99-11.05-1.76-1.38.08-1.94-.98-2.54-1.95.19-.62.69-.88,1.26-1.05,4.08.34,8.08,1.19,12.08,2.02,10.14,2.09,20.19,4.63,30.36,6.58,2.32.44,4.63.96,6.94,1.46,2.86.62,5.68,1.56,8.65.66.59-.09.98.18,1.23.69Z"/><path class="cls-170" d="m163.14,61.55c-.55-.74-.67-1.44-.54-2.44.25-1.93.32-3.93-.12-5.89-.51-2.25.32-3.37,2.55-3.24,3.99.23,7.92.89,11.64,2.46.58.24,1.22.5,1.83.5,3.59-.03,6.81,1.86,10.35,2.01.99.04,1.36,1.19,2.34,1.16.39.33.37.79.37,1.24.01,3.01,0,6.01.01,9.02,0,1.39-.64,1.86-1.93,1.53-8.22-2.09-16.58-3.52-24.81-5.57-.64-.16-1.24-.28-1.7-.78Z"/><path class="cls-136" d="m76.17,150c-1.18.18-1.55-.33-1.55-1.5,0-8.51-.03-17.03-.08-25.54,0-.5,0-.83.58-1.02,4.1-1.35,7.61-3.87,11.43-5.79.04,2.56.09,5.11.13,7.67-.18,4.65.95,9.25.47,13.9.05,1.53.06,3.06.05,4.59-.01,3.22-1.17,4.77-4.32,5.44-1.02.22-1.95.55-2.84,1.05-1.29.4-2.59.8-3.88,1.2Z"/><path class="cls-92" d="m8.52,176.1c3.8.8,7.64,1.46,11.2,3.11.62.67.63,1.52.63,2.35.01,26.58.04,53.15-.01,79.73,0,.13-.03.25-.04.38.11,2.89-.51,5.35-3.72,6.28-1.3.45-2.59.74-3.91.07,3.97-1.25,3.95-1.25,3.94-5.73-.02-25.61-.04-51.22.02-76.84,0-1.81-.5-2.61-2.24-2.99-1.98-.44-4.02-.79-5.84-1.8-.01-1.52-.03-3.04-.04-4.56Z"/><path class="cls-14" d="m166.59,216.88c3.16.5,6.27,1.5,9.68.98-.46-1.01-1.47-1.72-1.55-2.88.67-.53,1.48-.35,2.23-.46,1.09.07,2.06-.48,3.1-.66.84.77,1.92,1.42,1.43,2.85-2.73.96-2.82,3.11-2.76,5.55.13,4.86.05,9.73.03,14.59,0,.94.15,1.95-.64,2.71,0,16.14,0,32.28,0,48.43v.02c-.52.45-.39,1.06-.37,1.62.18,4.79-.28,9.57.26,14.37.2,1.78-1.17,3.31-2.19,4.77-.94.5-1.99.55-3.01.73,3.23-1.45,2.58-4.34,2.58-6.98,0-25.59-.03-51.19.03-76.78,0-1.95-.5-2.88-2.53-3.17-2.01-.29-3.95-1-5.92-1.53-1.24-1.27-1.33-2.35-.36-4.15Z"/><path class="cls-96" d="m65.07,66.13c4.18-3.66,6.01-8.57,6.81-13.82,1.9-12.34-.96-23.55-8.88-33.27-4.32-5.31-9.74-9-16.71-10.07-1.66-.26-3.3.1-4.94-.1,6.43-2.04,12.58-1.55,18.37,2.09,7.64,4.8,12.44,11.77,15.37,20.16.36,1.03.72,2.05,1.09,3.07,2.21,8.2,2.16,16.25-1.57,24.06-1.65,3.47-4.42,5.9-7.57,7.93-.56.36-1.36,1.23-1.99-.05Z"/><path class="cls-27" d="m222.74,173.84c-1.26.41-2.47,1.13-3.89.71-.38-3.75-.08-7.51-.16-11.26-.04-1.59,0-3.19,0-4.78,0-1.2.98-1.57,1.8-2.02,2.3-1.26,4.75-2.21,7.13-3.31,1.38-.64,1.83-1.51,1.86-2.96.04-1.54-.58-3.21.61-4.6.49,2.96.15,5.94.34,8.91.64.58.63,1.38.63,2.13.01,2.75.1,5.49-.04,8.24-.06,1.01.05,2.03-.07,3.04-.16,1.27-.71,2.23-1.91,2.86-2.07,1.08-4.17,2.07-6.29,3.04Z"/><path class="cls-83" d="m76.99,300.78c-1.71.41-2.57-.44-2.93-2-.35-1.51-.14-3.04-.16-4.56-.04-3.63-.02-7.26-.02-10.88,0-.76.07-1.54-.4-2.21-.28-.95-.12-1.95-.29-2.91.07-1.5.24-3.01-.14-4.5-.16-.84-.13-1.68-.06-2.52.11-3.07-.16-6.14-.1-9.21.02-1.04-.14-2.03-.7-2.93.54-2.8.18-5.58-.08-8.37-.02-.25-.03-.51,0-.76.12-1.15-.37-2.54,1-3.24.94-.48,2.82.51,3.86,1.88.21.62.23,1.27.23,1.9-.01,10.63.33,21.25-.2,31.88-.3,6.14-.17,12.29,0,18.44Z"/><path class="cls-86" d="m40.03,290.64c-.65.15-1.31.31-1.96.46-.74-.94-.37-1.97-.16-2.95,1.46-6.69,3.15-13.32,4.56-20.02,1.5-7.14,3.54-14.15,5.04-21.29.19-.92.25-1.92.95-2.67.37-.26.83-.17,1.24-.35,2.31-1.05,2.32-1.03,3.05,1.33-.43,3.89-1.67,7.59-2.63,11.35-.72,2.08-1.25,4.23-1.89,6.33-1.93,7.27-3.99,14.5-5.77,21.81-.21.87-.42,1.74-.76,2.56-.55,1.15-.71,2.49-1.66,3.44Z"/><path class="cls-99" d="m76.99,300.78c-1.24-.32-.77-1.34-.76-2.07.1-13.12.24-26.25.36-39.37.03-3.65.03-7.3.04-10.95,1.54.39,2.18-.23,2.5-2.16.14-.85-.5-2.06.92-2.45-.23,6.04-.47,12.08-.7,18.13.95,2.78.97,5.56-.01,8.33-.76.93,0,1.86-.03,2.8h0c-.97,1.6-.25,3.32-.32,4.98-.22,4.75-.29,9.51-.42,14.27.9,1.76.9,3.51-.01,5.26.39,1-.8,1.76-.42,2.76-.28.41-.76.31-1.14.47Z"/><path class="cls-45" d="m48.89,244.16c-1.18,3.64-1.79,7.42-2.67,11.13-2.35,9.93-4.7,19.86-7.02,29.8-.46,1.98-1.02,3.96-1.12,6.01-1.77-.11-1.96-1.13-1.73-2.66,1.22-7.91,3.1-15.67,4.76-23.49.1-.49.06-1.02.09-1.52-.41-.74-.15-1.48.1-2.17.43-1.16.43-2.31.17-3.48,1.58-2.39,1.58-5.23,2.19-7.88.59-2.55,1.27-5.09,1.68-7.68.09-.59.36-1.09.93-1.38,2.65-.07,3.61,1.15,2.63,3.32Z"/><path class="cls-131" d="m146.18,11.9c-2.09,1.61-4.24.96-6.53.41-4.81-1.16-9.69-2.02-14.53-3.06-5.03-1.08-10.04-2.23-15.06-3.32-5.65-1.22-11.29-2.49-16.96-3.56-1.68-.32-3.4-.32-4.93-1.2,2.03-1.14,4.07-1.46,6.44-.92,14.7,3.37,29.43,6.61,44.14,9.9,2.49.56,5.05.77,7.44,1.74Z"/><path class="cls-121" d="m218.84,158.05c0,5.5.01,11,.02,16.5,0,0-.16,0-.16,0,0,0-.16,0-.16,0-.02-4.93-.07-9.86-.04-14.8,0-1.14-.26-1.58-1.51-1.86-3.79-.84-7.51-1.99-11.27-2.94-1.06-.27-1.49-.77-1.45-1.86.06-1.92.02-3.83.02-5.87,3.88.98,7.67,1.88,11.42,2.91,1.08.3,2.09.44,3.16.18.94,2.58,1.09,5.16,0,7.73Z"/><path class="cls-144" d="m217.33,130.72c1.41,1.04,1.86,2.55,1.92,4.19.07,2.05.04,4.1.05,6.14-1.81,2.44-2.82,5.23-3.53,8.15-1.8-.47-3.7-.63-5.37-1.56-1.07-.56-1.68-1.42-1.78-2.64.32-2.16,0-4.33.01-6.49.01-1.86.25-3.69.52-5.51.14-.95.26-2.08,1.61-2.24,1.11,1.74,1.31,3.73,1.59,5.71.57,2.02,1.69,3.82,2.29,5.83-.35-1.25-.1-2.46.21-3.67.58-2.22.96-4.5,1.61-6.7.14-.47-.05-1.25.86-1.21Z"/><path class="cls-163" d="m70.77,119.17c-.11.26-.23.51-.34.77-1.9-.55-3.8-1.1-5.7-1.65-.85-.59-1.07-1.57-1.51-2.41-.36-.53-.16-1.2-.45-1.75-1.27-3.09-3.28-5.77-4.79-8.72-.17-.34-.39-.66-.55-1.01-.51-1.1.28-1.69.98-2.21.94-.69,1.27.31,1.54.81,1.52,2.73,2.96,5.51,4.43,8.27.35.65.51,1.45,1.32,1.85.32-1.18-.29-2.12-.6-3.13-.54-1.7-.98-3.45-1.62-5.11-.57-1.46.2-1.88,1.34-2.29,1.46-.52,1.43.67,1.66,1.42.74,2.44,1.41,4.9,2.1,7.36,1.72,2.32,1.93,5.06,2.19,7.79Z"/><path class="cls-5" d="m218.84,158.05c0-2.58,0-5.16,0-7.73,3.35-1.82,6.72-3.59,10.03-5.48,1.19-.68,1.41-.39,1.23.79-.02,1.91-.11,3.81-.05,5.72.03,1.04-.31,1.54-1.28,1.98-3.33,1.52-6.76,2.87-9.93,4.73Z"/><path class="cls-104" d="m184.67,115.39c-.96-1.87-.34-3.86-.4-5.79-.12-3.78-.03-3.8,3.53-2.67.86.27,1.72.44,2.62.43.96,1.24.43,2.69.53,4.05.07,1.01.05,2.03,0,3.04-.07,1.8-.67,2.27-2.42,1.81-1.28-.34-2.53-.82-3.87-.87Z"/><path class="cls-165" d="m173.52,113.08c-.46-.67-.73-8.17-.31-8.78.41-.61,1.01-.43,1.55-.31,1.36.32,2.7.69,4.05,1.03.9,2.61.38,5.3.31,7.94-.03,1.08-1.19.71-1.89.66-1.25-.09-2.4-.84-3.71-.55Z"/><path class="cls-124" d="m210.77,130.76c-1.68,1.75-1.19,4.06-1.44,6.13-.23,1.93-.19,3.92.07,5.88.11.84.11,1.78-.55,2.51-.35.59-.82.85-1.48.49,1.35-2.88-.52-5.33-1.07-7.95-.51-2.45-1.06-4.89.33-7.24,1.22-2.06,2.91-1.98,4.14.17Z"/><path class="cls-77" d="m220.02,141.49c2.25.61,4.51,1.21,6.75,1.83.45.13,1.3.4.55.92-2.36,1.63-4.61,3.49-7.43,4.32-.2.06-.47-.15-.71-.23-.97-2.44-.47-4.69.84-6.84Z"/><path class="cls-141" d="m93.48,133.36c.03.15.07.29.1.44.14.84-.44,1.28-1,1.68-1.54,1.1-3.3,1.85-4.91,2.84-.44.27-.85.24-1.02-.36,0-4.71.02-9.42.02-14.14.57,1.47.13,3.01.29,4.51.07.67-.21,1.41.34,2,1.08.51,2.2.9,3.41,1.01.77.07,1.47.32,2.01.91l.75,1.11Z"/><path class="cls-164" d="m70.77,119.17c-1.26-2.45-1.24-5.25-2.19-7.79,1.09-.1,2.16-.56,3.29-.21.74,2.44,1.51,4.87,2.21,7.31.2.69.81,1.6.14,2.1-.69.51-1.59-.07-2.31-.47-.42-.23-.76-.63-1.13-.95Z"/><path class="cls-113" d="m217.33,130.72c-.88,4.19-2.43,8.25-2.37,13.04-1.35-2.54-2.58-4.68-2.6-7.29.18.25.35.5.6.84.43-2.16.79-4.28,2.17-6.01.59-.74,1.2-1.4,2.2-.58Z"/><path class="cls-143" d="m220.02,141.49c-.41,2.27-.79,4.54-.84,6.84-.87,1.34-2.03,1.51-3.4.86-.49-1.39-.41-2.58.67-3.81.66-.75.86-1.94,1.13-2.97.25-.94.74-1.42,1.72-1.37.24.15.48.29.71.44Z"/><path class="cls-98" d="m207.37,145.78c.49-.16.99-.33,1.48-.49.52.79,1.04,1.57,1.55,2.36-.97-.21-1.93-.46-2.9-.63-1.59-.27-.38-.79-.14-1.24Z"/><path class="cls-155" d="m63.52,115.71c.71.71.8,1.71,1.21,2.57-.87-.24-1.74-.48-2.61-.72-.87-.25-.84-.61-.13-1.05.39-.5.93-.7,1.54-.8Z"/><path class="cls-3" d="m63.52,115.71c-.17.92-.89.79-1.54.8-.72-.7-1.28-1.36.3-1.65.35-.06.4-.43.48-.73.43.44.63.99.75,1.58Z"/><path class="cls-61" d="m73.55,169.12c.42-1.42,1.65-2.07,2.8-2.67,4.25-2.22,8.04-5.12,12.01-7.75,6.56-4.34,13.36-8.4,19.51-13.28,4.14-3.29,8.44-2.33,12.76-2.24,3.15.07,6.36.16,9.5.94,2.54.63,5.14,1.05,7.55,2.07,1.57.66,2.55,2.1,3.16,3.7.31.8.69,1.38,1.66,1.17,4.79-1.03,9.4.13,13.94,1.38,5.86,1.61,11.21,4.56,16.89,6.67.62.23,1.68.43.92,1.57-.32,1.27-1.47,1.74-2.41,2.33-4.83,3.02-9.43,6.38-14.2,9.47-3.75,2.43-7.57,4.77-11.33,7.18-3.01,1.93-5.95,3.98-9.08,5.74-2.22.18-4.29-.58-6.39-1.07-5.92-1.39-11.69-3.39-17.67-4.56-1.89-.37-3.76-.79-5.68-.89-.79-.18-1.57-.39-2.14-1.02-.55-.91-.07-1.67.32-2.46.87-1.75,1.88-3.38,3.68-4.34.09-.78.48-.97,1.54-.35-1.1-1.26-1.88-2.09-3.35-1.83-.66.12-1.34-.26-1.93-.63-2.99-.55-5.95-1.22-9.36-1.7.62.25.87.08,1.1.13,2.75.51,5.5,1.07,8.25,1.56.59.54,1.61.37,2,1.23.17,1.6-.3,2.7-2.06,3.09-1.93.43-3.1,1.93-4.24,3.4-.66.49-1.34.2-2.03.07-7.18-1.32-14.23-3.22-21.36-4.79-.88-.19-1.76-.55-2.64-.44-1.41.18-1.79-.48-1.7-1.7Z"/><path class="cls-127" d="m105.45,177.61c.63.27,1.27.53,1.9.8.74.37,1.28.9,1.2,1.79-.11,1.22.7,1.46,1.62,1.71,8.6,2.28,17.23,4.44,25.81,6.81,1.35.52,2.63.39,3.85-.39,5.02-3.18,9.93-6.53,14.99-9.64.43-.26.97-.54.84-1.16-.29-1.43.66-2.11,1.62-2.77,1.42-.98,2.81-2.02,4.34-2.82,1.52-.79,2.44-.28,2.83,1.44-1.37,1.63-3.34,2.47-5.06,3.81,1.04,1.07,2.58,1.14,3.76,1.9.07,1.24-.88,1.75-1.72,2.27-4.96,3.05-9.82,6.26-14.9,9.12-.59.33-1.27.63-1.44,1.41-.7.35-1.4.7-2.09,1.05-1.65.62-3.27.62-4.81-.34-.22-.27-.51-.33-.84-.3-1.22.1-2.33-.23-3.36-.87-.8-.22-1.61-.43-2.41-.65-.65-.06-1.36.09-1.89-.46-6.47-1.58-12.79-3.75-19.38-4.88-.48-.08-1-.41-1.53-.58-1.26-.38-2.32-.46-3.21.8-.37.51-1.08.87-1.92.69,1.13-.95,2.23-1.83,2.53-3.31-.19-.06-.07-.76-.52-.25-.32.36-.52.82-.98,1.04-.82,1.35-2.55,1.48-3.51,2.64-1.26,1.73-3.15,1.88-4.94.4-.06-1.18.98-1.55,1.61-2.22.48-.5,1.42-.88,1.28-1.55-.16-.78-1.2-.78-1.9-.96-6.24-1.64-12.5-3.24-18.75-4.87-2.91-.76-5.81-1.52-8.7-2.34-.78-.22-1.61-.52-1.7-1.58-.08-1.04.66-1.43,1.4-1.85,1.32-.74,2.45-1.86,4.07-2.01.22,2.53,1.52,3.81,4.08,4.39,7.14,1.64,14.22,3.52,21.34,5.27.91.22,1.87.56,2.7-.26,1.12-.86,2.05-2.28,3.8-1.28Z"/><path class="cls-54" d="m27.36,161.83c-.46-.69-.27-1.14.44-1.53,4.67-2.6,8.74-6.12,13.36-8.79.99-.57,1.95-1.22,3.16-1.17.12,1.8.66,2.13,2.14,1.26.56-.33,1.1.05,1.63-.14,1.71-.72,3.19.41,4.73.73,3.4.71,6.72,1.84,10.09,2.73.68.18,1.23.29,1.35,1.07-1.15,2.06-3.43,2.47-5.24,3.57-1.1,0-1.87.7-2.71,1.27-1.73,1.19-3.6,2.18-5.19,3.57-.91.7-1.6,1.8-2.96,1.72-2.19-.52-4.47.63-6.64-.38-.56-.26-1.24-.29-1.86-.42-.42.23-.86.18-1.3.06-3.01-.8-6-1.7-9-2.53-.72-.2-1.51-.35-2-1.02Z"/><path class="cls-72" d="m164.18,173.33c-.36-1.19-1.14-1.73-2.25-1.03-1.88,1.2-3.69,2.51-5.5,3.82-.3.22-1.03.66-.54,1,1.74,1.24-.05,1.43-.54,1.76-5.06,3.34-10.18,6.61-15.26,9.93-1.27.83-2.57,1.02-3.97.44.31-.68.65-1.34.46-2.13-.21-.88.23-1.56.77-2.18,4.16-2.73,8.26-5.55,12.49-8.17,8.28-5.15,16.26-10.74,24.41-16.09,1.1-.08,1.13.64,1.16,1.46.04,1.16-.33,2.39.42,3.47-1.26,1.85-3.21,2.88-5.03,4-2.06,1.27-4.11,2.55-6.12,3.91-.2.02-.36-.04-.49-.19Z"/><path class="cls-76" d="m181.57,216.09c-.81-.54-1.25-1.34-1.52-2.24.35-.17.69-.34,1.04-.51,3.73-1.14,7.02-3.23,10.48-4.94,6.96-3.44,13.83-7.06,20.71-10.65,7.38-3.85,14.92-7.39,22.19-11.46,3.25-1.82,6.61-3.52,10.09-4.97,2.38-1,4.86-2.26,6.59-4.42.56,3.54-2.27,4.49-4.5,5.91-.61.39-1.52.41-1.67,1.36-2.66,1.64-5.57,2.78-8.3,4.29-.72.4-1.53.63-2.22,1.12-5.79,3.27-11.81,6.11-17.73,9.11-7.24,3.67-14.46,7.39-21.64,11.18-3.9,2.06-7.88,3.98-11.75,6.1-.54.3-1.14.66-1.77.14Z"/><path class="cls-141" d="m86.65,137.95c2.6-.9,5-2.12,6.92-4.15,2.11-.92,4.1-.26,6.07.48.08.03.02.44.02.67-2.5,1.39-5,2.78-7.72,4.29,1.76,1.2,3.62,1.34,5.34,1.84.92.27,1.84.51,2.77.73.59.14,1.22.37,1.29.98.07.63-.6.93-1.09,1.22-2.07,1.22-4.39,1.76-6.7,2.23-4.5.91-9.02,1.71-13.52,2.55.68-.89,1.52-1.46,2.69-1.57,1.44-.14,2.18-1.62,3.63-2,.57-.15.17-1.88.21-2.88.05-1.46.05-2.93.07-4.39Z"/><path class="cls-108" d="m102.03,179.25c-.23.85-.68,1.01-1.57.8-8.55-2.03-17.08-4.11-25.56-6.4-1.14-.31-1.56-.93-1.43-2.07.08-.69.04-1.4.05-2.1,0-.12,0-.24.02-.36.22.94.85.85,1.69,1.02,4.29.83,8.52,1.96,12.8,2.9,4.37.96,8.68,2.17,13.14,2.67,1.01,1.01,1.29,2.19.85,3.55Z"/><path class="cls-148" d="m152.89,194.4c.31-.14.89-.37.88-.4-.66-1.95,1.13-2.23,2.1-2.87,5.98-3.94,12.02-7.8,18.05-11.67.48-.31.99-.58,1.51-.84.52-.26,1.07-.51,1.53.12.46.63.29,1.23-.18,1.74-.35.37-.77.67-1.19.96-5.66,3.97-11.44,7.76-17.3,11.41-1.6,1-3.23,2.02-5.39,1.55Z"/><path class="cls-97" d="m164.67,173.38c.59-1.23,1.81-1.74,2.87-2.35,2.86-1.66,5.55-3.57,8.28-5.41,1.93.54,4.15.31,5.65,2.05.04,1.1-.59,1.73-1.47,2.26-2.06,1.24-4.27,2.22-6.31,3.5-.97.61-1.99,1.13-2.84,1.93-.69.65-1.49.99-2.44.53-1.09-1.08-2.8-1.22-3.74-2.52Z"/><path class="cls-11" d="m230.45,165.32c3.35.85,6.71,1.7,10.06,2.56.54.14,1.14.22,1.39.85-6.09,2.8-12.7,3.66-19.16,5.1.48-.81,1.27-1.41,2.1-1.53,1.69-.25,2.47-2.1,4.31-2.16.64-.02,1.24-1.16,1.25-2.14,0-.9.03-1.79.04-2.69Z"/><path class="cls-140" d="m176.22,190.75c-1.07-.15-2.19.15-3.23-.28-.4-.16-.91-.19-.99-.77-.07-.52.28-.78.62-1.1.75-.69,1.67-.74,2.54-.57,2.71.52,4.8-.94,6.95-2.12.92-.51.86-1.37-.03-2-.34-.24-.91-.16-1.05-.85,2.88-1.62,5.77-3.3,8.71-4.87,1.93-1.03,2.85-.52,3.36,1.69.38.79-.22,1.24-.7,1.58-4.42,3.15-8.99,6.08-13.67,8.82-.68.4-1.54,1.03-2.5.46Z"/><path class="cls-130" d="m168.53,175.73c.8.05,1.43-.2,2.07-.74,1.93-1.63,4.23-2.67,6.41-3.9,1.56-.88,3.87-1.14,4.46-3.41.63,1.59-.62,2.19-1.6,2.8-5.59,3.5-11.2,6.97-16.82,10.42-5.99,3.68-11.99,7.33-17.99,10.99-.78-.14-.67-.41-.11-.76,2.57-1.6,5.24-3.08,7.69-4.84,3.42-2.47,7.52-3.94,10.46-7.1,1.26-2.01,3.09-3.13,5.42-3.45Z"/><path class="cls-11" d="m48.17,166.13c.88-.66,1.75-1.32,2.63-1.98,2.68-1.69,5.35-3.39,8.1-4.97,1.79-1.06,3.58-2.13,5.37-3.19,1.24.82.87,1.52-.17,2.14-3.22,1.93-6.45,3.84-9.67,5.76-1.91,1.14-3.81,2.29-5.74,3.39-.75.43-1.55.89-2.64.63.44-1.01,1.71-.91,2.12-1.78Z"/><path class="cls-66" d="m176.22,190.75c4.33-1.49,7.76-4.53,11.62-6.82,1.9-1.12,3.96-2.1,5.25-4.04,1.28.18.83.85.36,1.43-.85,1.07-2.01,1.76-3.15,2.48-3.36,2.12-6.69,4.27-10.06,6.37-1.95,1.21-4.04,1.79-6.42,1.15.78-.48,1.74.07,2.41-.57Z"/><path class="cls-122" d="m27.36,161.83c4.14,1.02,8.28,2.05,12.3,3.5-1.04,1.7-2.56.48-3.49.18-2.63-.83-5.29-1.52-7.97-2.17-1.06-.26-1.34-.84-.85-1.51Z"/><path class="cls-12" d="m48.1,151.45c-1.55,1.22-3.16,1.41-4.87.35.03-.78.91-.86,1.1-1.47.76.07,2.11-.46,1.11,1.46.95-.75,1.77-1.17,2.65-.34Z"/><path class="cls-2" d="m96.21,186.86c1.73.87,3.4.99,4.94-.4.51.28.91.55.21,1.09-1.02.78-4.34.78-5.27-.05-.22-.2-.1-.46.13-.64Z"/><path class="cls-2" d="m138.17,192.59c1.57.51,3.19.43,4.81.34.05.04.13.13.13.13-.96,1.04-3.98.75-4.94-.47Z"/><path class="cls-2" d="m104.66,183.82c.47-.93.94-1.85,1.53-3.01.62.94.26,1.58-.03,2.22-.6.07-.69,1.12-1.5.79Z"/><path class="cls-2" d="m133.97,191.42c1.16.13,2.29.4,3.36.87-1.34.95-2.36-.08-3.48-.55-.02-.01-.03-.12,0-.18.02-.06.08-.1.12-.15Z"/><path class="cls-2" d="m129.67,190.32c.67-.03,1.31.11,1.89.46-.75.33-1.56.94-1.89-.46Z"/><path class="cls-78" d="m83.8,241.07c-1.53.75-3.07,1.5-4.6,2.25-.84.96-1.98.74-3.01.63-3.21-.32-6.41-.71-9.53-1.53-4.17-.78-8.27-1.91-12.44-2.69-2.58-.56-5.18-1.05-7.73-1.76-.55-.17-1.12-.26-1.69-.38-5.37-1.14-8.69-4.85-8.78-10.36-.17-9.73-.09-19.46-.03-29.19.02-4.01,2.65-7.13,7.03-6.82,1.6.11,3.16.3,4.73.64,8.07,1.73,16.07,3.74,24.12,5.54,3.93,2.4,4.91,6.27,5.31,10.5.65,6.87.63,13.79,1.5,20.64.5,3.93,1.98,7.52,4.39,10.7.41.54,1.03,1.02.72,1.85Z"/><path class="cls-52" d="m83.8,241.07c-4.27-4.89-5.9-10.66-6.18-17.07-.26-6.05-.55-12.11-1.29-18.13-.38-3.05-1.53-5.65-4.04-7.54-.17-.13-.21-.44-.3-.67.08-.06.15-.13.23-.19,3.35.1,5.07,2.28,6.32,5.01.37.81.48,1.72.8,2.55.66,2.23.84,4.52.85,6.83.87,4.02.77,8.13,1.17,12.19.13,1.34.24,2.68.5,3.99.66,3.24,2.91,4.61,6.1,3.69,3.71-1.07,7.01-3.09,10.51-4.65,3.2-1.43,6.31-3.01,9.32-4.82.41,2.04.84,4.1.67,6.19-.19,2.39-1.63,3.94-3.68,4.94-1.22.6-1.82,1.22-1.47,2.8,1.2,5.46,2.2,10.96,3.27,16.44.35,1.81.58,3.64,1,5.43,1.82,7.79,3.22,15.67,4.7,23.54.14.74.13,1.54.05,2.29-.14,1.41-.76,2.18-2.28,1.41-.78-.53-.86-1.39-1.02-2.2-2.6-13.05-5.72-25.99-8.66-38.97-.45-2-.85-4.03-2.63-5.38-1.42-1.08-2.85-1.06-4.37-.14-2.16,1.3-4.41,2.38-6.96,2.76-.94.14-1.72-.41-2.6-.31Z"/><path class="cls-39" d="m107.79,222.26c-.54.81-1.23,1.51-2.1,1.93-5.57,2.71-11.01,5.7-16.83,7.86-4.38,1.63-7.14-.07-7.66-4.72-.49-4.37-.78-8.76-1.17-13.14-.07-.76-.2-1.51-.3-2.27.48-.5.96-.5,1.44,0,7.14,1.77,14.29,3.56,21.43,5.32,2.12.52,4.24,1,5.48,3.08.08.67-.06,1.31-.29,1.94Z"/><path class="cls-70" d="m66.62,241.92c4.19.53,8.29,1.74,12.58,1.4.32.09.66.11.83.46-.6.57-.4,1.31-.35,1.97.08,1.08-.24,1.98-.89,2.8-.38.49-.71,1.19-1.38,1.17-.72-.03-.21-1.06-.79-1.33-1.09-.67-2.42-1.68-3.48-1.15-.92.46-.33,2.1-.32,3.21.02,2.24.15,4.47.28,6.7.05.83-.09,1.51-.87,1.93.82,2.47-.15,4.9-.19,7.34,0,.5-.1,1.01-.21,1.5-.35,1.53-.02,2.68,1.61,3.21,0,.85,0,1.7,0,2.56-1.44,1.04-3.02,1.12-4.69.75-.89-.58-.84-1.51-.88-2.4-.18-4.15.32-8.28.56-12.42.22-3.76.22-7.52.57-11.27.13-1.45-.32-2.64-1.65-3.38-.79-.89-1.54-1.79-.73-3.07Z"/><path class="cls-106" d="m97.74,238.77c2,0,2.28,1.6,2.62,3,1.3,5.33,2.54,10.68,3.77,16.03,2.12,9.14,4.11,18.31,5.91,27.52-1.55.91-1.71-.35-1.96-1.31-1.07-4.2-2.13-8.4-3.12-12.62-.33-1.41-.78-2.05-2.44-1.63-1.38.35-2.84.73-4.6.48,1.64-.9,3.25-1.16,4.79-1.37,1.41-.2,1.65-.53,1.29-1.91-2.24-8.7-4.4-17.42-6.5-26.15-.13-.55-1.18-1.53.23-2.03Z"/><path class="cls-34" d="m234.99,254.53c0-21.29.02-42.58.02-63.87,0-.6.2-1.35-.75-1.49,3.55-1.71,6.81-4.08,10.72-5.01.02,17.37.03,34.74.05,52.11,0,4.68.02,9.36.03,14.04-.01,7.11-.02,14.23-.04,21.34,0,3.23-1.72,4.78-5.29,4.82-2.89.03-4.7-1.83-4.71-4.82-.01-5.7-.03-11.41-.04-17.11Z"/><path class="cls-8" d="m98.94,45.71c-.02-4.47-.01-8.93-.08-13.4-.02-1.06.29-1.33,1.33-1.11,6.42,1.35,12.84,2.68,19.27,3.98,3.12.63,6.26,1.19,9.38,1.79.44.64.21,1.36.21,2.04.02,5.56.02,11.12,0,16.68,0,1.86-.45,2.25-2.26,2.08-3.15-.31-4.79-3.69-3.08-6.46.25-.41.5-.41.07-.96-.92-1.21-.62-4.28.38-5.62-1.72-.14-3.33-.63-4.99-.78-.59-.05-1.13-.19-1.52-.68-.34-.63-.04-1.27-.08-1.56.24,1.45-.95,1.5-2.22,1.44-.64-.03-1.25-.26-1.88-.38-2.08-.38-2.34-.8-2.14-3,.09-.95.1-1.91-.04-2.87.21,1.41.02,2.8-.14,4.2-.09.8-.56,1.08-1.33,1.03-1.28-.08-2.52-.43-3.79-.59-.87-.11-1.23-.72-1.23-1.65,0-1.37.27-2.78-.24-4.13.53,1.32.21,2.71.23,4.06.01.77-.58.91-1.23.79-.87-.16-1.73-.32-2.57-.38.02-.01.13.01.28.03,4.17.61,4,.22,3.87,5.02-.03,1.18-.76,1.82-1.88,1.67-1.5-.19-3.09-.17-4.34-1.25Z"/><path class="cls-56" d="m138.51,13.43c1.73.07,2.28,1.11,2.28,2.67,0,5.32.01,10.64,0,15.96,0,26.79-.02,53.57,0,80.36,0,1.28-.12,2.26-1.61,2.45-1.15-.18-.67-1.1-.67-1.68-.03-31.2-.03-62.4-.03-93.61,0-2.05.01-4.1.02-6.15Z"/><path class="cls-75" d="m98.94,45.71c1.31.25,2.62.5,3.94.73,1.12.2,1.99-.01,1.76-1.43-.21-1.3.75-2.91-.67-3.88-1.1-.75-2.63-.29-3.97-1.03,1.14-.3,2.12-.12,3.13.15,1.01.27,1.65-.06,1.53-1.23-.12-1.17.54-2.61-1.19-3.22-.37-.13-.42-.63-.25-1.02.17-.39.51-.58.93-.55.51.04.87.36.88.85.05,1.34.08,2.69.01,4.03-.06,1.34.33,2.1,1.82,1.99.43-.03.87.16,1.32.2.85.07,2.08.83,2.45.09.56-1.14.8-2.56.49-3.92-.04-.2-.29-.43-.49-.5-.51-.16-1.1-.22-.79-.96.17-.42.64-.34,1.02-.33.72.01.79.49.78,1.05-.02,1.22.04,2.44-.06,3.65-.08,1.05.39,1.54,1.33,1.73.75.15,1.5.31,2.24.47,1.5.31,2.49-.06,2.62-1.84v2.25c-.02.41-.11.79-.52,1-1.02.26-2-.12-3-.2-.73-.05-1.66-.73-2.04.56-.45,1.55.08,2.83,1.31,3.27,1.3.47,2.78.31,3.98,1.13.22.38.22.76,0,1.13-1.05.64-2.08,0-3.12-.06-.84-.05-1.93-.78-2.18.84-.32,2.12.11,3.03,1.67,3.32,1.23.23,2.54.13,3.64.9.31.48.32.96.06,1.46-1.09.7-2.07-.18-3.11-.22-.9-.03-1.97-.61-2.24.92-.33,1.81.11,2.79,1.49,3.2,1.26.37,2.71.15,3.78,1.17.13.29.13.57-.01.85-1.09.73-2.22.03-3.32.09-.68.04-1.81-.94-1.92.55-.08,1.16-.56,2.61,1.24,3.15,1.33.4,2.78.32,4,1.11.24.37.25.75.05,1.14-1.04.68-2.07.03-3.11-.02-.78-.04-1.8-.78-2.18.61-.47,1.7.07,2.9,1.44,3.36,1.25.42,2.66.29,3.81,1.07.24.37.25.75.05,1.14-1.19.73-2.34-.03-3.51-.11-.72-.05-1.71-.48-1.76.73-.04,1.09-.68,2.53,1.05,3.05,1.33.4,2.81.17,4.06.93.22.45-.02.76-.33,1.05-.98.55-1.99.21-2.98.03-1.26-.23-1.88.04-1.91,1.5-.05,2.83-.07,2.87,2.76,3.47.86.18,1.78.24,2.47.89.18.48-.06.78-.41,1.05-.68.32-1.37.14-2.06.05q-2.66-.35-2.73,2.44c-.02.82.07,1.67-.5,2.37-.28.17-.57.18-.87.05-.9-1.11-.49-2.43-.56-3.67-.11-1.79-1.9-3.06-3.57-2.49-.12.04-.28.05-.34.16-.54,1.08-.27,2.24-.25,3.36.01.89.69,1.09,1.39,1.29.82.23,1.83.1,2.28,1.1-.12.44-.46.65-.85.8-2.92.21-2.9.21-2.9,3.34,0,.82.22,1.66-.18,2.45-.39-.12-.78-.24-1.17-.36-.98-1.24-.59-2.7-.57-4.06.02-1.47-.45-2.24-1.99-2.4-1.11-.12-2.31-.21-3.14-1.18,0-.14,0-.28,0-.42.79-.72,1.69-.38,2.56-.28,2.54.31,2.56.3,2.55-2.31,0-.26-.02-.51,0-.77.08-1.17-.42-1.73-1.62-1.88-1.24-.16-2.6-.12-3.51-1.26,0-.14,0-.28,0-.41,1.07-.88,2.21-.32,3.3-.1,1.37.28,1.82-.2,1.85-1.55.07-2.93.05-3.02-2.89-3.56-.81-.15-1.65-.26-2.26-.91,0-.27,0-.53,0-.8,1.07-.63,2.1.04,3.15.1.75.05,1.68.65,1.97-.71.36-1.7-.08-3.05-1.18-3.41-1.31-.43-2.84-.21-3.91-1.33,0-.14,0-.29,0-.43.92-.8,1.92-.24,2.9-.18.78.05,1.79.77,2.15-.66.46-1.83-.07-3.14-1.48-3.53-.91-.25-1.87-.32-2.78-.59-.39-.12-.64-.39-.8-.75,0-.15,0-.29,0-.44.8-.72,1.66-.34,2.53-.19.82.14,1.92.83,2.36-.29.42-1.07.67-2.48-.33-3.4-.83-.76-.83-1.01-.01-1.83,1.55-1.56.54-4.3-1.59-4.71-1.05-.2-2.19-.16-2.97-1.08,0-.14.01-.28.02-.42.99-.84,2.07-.21,3.11-.2.75,0,1.69.52,1.97-.79.37-1.76-.04-3.28-1.12-3.64-.72-.24-1.5-.26-2.24-.45-.67-.17-1.41-.24-1.72-1.02,0-.14-.01-.29-.02-.43Z"/><path class="cls-110" d="m117.3,62.32c0-.29,0-.58.01-.87-.9-1.65-.92-3.29.02-4.93v-1.58c-.93-1.65-.94-3.3,0-4.95,0-.4,0-.81,0-1.21-.93-1.64-.92-3.28-.01-4.93.03-.34.11-.65.44-.83,1.35.65,2.87.44,4.28.8,1.13.29,2.31.36,3.56,1.1-1.44-.13-1.94.54-1.69,1.67.31,1.38-.9,3.11.92,4.15.17.09.22.2,0,.37-1.94,1.37-1.07,3.46-.72,4.95.35,1.47,2.44,1.15,3.84,1.19,1.34.03.93-1.15.93-1.88.02-6.13-.01-12.26-.03-18.39.67.46.4,1.17.4,1.76.01,20.82.01,41.65,0,62.47,0,.58.32,1.3-.38,1.75-.92-1.11-.56-2.44-.56-3.68,0-1.37-.1-2.66-1.03-3.75,1.37-1.42,1.16-3.2.94-4.89-.21-1.57-1.66-1.41-2.74-1.46-1.16-.05-.92,1-.98,1.71-.17,1.78-.04,3.36,2.25,3.67.35.05.95.3.48.93-.1.08-.21.14-.31.21-.71.54-1.94-.36-2.34.67-.3.79,0,1.74-.06,2.62-.06.98.21,2.04-.61,2.86-.14-.01-.28-.02-.42-.03-.97-1.25-.49-2.72-.57-4.09-.11-1.98-2.07-3.39-3.98-2.8-.78.24-.52.92-.58,1.45-.16,1.43.4,2.96-.58,4.28-.44.02-.88.08-1.24-.27.22-1.59.32-3.18.19-4.78-.12-1.42-.89-1.78-3.19-1.83-1.42-.03-1.24.94-1.34,1.81-.14,1.3.37,2.7-.57,3.89-.44.04-.87.08-1.22-.27.45-1.73-.09-3.43-.2-5.14-.05-.89-.94-1.17-1.29-1.83.26-.12.51-.24.77-.37.37-.33.75-.3,1.12-.01.26,0,.53.01.79.02.83-.27,1.63.01,2.43.16,2.68.51,2.74.46,2.76-2.35,0-.95-.12-1.9.2-2.83.12-.26.24-.52.36-.78-1.03-1.97-.67-4.03-.38-6.09.14-.26.28-.52.41-.78.16-.12.34-.17.53-.16,1.09.03,2.13.39,3.2.49.75.08,1.69.33,1.75-.82.06-1.12.63-2.52-1.04-3.08-.54-.18-1.15-.1-1.7-.23-1.22-.28-1.78.13-1.82,1.42-.02.74.25,1.72-.89,2.01-.96-1.4-.96-2.82-.07-4.25,0-.41,0-.81,0-1.22-.91-1.64-.92-3.28,0-4.93,0-.41,0-.82.01-1.22-.92-1.63-.91-3.27-.02-4.91Z"/><path class="cls-6" d="m98.94,52.66c1.56.26,3.12.54,4.69.76.57.08,1,.23,1,.88,0,1.34,0,2.68,0,4.02,0,1.11-1.05.65-1.78,1.25,2.21-.31,1.79,1.1,1.79,2.21.01,3.73-.02,3.76-3.62,2.66-.69-.21-1.37-.28-2.07-.28,0-3.83-.01-7.67-.02-11.5Z"/><path class="cls-119" d="m117.76,100.65c0-1.85.03-3.7-.03-5.55-.02-.86.24-1.12,1.1-.94,1.05.22,2.13.32,3.19.5.98.17,1.57.61,1.5,1.79-.11,1.78-.04,3.57-.04,5.36-1.95-.18-3.84-.66-5.72-1.16Z"/><path class="cls-119" d="m111.61,99.48c-.01-1.66-.03-3.32-.03-4.98,0-.37-.02-.84.17-1.1.45-.61,1.27-.53,1.75-.25,1.18.69,3.25-.63,3.67,1.19.41,1.75.11,3.68.05,5.53,0,.18-.47.35-.72.52-1.64-.3-3.27-.61-4.91-.91Z"/><path class="cls-6" d="m98.94,90.35c1.57.26,3.13.57,4.7.76.88.11,1,.6,1,1.31-.01,1.86,0,3.71,0,5.57-1.62.07-3.1-.6-4.67-.82-.8-.11-1.16-.64-1.12-1.49.07-1.78.07-3.55.1-5.33Z"/><path class="cls-88" d="m108.89,92.24c1.42,0,2.03.63,1.97,2.12-.05,1.12.22,2.26.3,3.39.05.63.12,1.32-.78,1.46-1.56-.11-3.07-.45-4.57-.86-.81-1.83-.27-3.75-.36-5.63-.04-.8.6-.89,1.2-.83.75.08,1.49.23,2.24.34Z"/><path class="cls-147" d="m98.94,83.43c1.3.25,2.6.69,3.9.71,1.42.02,1.84.45,1.84,1.87,0,4.65.06,4.65-4.59,3.95-.37-.06-.76-.02-1.14-.03-.14-2.17-.19-4.34-.01-6.5Z"/><path class="cls-68" d="m123.89,101.85c0-1.64.07-3.29-.03-4.93-.07-1.24.15-1.92,1.6-1.61.6.13,1.26.03,1.89.03l-.02-.02c1.23.38,1.69,1.15,1.58,2.49-.14,1.7-.05,3.42-.06,5.14-1.69-.2-3.37-.44-4.96-1.1Z"/><path class="cls-116" d="m98.93,76.89c.56.08,1.13.13,1.69.25,4.25.89,4.19.89,4.06,5.21-.05,1.42-.66,1.58-1.81,1.31-1.29-.3-2.58-.69-3.93-.64,0-2.04,0-4.08,0-6.12Z"/><path class="cls-43" d="m98.96,46.14c1.27.43,2.58.64,3.91.78,1.23.13,1.84.67,1.82,2.11-.05,4.14.02,4.13-4.21,3.31-.5-.1-1.02-.07-1.53-.09,0-2.03,0-4.07,0-6.1Z"/><path class="cls-147" d="m98.96,64.61c1.24.25,2.47.58,3.72.73,1.46.18,2.03.78,2,2.35-.08,4.47.02,3.48-3.64,2.88-.69-.11-1.37-.25-2.07-.25-.18-1.9-.17-3.81,0-5.71Z"/><path class="cls-147" d="m98.97,70.74c1.5.26,3,.54,4.51.76.77.11,1.07.5,1.17,1.25.58,4.1.22,4.46-3.85,3.74-.63-.11-1.24-.27-1.86-.4-.11-1.78-.17-3.57.03-5.35Z"/><path class="cls-102" d="m108.19,22.91c.28-.44.02-.79-.01-1.15-.04-.46-.89-1.11.15-1.34.68-.15,1.43.05,1.71.86.22.66.31,1.36.55,2.02.31.86.43,1.73-.62,2.02-1.16.32-1.53-.63-1.76-1.53-.08-.29-.01-.62-.01-.88Z"/><path class="cls-100" d="m123.87,27.97c-1.23-2.39-1.67-2.49-3.11-.88-.55-1.2-.86-2.37-.58-3.92.84,1.5,1.57,3,3.07.82.28-.4.62.15.62.55.02,1.01,0,2.02,0,3.43Z"/><path class="cls-74" d="m119.06,27.27c-1.03-.65-.97-1.94-2.23-2.01-.57-.03-.26-.86-.14-1.31.12-.42.31-.92.77-1.01.57-.11.71.46.83.85.31,1.06.87,2.07.77,3.49Z"/><path class="cls-30" d="m101.4,19.65c.66-.84,1.35-.66,1.91.02,1.16,1.41-.55,2.55-.53,3.9,0,.41-1.15.15-1.85-.09,2.67-2.76,2.61-3.17.47-3.83Z"/><path class="cls-25" d="m114.34,23.71c-.23,1.83-1.72,1.35-2.53,1.23-.79-.11-.6-1.25-.54-2,.01-.15.16-.38.28-.4.15-.02.47.14.46.21-.18,2.5,1.48.56,2.34.95Z"/><path class="cls-26" d="m106.95,22.81c-.68-.26-1.11-.37-1.48-.58-.87-.49-.14-1.1-.07-1.65.04-.33.2-.67.58-.6.88.15.37.77.32,1.19-.07.58.5.86.65,1.64Z"/><path class="cls-16" d="m115.22,26.26c-.8-2.05-.83-2.96-.12-4.44-.28,1.51.6,2.95.12,4.44Z"/><path class="cls-64" d="m104.33,22.63c.81,1.07,1.97.94,2.95,1.42-1.6.82-2.63.37-2.95-1.42Z"/><path class="cls-2" d="m171.58,214.91c-.96-.02-1.87-.24-2.7-.74.9.25,2.11-.63,2.7.74Z"/><path class="cls-137" d="m54.67,15.73c6.34,3.64,10.11,9.38,12.7,15.96,1.32,3.36,1.86,6.95,2.38,10.56.55,3.84-.17,7.48-.9,11.14-1.05,5.19-3.92,9.45-8.47,11.93-2.9,1.58-6.25,2.44-10.04,1.28-3.78-1.15-5.95-4.01-8.69-6.2-3.06-2.45-5.18-5.89-7.13-9.32-.68-1.2-1.2-2.51-1.79-3.76-.84-.06-.97-.76-1.14-1.35-1.8-6.13-2.34-12.33-.86-18.6,1.2-5.06,3.83-9.2,8.13-12.2,4.18-2.92,11.64-3.58,15.83.57Z"/><path class="cls-51" d="m54.67,15.73c-5-3.22-10.18-3.29-15.16-.28-5.19,3.13-7.66,8.21-8.66,14.05-.97,5.64-.19,11.15,1.32,16.6.12.42.36.8.54,1.2-.35,1.2-1.73,2.1-1.06,3.67-1.6-2.53-2.48-5.25-3.11-8.08-.74-3.32-.98-6.68-.8-10.06.32-6.15,2.01-11.83,6.41-16.31,2.5-2.55,5.59-4,9.32-4.34,4.07-.37,7.67.46,11.01,2.71.39.26.39.25.19.84Z"/><path class="cls-150" d="m73.48,196.13c-.12-.04-.24-.11-.36-.11-2.53-.08-3.11-1.54-2.66-3.74,3.9.55,7.64,1.8,11.46,2.7.01,5.16.03,10.31.04,15.47,0,.63.1,1.32-.79,1.48-.48,0-.96,0-1.44,0-.21-2.37-.35-4.75-.88-7.08-.22-3.87-2.48-6.49-5.37-8.72Z"/><path class="cls-151" d="m177.24,25.42c.87,1.56.35,3.63,2.61,3.14-.11.72-.6.55-.92.67-.59.23-.61,1.55-1.53.99-.92-.56-.19-1.47-.16-2.24.02-.67,0-1.35,0-2.57Z"/><path class="cls-53" d="m168.99,24.79c.91-.29,1.63-.41,2.01.34.35.69.35,1.52-.11,2.2-.37.56-.61,1.33-1.44,1.41-.15.02-.41-.12-.46-.25-.15-.41.04-.77.38-.99,1.51-.99,1.47-1.87-.38-2.71Z"/><path class="cls-120" d="m174.68,28.83c-.07.17-.09.41-.22.5-.75.54-1.35.14-1.75-.47-.63-.96-.61-2.08-.14-3.04.36-.74,1.08-.77,1.69-.09-.04.08-.09.15-.13.23-1.12,1.08-.77,1.92.41,2.65.05.07.1.15.14.22Z"/><path class="cls-151" d="m181.09,26.35v3.93c-.93-1.24-.7-2.58-.56-3.92.19,0,.37,0,.56-.01Z"/><path class="cls-120" d="m174.25,25.73c1.6.83,1.59,1.89.42,3.1,0,0-.1-.1-.1-.1-.65-.95-.7-1.96-.31-3.02l-.02.02Z"/><path class="cls-81" d="m53.15,242.26c-.27.89-.54,1.78-.81,2.67-.49-1.34-1.1-2.09-2.32-.57-.39.49-.92.81-1.13-.2.51-2.22-.81-2.89-2.64-3.14.11-1.13.22-2.27.33-3.4,2.6.22,5.1.97,7.61,1.6.35,1.25-.47,2.1-1.04,3.03Z"/><path class="cls-158" d="m137.35,184.94c-.23.9-.44,1.77-.11,2.73.32.91,0,1.59-1.12,1.59-8.6-2.23-17.19-4.49-25.81-6.67-1.6-.4-3.02-.67-2.36-2.85.17-.56-.25-.95-.61-1.33,5.45.2,10.59,1.9,15.8,3.27,4.48,1.17,8.98,2.3,13.47,3.42.22.05.49-.1.73-.16Z"/><path class="cls-154" d="m102.03,179.25c-.28-1.18-.57-2.36-.85-3.55.53-1.91,2.05-3.02,3.71-3.48,1.57-.43,2.21-1.25,2.5-2.65,1.34-.75,1.66-.53,2.25,1.52.17.47.93.81.62,1.3-.41.64-.85-.17-1.24-.19-.47-.02-1.35.35-1.4.66-.28,1.81-2.3,2.79-2.19,4.74-1.47-.14-2.48.67-3.41,1.64Z"/><path class="cls-13" d="m169.9,161c.01.82-3.09,2.33-3.96,1.96-.46-.2-.91-.45-1.34-.72-.45-.29-1.34-.36-1.21-1.01.15-.72.83-1.53,1.54-1.53,1.24,0,2.48.02,3.71.05.54.01,1.05.65,1.26,1.24Z"/><path class="cls-57" d="m118.22,164.07v2.41c-1.04.07-1.65-.81-2.64-.88.13,1.06.2,2.1.77,3.41-1.3-.51-1.97-1.24-2.37-2.1-.47-1.01.15-1.92.86-2.54.65-.57,1.93-.02,2.36-1.16-.26-.89-1.23,0-1.61-.64,1.66-.55,3.71.5,4.7,2.45-.81-.11-1.18-1-2.07-.95Z"/><path class="cls-63" d="m136.65,151.43c1.27-.58.08-1.09-.07-1.6-.11-.36-.41-.67-.09-1.04.34-.39.83-.5,1.21-.21.99.75,2.88,1.05,1.65,3.04-.27.44.32.98-.07,1.5-.89.11-1.19-1.16-2.28-.89.88,1.72-.41,1.98-1.61,2.29-1.67-1.85-1.6-2.03,1.26-3.09Z"/><path class="cls-95" d="m125.51,157.94c.1-.16.19-.46.29-.46,1.88-.07,2.21-1.79,3.11-2.89.42.7,1.54.82,1.52,1.87-.24,1.16-1.25,1.66-2.04,2.34-.13.11-.4.09-.48.21-.62,1.04-.61,1.04-1.65.11-.14-.12-.3-.22-.45-.33-.71-.07-.63-.41-.3-.85Z"/><path class="cls-41" d="m136.65,151.43c-.06.43-.11.85-.16,1.25-.67.19-.88-1.03-1.47-.51-1,.88.56,1.5.37,2.35-1.01.27-1.2-1.42-2.39-.91.21,1.04-.09,2.15.45,3.24-.95-.49-1.23-1.46-2.01-2.01-.44-.31-.06-.72.25-1.1.62-.76,1.27-1.45,2.18-1.79,1-.38.54-.9.27-1.54.75.6,1.95-.05,2.5,1.03Z"/><path class="cls-111" d="m125.51,157.94c-.04.33-.04.65.3.85-.09.75.85,1.3.44,2.17-.2-.05-.37-.09-.54-.14-.63-.19-.71-1.63-1.5-.99-.67.53-.38,1.62-.05,2.46.11.29.74.55.07.83-.38.16-.52-.24-.64-.53-.62-1.58-1.38-3.15.59-4.41,1.03-.66.19-1.39-.35-2.13,1.52.11,1.6,1.01,1.68,1.91Z"/><path class="cls-40" d="m117.75,175.35c.07.74.65.61,1.14.73,3.3.77,6.46,1.99,9.65,3.11.33.12.73.2.96.88-4.64-1.45-9.06-3.06-13.96-4.08.9-.29,1.53-.49,2.15-.69l.05.06Z"/><path class="cls-36" d="m109.65,171.1c-.72-.56-.74-2.14-2.25-1.52-.53-.39-1.06-.78-1.58-1.18h0c.62-.11,1.19.2,1.86.03,1.41-.37,3.24.83,3.71,2.26.1.3.28.65,0,.88-.43.34-.63-.11-.89-.36-.23-.23-.41-1.35-.84-.1Z"/><path class="cls-111" d="m122.37,161.06c-.26,1.04-.12,2.48-1.75,2.34-.79-.07-1.36-.71-1.36-1.59,0-1.9,2.21-.24,2.58-1.58.41.14.62.42.53.83Z"/><path class="cls-132" d="m98.92,160.39c2.9-1.67,5.31-4.1,8.42-5.46l.02.03c-.13.35-.18.94-.4,1.01-2.99.92-4.79,3.74-7.7,4.75-.4.2-.42,0-.34-.32Z"/><path class="cls-32" d="m155.38,163.73c1.87-2.2,4.54-3.05,6.78-4.63.13.22.27.44.4.67-2.37,1.35-4.73,2.7-7.1,4.05l-.08-.09Z"/><path class="cls-90" d="m83.5,168.8c2.51.15,4.4-1.15,6.17-2.69h-.01c1-.41,1.99-.83,2.99-1.25.21-.05.28.02.19.22-1.64,1.64-3.85,2.35-5.79,3.51-1.12.68-2.32,1.04-3.54.19v.02Z"/><path class="cls-58" d="m107.34,154.93c2.32-2.34,5.53-3.32,8.01-5.42-2.27,2.41-5.01,4.1-7.99,5.44,0,0-.02-.03-.02-.03Z"/><path class="cls-47" d="m111.57,169.58c-.59-.42-1.16-.83-.74-1.71.4-.84,1.3-.9,1.94-.97,1-.12.48,1.14,1,1.58-.71.42-.96,1.73-2.19,1.1Z"/><path class="cls-36" d="m105.81,168.4c-3.18-.52-6.36-1.04-9.53-1.57,3.26.02,6.49.26,9.53,1.57,0,0,0,0,0,0Z"/><path class="cls-40" d="m137.38,175.74c-2.12,1.67-4.69,2.47-7.02,3.73,1.96-1.81,4.35-2.86,6.63-4.1.16.09.37.13.39.37Z"/><path class="cls-33" d="m98.92,160.39c.11.11.23.21.34.32-.14.65-1.93.5-.85,1.75-.09.05-.18.15-.26.14-2.31-.32-3.45,1.86-5.32,2.48-.06-.08-.12-.15-.19-.22,1.88-1.79,4.22-2.92,6.27-4.47Z"/><path class="cls-125" d="m117.65,146c-1.86,2.17-3.98,2.67-5.89,1.06,2.4.75,4-.13,5.89-1.06Z"/><path class="cls-4" d="m89.67,166.1c-2.25-.85-4.6-1.35-6.94-1.84,2.37.4,5-.26,6.93,1.85,0,0,.01-.01.01-.01Z"/><path class="cls-65" d="m133.14,165.38c-.85,2.01-3.02,2.09-4.54,3.12-.06-.06-.11-.12-.17-.17,1.35-1.3,2.85-2.38,4.63-3.03l.08.09Z"/><path class="cls-37" d="m165,164c-1.86-.02-3.24-1.09-4.72-1.94,2.01-.41,3.05,1.57,4.72,1.94Z"/><path class="cls-50" d="m123.06,171.8c1.43-1.71,3.66-2.2,5.38-3.48.05.06.11.12.17.17-1.4,1.81-3.62,2.3-5.46,3.41l-.09-.1Z"/><path class="cls-23" d="m137.38,175.74c-.13-.12-.26-.25-.39-.37,1.51-1.27,3.16-2.32,4.9-3.23.05.05.09.11.14.16-1.27,1.53-3.15,2.22-4.64,3.44Z"/><path class="cls-87" d="m111.57,169.58c.3-.06.6-.11.9-.17-1.36-2.78,1.2-.16,1.29-.94.68.29.61.81.17,1.14-.75.56-1.58.61-2.36-.04Z"/><path class="cls-15" d="m144.25,158.39c1.33-.95,2.81-1.61,4.36-2.16-1.14,1.13-2.45,1.98-3.99,2.47-.18-.04-.3-.14-.37-.31Z"/><path class="cls-128" d="m130.43,156.47c-.47-.65-1.9-.53-1.52-1.87.83-.37,1.48.16,1.97.61.5.46.8,1.24-.45,1.26Z"/><path class="cls-90" d="m83.51,168.78c-1.93.03-3.64-.8-5.41-1.4,1.87.21,3.74.41,5.39,1.42,0,0,.01-.02.01-.02Z"/><path class="cls-168" d="m141.89,172.14c1.26-1.04,2.61-1.9,4.14-2.49-1.03,1.36-2.47,2.08-4,2.66-.06-.05-.1-.1-.14-.16Z"/><path class="cls-149" d="m137.81,162.76c-1.16,1.58-3.04,1.88-4.67,2.62,0,0-.08-.09-.08-.09,1.29-1.29,3.05-1.81,4.55-2.75.22-.07.28,0,.2.22Z"/><path class="cls-48" d="m142.01,159.99c-1.01,1.52-2.88,1.73-4.2,2.78-.05-.08-.12-.16-.2-.21,1.24-1.21,2.76-1.96,4.31-2.66l.09.1Z"/><path class="cls-172" d="m155.47,163.82c-.95.95-1.89,1.91-3.8,2.08,1.35-1.13,2.51-1.69,3.72-2.17,0,0,.08.09.08.09Z"/><path class="cls-85" d="m117.71,148.35c.57-1.18,1.56-1.61,2.8-1.56-.93.52-1.86,1.04-2.8,1.56Z"/><path class="cls-50" d="m123.15,171.91c-.57,1.09-1.67,1.44-2.69,1.9-.2.18-.39.16-.54-.07.93-.83,2-1.45,3.14-1.94,0,0,.09.1.09.1Z"/><path class="cls-24" d="m83.29,166.6c.8-.74,1.64-.44,2.42-.39-.68.53-1.37.98-2.42.39Z"/><path class="cls-38" d="m144.25,158.39c.12.1.25.2.37.31-.87.42-1.57,1.2-2.61,1.29,0,0-.08-.1-.08-.1.62-.74,1.41-1.22,2.32-1.5Z"/><path class="cls-111" d="m120.01,158.99c.66-.27,1.22-.44,1.89.34-.8.45-1.32.15-1.89-.34Z"/><path class="cls-40" d="m119.92,173.74c.18.02.36.04.54.07-.86.59-1.59,1.4-2.71,1.54,0,0-.05-.06-.05-.06.53-.82,1.38-1.18,2.22-1.55Z"/><path class="cls-94" d="m168.53,175.73c-1.97.89-3.63,2.28-5.42,3.45-1.92.4-3.11-1.29-5.11-1.68,2.21-1.49,4.19-2.83,6.18-4.16.16.01.33.03.49.04,1.27.81,3.13.64,3.86,2.35Z"/><path class="cls-2" d="m58.9,159.18c-2.32,2.28-5.24,3.58-8.1,4.97,2.49-2,4.91-4.11,8.1-4.97Z"/><path class="cls-126" d="m191.49,180.06c-.28.31-.56.76-.96,1.04-1.04.72-2.13,1.39-3.22,2.04-.8.48-1.53.26-1.97-.49-.52-.88.35-1.08.86-1.35,1.34-.71,2.69-1.41,4.07-2.03.55-.25,1.16-.22,1.22.79Z"/><g class="cls-174"><path class="cls-169" d="m184.67,115.39c1.23-.57,2.29.18,3.39.46,2.19.57,2.31.53,2.33-1.65.02-2.28.02-4.56.03-6.85.91-.05,1.04.59,1.06,1.25.04,2.1.06,4.2.05,6.3,0,1.38-.71,1.91-2.09,1.69-1.63-.26-3.23-.62-4.77-1.21Z"/><path class="cls-153" d="m173.52,113.08c1.12-.91,2.21,0,3.19.24,1.83.45,2.26-.15,2.18-1.84-.1-2.15-.06-4.31-.08-6.46.83-.49.83.16.83.65.03,2.35.02,4.69.02,7.04,0,1.01-.6,1.36-1.49,1.22-1.56-.25-3.11-.57-4.66-.86Z"/></g><g class="cls-174"><path class="cls-17" d="m163.14,61.55c8.82,1.97,17.65,3.91,26.46,5.93,1.42.33,1.66-.18,1.64-1.4-.05-3.32-.04-6.64-.05-9.97.07-.3.07-.71.43-.78.33-.07.36.26.36.51.01,4.03.02,8.05.02,12.08,0,.82-.44.9-1.15.73-8.82-2.01-17.65-4-26.47-5.98-.64-.14-1.3-.22-1.25-1.12Z"/><path class="cls-112" d="m191.2,53.41c0-4.48,0-8.96.01-13.44.64-.32.78.02.78.57,0,4.08.03,8.16.02,12.24,0,.42.07,1.21-.8.63Z"/><path class="cls-20" d="m191.53,100.34c-.01-4.22-.04-8.43-.02-12.65,0-.65-.32-1.42.41-1.94.02,4.28.05,8.57.05,12.85,0,.59.26,1.3-.44,1.74Z"/><path class="cls-167" d="m191.93,83.77c-.4-.23-.4-.62-.4-1,0-4.01.02-8.03.03-12.04.6.4.41,1.03.41,1.57,0,3.82-.02,7.65-.04,11.47Z"/><path class="cls-31" d="m191.56,38.05c0-3.62-.01-7.24,0-10.86,0-.61-.22-1.28.34-1.8.03,3.84.06,7.68.08,11.52,0,.41.15.93-.43,1.14Z"/></g><g class="cls-174"><path class="cls-157" d="m242.34,128.81c-.81-1.99-.6-4.11-.69-6.16-.18-3.96-.05-7.94-.06-11.91,1.03.03.8.82.8,1.4,0,5.56-.03,11.11-.05,16.67Z"/><path class="cls-67" d="m242.32,52.25c-.68-.62-.35-1.43-.39-2.15-.18-3.86.2-7.74-.25-11.6.89.1.67.8.67,1.33,0,4.14-.02,8.28-.03,12.43Z"/><path class="cls-173" d="m242.04,81.01c-.05-2.6-.08-5.19-.15-7.79-.05-1.71-.15-3.41-.23-5.11.49-.03.68.25.68.7,0,3.91,0,7.81-.02,11.72,0,.16-.19.32-.29.48Z"/><path class="cls-166" d="m242.34,108.82c-.67-.47-.39-1.17-.4-1.77-.1-3.39.07-6.79-.34-10.17,1.37-.51.71.72.72,1.01.06,3.64.03,7.28.02,10.93Z"/><path class="cls-115" d="m242.35,66.14c-.69-.54-.38-1.3-.41-1.96-.12-3.18.22-6.38-.32-9.55,1.17-.06.72.86.72,1.36.04,3.38.01,6.77,0,10.15Z"/><path class="cls-118" d="m242.43,83.78v10.49h-.43c0-3.86,0-7.72,0-11.59.45.25.33.72.43,1.1Z"/></g><g class="cls-174"><path class="cls-129" d="m90.02,104.59c2.98-.06,5.78.93,8.63,1.55,11.7,2.53,23.39,5.1,35.07,7.72,1.59.36,3.29.44,4.73,1.36.29.19.61,0,.86-.23,1.1-1.06,2.41-.28,3.62-.42.13-.04.25-.07.37-.11,3.79-1.09,4.97-3.61,4.95-7.5-.12-29.07-.07-58.15-.05-87.22,0-1.24-.33-2.59.69-3.65,2.36.39,3.34,1.6,3.49,4.01.52,8.45.27,16.9.29,25.36.05,23.07.03,46.15.03,69.22,0,.77.02,1.55-.13,2.29-.56,2.76-2.12,3.78-4.87,3.17-10.72-2.38-21.43-4.77-32.15-7.16-6.92-1.54-13.84-3.06-20.75-4.63-2.16-.49-4.25-1.17-4.81-3.76Z"/><path class="cls-22" d="m65.07,66.13c.8.72,1.25-.16,1.74-.46,6.84-4.18,9.55-10.69,10.17-18.32.36-4.41-.06-8.8-.78-13.16,1.6,2.72,1.92,5.82,2.2,8.81.63,6.71-.03,13.29-3.37,19.35-3.69,6.71-9.48,9.89-17.01,10.3-4.72.26-8.9-1.32-12.94-3.49.62-.71,1.17-.07,1.72.11,5.63,1.91,11.03,1.33,16.23-1.46.78-.42,1.15-1.39,2.04-1.7Z"/><path class="cls-105" d="m100.5,133.38c-.17.58.22,1.46-.83,1.57-1.9-1.27-4.1-.83-6.19-1.09-.11-.16-.12-.33,0-.5-.25-2.73-.45-5.46-.35-8.21.04-1.19-.18-2.76,1.19-3.12,1.36-.35,2.29.95,2.95,2.04,1.75,2.86,2.94,5.93,3.24,9.3Z"/><path class="cls-93" d="m92.73,132.25c-1.43-.25-2.84-.57-4.28-.74-.79-.09-1.14-.42-1.14-1.18.14-1.38.3-2.77.42-4.16.1-1.07.67-1.2,1.58-.93,1.16.35,1.77,1.23,2.16,2.24.59,1.53,1.07,3.11,1.25,4.76Z"/><path class="cls-161" d="m166.57,284.16c-7.15-1.93-14.3-3.87-21.45-5.79-4.04-1.09-8.09-2.16-12.24-3.26,2.05,6.86-1.45,9.15-5.72,11.69-5.78,3.44-12.22,5.32-18.9,5.76-7.38.48-14.15,3.17-21.15,5.05-3.02.81-5.99,1.8-8.98,2.7-.84-1.08-.11-1.96.35-2.88,3.2-1.68,6.82-2.16,10.19-3.64-3.03-.93-6.1-1.67-8.79-3.35-.73.31-.4,1.06-.74,1.5-.42.53-.72.42-.99-.11-.27-.67-.29-1.38-.2-2.07.58-4.62.22-9.26.34-13.89.02-.94-.13-1.92.51-2.75,1.57.13.71,1.56,1.27,2.37,2.61-.99,5.09-2.43,7.76-2.96-1.71.58-3.64.67-5.55.91-1.06.13-2.17.36-3.08-.52-.78-.92-.95-1.85-.03-2.78,1.04-.55,2.19-.64,3.33-.77,4.96-.54,9.82-1.65,14.68-2.7.22-.05.5-.04.66-.44-5.4-1.76-10.93-3.01-16.35-4.65-.89-.27-1.67.85-2.48,0-.05-3.64-.14-7.29.19-10.91.19-2.04.34-4.08.27-6.12-.1-.4-.26-.8-.31-1.21,1.27-1.52,3.07-2.08,4.84-2.72,3.38.58,6.21-.86,9.01-2.42,2.09-1.17,3.62-.98,4.9.51-.04,1.1.18,2.16.45,3.22,2.07,8.06,3.99,16.17,6.05,24.23.61,2.38.42,2.64-2.01,3.2-.99.23-2.01.27-2.55.51.6-.18,1.66-.32,2.7-.55,1.86-.41,2.4-.1,2.89,1.79.84,3.22,1.68,6.45,2.37,9.71.21,1,.5,1.99.86,2.95.26.7.6,1.3,1.51,1.14,1.07.02,1.45-.62,1.53-1.57.06-.84-.04-1.66-.2-2.48-1-4.95-1.83-9.93-2.88-14.87-1.51-7.06-2.81-14.16-4.17-21.25-.54-2.82-.92-5.68-1.66-8.47-.36-1.36.01-2.44,1.27-3.08,3.37-1.71,4.38-4.43,3.58-7.99-.21-.94,0-1.92-.19-2.87,0-.77.07-1.52.68-2.09,3.28.23,6.32,1.48,9.48,2.22,11.45,2.68,22.68,6.17,34.09,9,4.64,1.15,9.32,2.21,13.88,3.7.55.18,1.12.31,1.39.91.37.92.31,1.89.31,2.84,0,14,.01,28,0,41.99,0,1.12.23,2.33-.69,3.27Z"/><path class="cls-84" d="m299.21,271.81c-8.35,4.06-16.69,8.12-25.04,12.17-9.67,4.7-19.33,9.39-29.01,14.08-1.5.73-3.04,1.36-4.52,2.13-3.84,2.01-7.81,2.22-11.91,1.05-1.54-.44-3.16-.66-4.62-1.28-6.14-2.61-11.97-.82-17.92.87-9.65,2.74-19.37,5.24-29.07,7.83-.42.11-.89.08-1.33.11-.12-.31-.14-.67.04-.92,1.6-2.26,1.35-4.79,1.27-7.35-.1-3.38-.05-6.76,0-10.14.01-.86-.14-1.83.79-2.41.97.56.78,1.54.79,2.4.04,3.14,0,6.28.02,9.42,0,2.5.12,2.64,2.48,2.03,5.71-1.47,11.44-2.83,17.15-4.29,2.41-.62,4.81-1.26,6.97-1.59-5.66-1.27-11.44-3.15-17.32-4.72-2.47-.66-4.96-1.29-7.43-1.96-1.06-.29-2.09-.63-2.78-1.58-.44-.9-.36-1.87-.36-2.83,0-14.05,0-28.11,0-42.16,0-.89-.05-1.79.28-2.65.42-.9,1.16-.61,1.82-.44,8.33,2.06,16.66,4.08,24.93,6.37,4.8,1.33,9.62,2.63,14.46,3.79,4.55,1.09,9.06,2.29,13.57,3.5,1.04.28,2.15.46,2.83,1.46.42.91.34,1.88.34,2.84.01,4.55.11,9.1-.03,13.65-.1,3.36,2.64,5.37,5.96,4.31,2-.64,2.74-1.61,2.76-4.05.05-6.02,0-12.05.02-18.07,0-.95-.1-1.93.37-2.83.98-.56,1.02.28,1.13.82.21,1.07.17,2.17.1,3.26-.1,1.64.63,2.4,2.21,2.79,5.34,1.33,10.71,2.58,16.01,4.04,10.67,2.94,21.41,5.64,32.06,8.65,1.08.31,2.47.29,2.94,1.72Z"/><path class="cls-35" d="m299.21,271.81c-5.06-1.97-10.34-3.16-15.57-4.54-11.45-3.02-22.91-6.01-34.36-9.06-3.89-1.03-3.85-1.08-3.89-5.11,0-.93.31-1.93-.32-2.79-.68-.55-.71-1.35-.71-2.11,0-21.13-.13-42.27.05-63.4.09-1.12.73-1.85,1.7-2.36.85-.45,1.61-1.04,2.45-1.5,1.75-.97,2.22-2.51,2.02-4.38.05-.87-.14-1.82.7-2.46,2.78,3.64,4.42,7.9,6.44,11.94,5.56,11.14,11.02,22.33,16.55,33.48,7.4,14.95,14.81,29.88,22.24,44.82.99,2,2.1,3.94,3.1,5.94.26.53.94,1.32-.37,1.53Z"/><path class="cls-62" d="m230.45,165.32c0-3.6,0-7.19-.01-10.79.59-1.03.65-2.18.71-3.31.06-1.07.45-2,1.47-2.21.94-.2,1.68.54,2.14,1.34,1.12,1.96,1.55,4.17,2.16,6.32.2.71.36,1.44.63,2.52.4-1.38.65-2.42,1-3.43.27-.78.57-1.62,1.64-1.61,1.2.01,1.48,1.01,1.61,1.84.31,1.89.34,3.83-.03,5.72-.32,1.66-.72,3.17,1.56,3.82,1.14.33.89,1.55.98,2.48-.45,1.39-1.58.58-2.41.74-3.09-.76-6.19-1.49-9.25-2.36-.8-.23-1.63-.37-2.2-1.05Z"/><path class="cls-21" d="m41.61,257.9c1.16.29.79,1.2.65,1.87-.26,1.24-.69,2.44-1.06,3.66-4.51.83-9.01,1.73-13.54,2.45-3.71.59-7.3,1.81-11.08,2.06,2.06-1.37,3.5-3.08,3.13-5.77.65-.71,1.55-.86,2.42-1.01,5.65-1.02,11.24-2.34,16.89-3.37.86-.16,1.75-.52,2.58.11Z"/><path class="cls-117" d="m40.03,290.64c-.11-1.28.82-2.24,1.06-3.41,5.87-1.32,11.52-3.35,17.31-4.96,4.31-1.19,8.57-2.55,12.88-3.72.72-.2,1.45-.57,2.22-.15.61.91.54,1.81-.01,2.72-11.16,3.15-22.22,6.66-33.46,9.52Z"/><path class="cls-133" d="m166.59,216.88c.06,1.39-.29,2.82.36,4.15-.13,4.89-.25,9.78-.38,14.67-2.69.16-5-1.23-7.51-1.83-7.36-1.77-14.72-3.55-22.02-5.57-4.34-1.2-8.66-2.53-13.03-3.64-4.8-1.22-9.61-2.41-14.43-3.56-.6-.14-.99-.57-1.52-.78-6.9-3.83-14.79-4.31-22.17-6.49-1.22-.36-2.46-.65-3.68-1.01-.61-.18-1.26-.39-1.15-1.26.47-4.55.1-9.12.23-13.68.03-1-.14-2.05.62-2.9,1.56-.44,2.8.61,4.18.94,6.37,1.55,12.71,3.23,19.06,4.89,7.87,2.06,15.73,4.17,23.62,6.19,7.59,1.95,15.21,3.78,22.8,5.71,4.06,1.03,7.99,2.54,12.18,3.09.97.13,1.89.71,2.83,1.08Z"/><path class="cls-28" d="m181.57,216.09c1.94-.53,3.53-1.75,5.29-2.64,10.81-5.53,21.61-11.07,32.42-16.61,4.99-2.56,9.99-5.11,14.98-7.67,1.09-.41,1.15.48,1.32,1.11.22.81.15,1.65.15,2.48,0,19.44,0,38.88-.01,58.32,0,1.18.28,2.46-.72,3.45-6.46-1.67-12.94-3.26-19.38-5.03-10.89-2.98-21.8-5.89-32.77-8.57-1.6-.39-3.28-.49-4.74-1.38,0-6.52.04-13.05-.06-19.57-.03-1.75.18-2.98,2.22-3.16.49-.04.98-.3,1.31-.73Z"/><path class="cls-29" d="m49.65,256.48c5.72-.55,11.33-1.79,16.93-3.03,1.1,2.03.93,4.64-.37,5.71-3.49.23-6.87,1.13-10.3,1.74-2.74.49-5.45,1.12-8.18,1.69.67-2.03.97-4.17,1.92-6.11Z"/><path class="cls-109" d="m53.15,242.26c.24-1.05.35-2.14,1.04-3.03,4.21.61,8.3,1.72,12.43,2.69-.09.96.35,1.77.77,2.58-.11.43-.4.7-.81.84-3.68-.99-7.36-2.02-11.06-2.95-.74-.19-1.55-.75-2.37-.13Z"/></g><path class="cls-78" d="m73.48,196.13c3.65,1.24,5.44,4.15,5.37,8.72-1.05-3.57-2.8-6.48-6.86-7.19-.12-1.11,1-1.02,1.49-1.53Z"/><path class="cls-142" d="m66.58,245.34c.01-.53.31-.78.81-.84,1.71.4,2.33,1.45,2.23,3.22-.44,8.05-.8,16.1-1.14,24.15-.03.78-.36,1.68.4,2.35-1.78.23-2.31-.76-2.31-2.32,0-3.51,0-7.01.01-10.52,0-.77.05-1.53-.38-2.23.87-1.86.24-3.81.37-5.71.02-2.7.85-5.4,0-8.11Z"/><path class="cls-49" d="m124.62,39.63c0,.56-.08,1.34-.72,1.29-1.12-.08-.77-1.12-.82-1.82-.03-.4-.18-1,.53-.98.96.03,1.07.73,1.01,1.5Z"/><path class="cls-60" d="m117.93,39.6c-1.63.02-1.44-1.03-1.29-1.96.07-.44.56-.5.94-.38.35.11.57.47.15.66-1.69.79.32.99.2,1.68Z"/><path class="cls-171" d="m116.97,86.86c.76,1.78.27,3.63.31,5.45.02.82-.79.79-1.31.67-1.47-.33-3.04-.3-4.38-1.11,0-1.4.07-2.8,0-4.2-.08-1.47.55-1.75,1.86-1.42,1.16.29,2.36.41,3.54.61Z"/><path class="cls-89" d="m116.94,79.98c.83,1.99.23,4.06.38,6.09-1.69-.26-3.38-.52-5.07-.78-.35-.05-.61-.27-.62-.62-.02-1.59-.05-3.19,0-4.78.03-.76.61-.59,1.15-.5,1.38.23,2.76.4,4.15.59Z"/><path class="cls-101" d="m110.82,81.94c0,.51-.04,1.02,0,1.53.11,1.38-.55,1.61-1.75,1.37-3.99-.8-3.97-.77-3.67-5.49.06-.97.26-1.5,1.36-1.07.29.11.62.1.94.14q3.12.36,3.12,3.52Z"/><path class="cls-46" d="m110.78,91.86c-.37,0-.75,0-1.12.01-.74-.6-1.71-.63-2.52-.67-1.47-.07-1.93-.67-1.73-2.01.03-.19,0-.38,0-.57.08-4.52-.73-3.74,4.11-3.01,1.05.16,1.36.67,1.31,1.67-.07,1.53-.04,3.06-.05,4.59Z"/><path class="cls-69" d="m117.32,49.99c0,1.65.01,3.3.02,4.95-1.57-.13-3.15-.26-4.72-.41-.57-.05-.92-.39-.99-.98-.02-.19-.02-.38-.04-.57-.31-4.52.51-4.95,5.73-3Z"/><path class="cls-152" d="m110.82,51.39c0,2.72-.01,2.78-2.53,2.37-.95-.15-2.46.07-2.69-.89-.37-1.49-.1-3.15-.08-4.73,0-.1.12-.28.21-.3,1.49-.33,2.85.31,4.26.57,1.03.19.8.98.83,1.65.02.44,0,.89,0,1.34Z"/><path class="cls-134" d="m117.33,56.51c0,1.64-.01,3.29-.02,4.93-1.5-.25-3-.52-4.5-.73-.86-.12-1.24-.55-1.23-1.39.05-4.36-.62-4.4,3.81-3.61.71.13,1.32.45,1.93.79Z"/><path class="cls-145" d="m117.31,68.45c0,1.64,0,3.28,0,4.93-1.76.28-3.35-.58-5.04-.78-.69-.08-.65-.65-.7-1.16-.42-4.27-.37-4.31,3.93-3.47.62.12,1.28.06,1.81.48Z"/><path class="cls-107" d="m110.8,69.29c0,.82.04,1.39-.01,1.96-.03.29-.16.79-.32.82-1.68.32-3.27-.26-4.8-.78-1.04-.36-.44-1.39-.31-2.18.47-2.85.46-2.72,3.3-2.67,2.38.04,2.27,1.49,2.15,2.85Z"/><path class="cls-119" d="m110.81,44.98c-.37.86.96,2.78-1.56,2.68-3.69-.14-3.89-.3-3.82-4.09.02-.82-.51-2.08,1.15-2.04,3.15.06,4.24.9,4.22,3.46Z"/><path class="cls-159" d="m117.31,43.84c0,1.64,0,3.29.01,4.93-1.77.27-3.38-.56-5.08-.8-.92-.13-.65-.97-.67-1.56-.12-3.56-.12-3.52,3.3-3.05.83.11,1.64.22,2.43.48Z"/><path class="cls-159" d="m105.41,74.79c0-2.9,0-2.92,2.88-2.27.88.2,2.21-.11,2.41,1.08.23,1.42.09,2.91,0,4.37-.03.42-.55.38-.96.29-.49-.11-1-.17-1.5-.24q-2.82-.36-2.82-3.23Z"/><path class="cls-134" d="m117.3,62.32c0,1.64.02,3.27.02,4.91-1.76.27-3.36-.54-5.04-.79-1.03-.15-.67-1.08-.69-1.71-.04-1.01-.34-2.28.14-2.98.64-.95,1.81.22,2.77.12.98-.11,1.86.35,2.8.45Z"/><path class="cls-134" d="m117.73,79.19h-.19s-.19.01-.19.01c-1.54.18-3.01-.42-4.54-.43-.88,0-1.16-.54-1.24-1.36-.44-4.1-.34-4.21,3.74-3.33.68.15,1.41.04,2.01.51.25,1.39-.43,2.86.41,4.19.1.13.09.27,0,.4Z"/><path class="cls-69" d="m105.42,56.74c0-.32.05-.65,0-.95-.34-1.78.68-1.8,1.94-1.53.12.03.24.08.36.11,2.98.66,3.82,2.05,3.07,5.13-.06.23-.22.64-.3.63-1.49-.18-3.01-.3-4.46-.65-1.02-.25-.49-1.28-.6-1.97-.04-.25,0-.51,0-.76Z"/><path class="cls-107" d="m105.42,62.75c0-2.91.04-2.96,3.04-2.21.82.2,2.06.03,2.24,1.12.21,1.3.04,2.67,0,4.01,0,.12-.26.35-.4.35-1.46-.02-2.94-.09-4.28-.65-1.06-.44-.45-1.59-.59-2.42-.01-.06,0-.13,0-.19Z"/><path class="cls-82" d="m127.34,63.79c0,.13.01.26.02.39-.85.71-2.5.89-2.02,2.53.41,1.4,1.83,1.35,2.97,1.61.18.04.38.02.55.11.01,3.64-.04,7.29.08,10.92.04,1.32-.3,2.15-1.57,2.52-.75.49-1.48.84-1.92-.35.19-.02.4,0,.56-.08.21-.1.23-.33-.05-.3-2.22.24-2.09-1.24-2.07-2.72.04-2.42.03-4.84,0-7.26,0-.88-.03-1.7,1.29-1.66-1.09-.91-1.76-4.4-1.22-5.55.27-.57.67-.4,1.13-.34.75.11,1.52.13,2.28.2l-.02-.02Z"/><path class="cls-103" d="m118.88,62.65h1.99c-.15-.2-.17-.27-.2-.28-2.81-.6-3.73-2.25-2.93-5.13.15-.54.45-.69.94-.76,1.43-.19,2.78.35,4.17.47.19.02.43.27.54.46.49.9-.01,4.52-.77,5.21-.28.25-.33.3.01.42,1.2.43.78,1.44.83,2.28-.99-.16-1.94-.47-2.87-.79-.84-.28-1.87-.6-1.71-1.89Z"/><path class="cls-119" d="m123.46,66.49c.01,2.35-.01,4.7.05,7.04.03.93-.23,1.31-1.19,1.06-.36-.1-.75-.11-1.12-.19-3.77-.82-3.87-1-3.49-4.84.09-.93.45-1.32,1.33-1.03.94.32,1.88.26,2.9.2-.85-1.05-2.23-.29-3.09-1.06,1.19-1.76,2.87-1.61,4.62-1.17Z"/><path class="cls-160" d="m123.5,90.97c0,.59-.05,1.05,0,1.49.2,1.52-.56,2.05-1.89,1.63-1.25-.4-3.17.16-3.65-1.11-.55-1.46-.19-3.26-.21-4.91,0-.43.23-.8.68-.75,1.51.15,3.14.05,4.48.63,1.19.52.34,2.1.58,3.03Z"/><path class="cls-116" d="m123.5,84.24c0,.45-.05.9,0,1.34.21,1.59-.64,1.84-1.95,1.61q-3.84-.67-3.83-4.61,0-2.34,2.3-1.93c.13.02.25.04.38.05q3.08.39,3.08,3.54Z"/><path class="cls-19" d="m123.5,53.42c0,3.24-.01,3.3-2.95,2.61-.88-.21-2.2.11-2.59-.88-.56-1.43-.21-3.02-.17-4.55.01-.47.4-.66.81-.6,1.38.22,2.79.35,4.11.76,1.54.47.4,1.9.78,2.66Z"/><path class="cls-119" d="m123.5,47.27c0,.7-.04,1.15,0,1.59.11,1.12-.27,1.56-1.41,1.13-.47-.18-.99-.25-1.48-.37-.93-.23-2.38.47-2.7-.8-.35-1.38-.13-2.91-.12-4.38,0-.14.22-.42.31-.41,1.63.21,3.39-.16,4.88.65,1.13.61.18,1.9.52,2.58Z"/><path class="cls-6" d="m125.43,81.52c.55.59,1.27.28,1.92.35.19,0,.39-.04.57.01.9.28,1.47,3.51.92,5.67-.39,1.53-1.47.76-2.28.52-.91-.27-2.37.06-2.57-1.11-.28-1.66-.32-3.42.08-5.1.13-.57.87-.32,1.36-.35Z"/><path class="cls-82" d="m127.36,95.34s-.08-.11-.13-.14c-1.03-.56-2.81,0-3.17-1.22-.43-1.47-.13-3.15-.13-4.75,0-.18.06-.43.18-.52,1.18-.82,2.32.12,3.49.14.74.01,1.3.46,1.29,1.35-.02,1.21-.06,2.43.02,3.63.08,1.21-.44,1.63-1.57,1.48,0,0,.02.02.02.02Z"/><path class="cls-147" d="m117.73,79.19c0-.13,0-.27,0-.4,0-.13,0-.26,0-.38,0-3.64,0-3.59,3.56-3.49,1.6.04,2.41.58,2.22,2.27-.07.63-.04,1.28-.01,1.91.04.88-.33,1.43-1.22,1.22-1.52-.36-3.2-.1-4.55-1.13Z"/><path class="cls-8" d="m127.36,63.81c-.33-.17-.7-.29-1-.51-.72-.53-2.13.25-2.33-.84-.27-1.48-.08-3.05-.08-4.58,0-.11.09-.31.16-.33,1.34-.21,2.6.23,3.89.45.9.15.89.76.88,1.42,0,.96-.07,1.92.01,2.88.1,1.2-.41,1.65-1.56,1.5,0,0,.02.02.02.02Z"/><path class="cls-116" d="m123.46,66.49c-1.49.58-3.25.11-4.62,1.17-.43-.04-1.02.02-1.04-.56-.06-1.32-.07-2.64.01-3.96.04-.56.63-.49,1.07-.5.7,1.07,1.64,1.78,2.97,1.59.95-.14,1.11.68,1.62,1.08,0,.39,0,.78,0,1.17Z"/><path class="cls-119" d="m128.85,68.42c-1.44.99-2.61-.06-3.72-.66-.82-.44-.54-1.46-.34-2.26.34-1.39,1.44-1.39,2.56-1.33,1.09-.14,1.63.27,1.54,1.45-.08.93-.03,1.86-.04,2.8Z"/><path class="cls-91" d="m49.27,42.26c.85-1.67,1.51-3.3-.5-4.7-.21-.15-.2-.7-.2-1.06-.04-1.92-.06-3.83-.05-5.75,0-.44-.27-1.2.53-1.16.65.03.58.74.59,1.23.03,1.73.02,3.45.05,5.18.04,2.16.88,3.22,2.98,3.82,2.33.67,4.66,1.33,6.98,2.02.46.14,1.21.17,1.07.83-.19.88-.99.38-1.42.27-2.04-.5-4.1-.98-6.06-1.73-1.43-.54-2.24-.26-2.79,1.08-.4.27-.8.29-1.19-.04Z"/><path class="cls-10" d="m49.27,42.26c.4.01.79.02,1.19.04,1,4.24,2,8.49,3,12.73l-.6.17c-1.36-4.26-2.59-8.57-3.59-12.94Z"/><path class="cls-79" d="m50.71,61.17c-.14.48-.17,1.08-.86,1.03-.94-.06-.99-.79-.99-1.51,0-.59.26-1.04.88-.94.74.12.9.77.97,1.42Z"/><path class="cls-18" d="m50.17,17.07c-.06.43.08,1.01-.58,1-.93-.02-1.07-.73-1.1-1.47-.02-.5.13-.89.72-.87.92.02.88.73.96,1.34Z"/><path class="cls-73" d="m174.27,25.71c.63.95.35,2,.31,3.02-1.25.43-1.6-.42-1.75-1.33-.17-1.04.23-1.76,1.44-1.69Z"/></g></svg>