<?xml version="1.0" encoding="UTF-8"?><svg id="Layer_2" xmlns="http://www.w3.org/2000/svg" viewBox="0 0 300 277.2"><defs><style>.cls-1{fill:#6c92a0;}.cls-1,.cls-2,.cls-3,.cls-4,.cls-5,.cls-6,.cls-7,.cls-8,.cls-9,.cls-10,.cls-11,.cls-12,.cls-13,.cls-14,.cls-15,.cls-16,.cls-17,.cls-18,.cls-19,.cls-20,.cls-21,.cls-22,.cls-23,.cls-24,.cls-25,.cls-26,.cls-27,.cls-28,.cls-29,.cls-30,.cls-31,.cls-32,.cls-33,.cls-34,.cls-35,.cls-36,.cls-37,.cls-38,.cls-39,.cls-40,.cls-41,.cls-42,.cls-43,.cls-44,.cls-45,.cls-46,.cls-47,.cls-48,.cls-49,.cls-50{stroke-width:0px;}.cls-2{fill:#7397a7;}.cls-3{fill:#7396a5;}.cls-4{fill:#7698a7;}.cls-5{fill:#6991a1;}.cls-6{fill:#5b8090;}.cls-7{fill:#ecf6fb;}.cls-8{fill:#eefafd;}.cls-9{fill:#759aaa;}.cls-10{fill:#001e2d;}.cls-11{fill:#6c91a1;}.cls-12{fill:#eefafc;}.cls-13{fill:#678d9d;}.cls-14{fill:#779baa;}.cls-15{fill:#effafd;}.cls-16{fill:#f0fcfd;}.cls-17{fill:#7196a4;}.cls-18{fill:#7599a9;}.cls-19{fill:#f1fcfe;}.cls-20{fill:#143d4d;}.cls-21{fill:#2d5462;}.cls-22{fill:#f1fdfe;}.cls-23{fill:#f3fdfe;}.cls-24{fill:#6f93a3;}.cls-25{fill:#7394a3;}.cls-26{fill:#ecf6fa;}.cls-27{fill:#688e9d;}.cls-28{fill:#799caa;}.cls-29{fill:#effafc;}.cls-30{fill:#6c91a0;}.cls-31{fill:#f2fcfe;}.cls-32{fill:#edf9fc;}.cls-33{fill:#eaf7fd;}.cls-34{fill:#658c9c;}.cls-35{fill:#7195a5;}.cls-36{fill:#6b8f9e;}.cls-37{fill:#6e93a3;}.cls-38{fill:#effbfd;}.cls-39{fill:#769aa9;}.cls-40{fill:#6c909e;}.cls-41{fill:#29505f;}.cls-42{fill:#264e5d;}.cls-43{fill:#f0fbfd;}.cls-44{fill:#eaf6fb;}.cls-45{fill:#325967;}.cls-46{fill:#ebf6fb;}.cls-47{fill:#6c909f;}.cls-48{fill:#6c92a2;}.cls-49{fill:#769ba9;}.cls-50{fill:#f2fdfe;}</style></defs><g id="Layer_1-2"><path class="cls-50" d="m4.69,182.87c-1.37-.7-1.09-2-1.09-3.15,0-13.43.02-26.86.01-40.29-.01-42.22-.03-84.44-.06-126.66,0-2.5.31-4.93,1.61-7.1C7.44,1.87,10.87.1,15.28.09,44.83.07,74.39,0,103.94,0c59.64,0,119.28.03,178.92.05,2.19,0,4.4-.11,6.46.82,4.59,2.07,6.89,5.68,6.92,10.68.04,8.44,0,16.89,0,25.33,0,47.87.02,95.75.03,143.62,0,.79.13,1.6-.41,2.29-.51.77-1.32.81-2.12.87-.73.05-1.46.02-2.19.02-94.24,0-188.47,0-282.71-.02-1.41,0-2.96.42-4.16-.8Z"/><path class="cls-50" d="m4.69,182.87c16.2.02,32.4.07,48.59.07,80.13,0,160.27,0,240.4,0,.73,0,1.45-.1,2.18-.15.69.55.49,1.32.51,2.03.21,6.51-.14,13.01-.42,19.51-.22,4.98-4.75,9.68-11.18,9.67-20.25-.02-40.51,0-60.76,0-15.6,0-31.21,0-46.81,0-.78.8-1.79.79-2.78.79-16.45.01-32.89,0-49.34,0-.99,0-2.01.05-2.79-.76-22.96-.01-45.92-.03-68.87-.04-12.67,0-25.35,0-38.02,0-6.11,0-10.8-4.11-11.55-10.12-.81-6.48-.19-12.99-.37-19.49-.02-.87.34-1.38,1.21-1.52Z"/><path class="cls-34" d="m122.29,214.04c18.3,0,36.61-.02,54.91-.03,1.5,13.57,4,26.95,7.58,40.13.66,2.43,1.48,4.8,2.48,7.11.83,1.91,2.01,3.58,3.84,4.69-.11.88-.85.91-1.47,1.04-.65.14-1.32.09-1.99.09-25.15,0-50.3.01-75.45-.03-1.2,0-2.72.54-3.45-1.11,2.5-1.66,3.9-4.08,4.79-6.87,3.53-11.16,5.7-22.62,7.46-34.17.55-3.6.87-7.24,1.3-10.86Z"/><path class="cls-45" d="m201.19,268.61c2.09,1.43,2.25,3.39,1.5,5.59-.17.64-.38,1.25-1.13,1.43-.71.24-1.44.23-2.17.22-19.64-.26-39.29.8-58.92.33-13.27-.32-26.54-.24-39.81-.34-1.15,0-2.47.2-3.08-1.24-1.33-2.75-1.04-4.32,1.12-5.94.88-.74,1.94-.78,3.02-.78,32.14,0,64.28,0,96.43-.01,1.1,0,2.1.24,3.05.75Z"/><path class="cls-6" d="m201.19,268.61c-4.04.05-8.09.14-12.13.14-29.72,0-59.45-.01-89.17-.02-.4,0-.79-.04-1.19-.07.55-1.55,1.94-1.75,3.28-2.07,2.23-.53,4.58.26,6.77-.64.46.58,1.1.33,1.67.33,26.35.03,52.7.05,79.04.07.57,0,1.21.21,1.65-.4,1.97.77,4.03.32,6.04.38,1.79.05,3.2.62,4.04,2.28Z"/><path class="cls-20" d="m97.58,274.6c1.01.7,2.17.52,3.27.52,10.42.04,20.84-.06,31.25.1,23.29.36,46.57-.21,69.86-.1.87.36,1.79.69,1.18,1.95-35.48,0-70.95,0-106.43,0-.61-.82-.47-1.5.41-2.02.15-.15.31-.3.46-.45Z"/><path class="cls-20" d="m97.12,275.05c-.37.63-.44,1.31-.4,2.02-22.5,0-44.99,0-67.49,0-8.83,0-17.66.02-26.5-.04-.96,0-2.68.75-2.73-.89-.05-1.69,1.7-1.05,2.69-1.05,24.64-.04,49.27-.03,73.91-.03,6.84,0,13.68,0,20.52,0Z"/><path class="cls-20" d="m203.14,277.07c0-.89-.84-1.27-1.18-1.95.24-.31.49-.61.73-.92.29,1.06,1.15,1.36,2.01,1.11,1.45-.43,2.9-.26,4.35-.26,24.5,0,49,0,73.5.02.4,0,.8-.01,1.2,0,.78.03,1.78-.11,1.75,1.07-.03,1.03-.96.91-1.68.92-3.39.02-6.77.04-10.16.04-23.5,0-47.01-.01-70.51-.02Z"/><path class="cls-20" d="m297.39,277.09c-.77-.16-1.6.27-2.08-.49-.27-.42-.21-.99.26-1.2,1.3-.59,2.68-.48,4.01-.13.51.13.5.77.24,1.18-.63.97-1.68.43-2.43.64Z"/><path class="cls-45" d="m284.01,24.08c0,1.46,0,2.92,0,4.38-.74.41-1.42-.05-2.11-.17-.6-.11-1.14-.11-1.73.17-1.86.88-2.92.45-3.16-1.62-.2-1.74-.79-2.67-2.52-3.18-.92-.27-1.52-.39-2.35.14-1.7,1.1-2.45.87-3.79-.86-.05-.62.46-.89.8-1.27.61-.68.75-1.4,0-2.04-.75-.64-1.44-.36-2.05.28-.35.38-.57.88-1.04,1.15-1.21.14-1.97.9-2.73,1.79-1.51,1.75-3.2,1.8-4.98.28-.21-.74.28-1.25.6-1.82.44-.78.28-1.44-.48-1.86-.76-.43-1.41-.14-1.87.56-.29.44-.36,1-.82,1.34-.54.12-1.42-.61-1.56.52-.11.83.59.89,1.2.96.33.04.67.05.96.21.74.41,1.31,1.02,1.12,1.9-.2.92-1.06.85-1.78.8-3.15-.21-5.05-2.25-5.37-5.74-.1-1.08-.16-2.15-1.69-1.21-.99.47-2.7.23-2.43,1.99.25,1.61,1.65,1.14,2.73,1.1.36-.01.63.15.85.44.18,3.32-2.35,5.34-5.42,4.05-1.85-.78-3.34-.67-5.09.13-2.03.92-4.25,1.03-6.44.46-3.57-.94-7.09-.63-10.62.24-3.01.74-6.07.48-9.11.21-2.06-.18-4.1-.39-6.12.25-1.71.55-3.26-.3-4.88-.56-.92-.15-1.77-.62-2.71-.62-7.23,0-14.47-.28-21.7.16-3.38.21-6.77.26-10.15.17-1.29-.04-2.54.01-3.72.48-1.75.69-3.5.67-5.28.27-4.05-.92-8.16-.54-12.26-.6-7.69-.11-15.42.97-23.05.09-5.75-.66-11.38-.32-17.06-.06-.4.02-.81.08-1.19-.03-3.17-.88-6.42-.74-9.65-.8-.59-.01-1.27,0-1.52-.69-.24-.67.28-1.1.7-1.52.44-.49.94-.92,1.41-1.39.98-.98,1.19-2.07.34-3.2-.77-1.03-1.84-1.61-3.12-1.03-1.26.57-1.88,1.62-1.69,3.06.12.85.77,1.55.7,2.46-.23,1.42-1.36,1.85-2.49,1.82-2.36-.05-4.57.69-6.85,1.05-1.71.27-3.3.21-4.84-.55-.83-.41-1.65-.59-2.44,0-1.69,1.28-3.81,1.48-5.7,2.25-1.56.64-3.05-.15-4.25-1.1-1.64-1.31-3.19-1.72-5.27-.96-1.99.72-3.14-.22-3.4-2.27.15-.63.69-.94,1.1-1.36,1.14-1.17,1.18-2.57.14-3.69-1.06-1.14-2.45-1.23-3.7-.22-.41.33-.75.74-1.18,1.06-.72.78-.94,1.91-1.81,2.59-.53.41-1.21,1.03-1.75.56-1.24-1.07-2.87-2.24-3.09-3.75-.27-1.92-1.06-1.59-2.22-1.27-3.8.07-4.7,1.42-3.39,5.08.11.31.17.63.14.96-.45,1.99-1.01,2.52-2.81,2.06-1.57-.41-3.16-.3-4.71-.62-.86-.18-1.36.04-1.82.75-1.06,1.63-2.47,2.55-4.54,2.08-.58-.13-1.18,0-1.76.2-2.79.89-4.54.45-5.59-2.29-1.12-2.92-2.98-5.93-1.21-9.31.19-.36.19-.78.11-1.17-.21-1.14.35-1.79,1.37-2.08,2.28-.66,4.52-1.37,6.98-1.36,17.27.06,34.53-.04,51.8.07,5.76.04,11.55-.51,17.25.15,2.79.32,5.38,0,8.09-.09,8.36-.27,16.74-.34,25.09.01,3.69.16,7.39.04,11.07.14,4.38.12,8.8-.08,13.2-.02,7.25.11,14.51,0,21.76.02,3.8.02,7.63.27,11.47-.14,2.36-.26,4.86.22,7.3.26,4.15.07,8.34.11,12.46-.09,12.54-.59,25.07-.03,37.6-.3,1.57-.03,3.01.24,4.38,1.02,1.38.78,2.72,1.01,4.33.32,2.05-.88,4.16-1.22,6.1.67.68.67,1.98.92,2.69-.44.29-.56.78-.92,1.41-.99,2.37-.28,4.77-.47,7.09.19,1.01.29,1.91.41,2.9.1.63-.2,1.28-.34,1.96-.34,3.51-.02,5.59,1.97,5.76,5.47.03.6-.09,1.19-.09,1.79,0,2.08.44,2.69,2.45,3.33.34.11.54.36.71.66Z"/><path class="cls-20" d="m284.03,162.92c0,1.66.03,3.32.02,4.98-.02,2.59-1.61,4.21-4.2,4.21-7.1.02-14.22-.24-21.31.09-4.62.22-9.24.1-13.83.07-16.87-.12-33.73-.12-50.6-.16-8.5-.02-17-.13-25.5.06-3.6.08-7.23.3-10.79.19-6.75-.22-13.49-.31-20.23-.2-5.67.1-11.34-.35-17-.01-4.43.26-8.83-.07-13.24-.06-14.62.04-29.24.01-43.86.01-10.95,0-21.91.06-32.86-.03-2.99-.02-5.93.52-8.92.44-4.46-.11-6.27-1.85-6.28-6.36-.01-49.66,0-99.31,0-148.97,0-.65-.16-1.34.35-1.9.1.08.19.16.29.24.68,1.36.22,2.81.33,4.22.06.71,0,1.43.18,2.13-.04,27.77.27,55.54-.15,83.3.16.92.16,1.84.16,2.77,0,15.99,0,31.98,0,47.97,0,.78-.33,1.81.29,2.29,1.09.85,2.01,2.01,3.28,2.51,1.02.4,2.02-.11,2.65-1.2.33-.58.4-1.67,1.58-1.27.17.21.38.44.38.69-.01,2.98,1.74,3.71,4.37,3.78,1.79.05,3.55.15,5.35-.04,3.77-.4,7.57.21,11.32.07,3.78-.14,7.57-.36,11.34-.2,17.86.79,35.72.18,53.58.32,5.57.04,11.15-.71,16.71-.32,7.96.57,15.93.16,23.89.37,4.66.13,9.27-.56,13.92-.43,34.72.93,69.45.16,104.18.4,1.12,0,2.24.03,3.36-.25,1.37-.34,2.05-1.1,2.07-2.51.01-1,.02-1.99.02-2.99,0-40.56,0-81.12.01-121.68,0-1.3-.29-2.69.71-3.81,1.47.3,1.24,1.54,1.24,2.5,0,6.71.17,13.41-.09,20.12.19.85.11,1.72.11,2.58,0,33.13,0,66.26.01,99.39,0,1.3-.26,2.66,1.04,3.65.77.59,1.5.98,2.51.97,1.54,0,2.86.54,3.61,2.02Z"/><path class="cls-21" d="m15.82,105.47c0-27.93,0-55.87.01-83.8.46-2.12.82-4.23.03-6.36,0,0-.1-.02-.1-.02.1-1.59,1.19-2.31,2.51-2.73,1.27-.4,2.6-.44,3.93-.44,85.46,0,170.92,0,256.39,0,4.31,0,5.47,1.14,5.46,5.38,0,2.19-.03,4.39-.05,6.58-.12-.05-.25-.1-.36-.17-.87-.49-1.8,1.34-2.45.12-.69-1.3-1.43-2.69-1.13-4.31.97-5.29-2.91-7.21-6.99-5.73-1.01.37-1.82.46-2.92-.24-1.59-1.02-3.62-.51-5.42-.42-.94.04-3.12-.4-2.34,2.04.04.11-.19.34-.33.46-.2.16-3.8-.71-3.84-.95-.28-1.71-1.76-1.46-2.63-1.19-1.21.37-2.95-.18-3.56,1.6-.1.29-.52.32-.67.12-.91-1.22-2.6-.74-3.67-1.81-.92-.92-2.25-1.13-3.66-1.12-10.68.07-21.36.03-32.05.04-1.37,0-2.68.17-4.06.57-1.7.49-3.68.65-5.43-.23-.71-.35-1.45-.52-2.11-.25-2.64,1.08-5.32.45-8,.48-2.97.03-5.96-1.11-8.93.13-1.08.45-2.19-.37-3.33-.33-3.31.12-6.62-.1-9.93.33-1.08.14-2.22-.19-3.33-.33-2.69-.34-5.34.23-8.01.33-2.56.1-5.14-.29-7.71-.46-.06,0-.14-.07-.19-.05-3.24,1.48-6.67-.99-9.91.47-.06.03-.14.06-.19.04-3.14-1.3-6.39.59-9.53-.34-1.03-.3-2.07-.39-3.14-.39-4.71.02-9.43-.04-14.14.02-4.64.06-9.36-.66-13.8,1.39-.68.31-1.61.44-2.03-.22-.8-1.26-2.02-1.17-3.13-1.13-2.76.1-5.53-.4-8.3.4-1.45.42-3.1-.16-4.65-.24-9.95-.5-19.9-.07-29.85-.19-8.36-.1-16.73.03-25.1-.05-2.68-.02-4.8,1.75-7.37,1.97-.35.03-.64.26-.37.68.78,1.2.08,2.13-.5,3.11-.19.33-.41.81-.31,1.12.99,3.11.9,6.71,3.95,8.93.59.43,1,.51,1.56.05,1.02-.83,2.24-.8,3.43-.62,2.01.3,3.31-.47,3.77-2.44.19-.79,1.03-1.13,1.27-.92,1.46,1.25,3.24-.06,4.78.81,1.63.92,3.1.64,3.6-1.52.97-.44,1.95-.22,2.93-.01.55-.16.25,1.03.88.61,2-1.35,1.98-1.37,1.46-2.23-.35-1.56-1.26-2.9-1.77-4.39.7-.55,1.47-1.05,2.33-.44.71.49.16,1.56.32,1.83.82,1.35,1.78,3.02,3.1,3.53.84.33,1.9-1.53,2.31-2.85,0-.03.13-.04.19-.03.06.01.11.07.16.11.29.2.45.49.49.82.19,1.66,1.12,2.6,2.75,2.88.39.07.76.2,1.01.56.46,1.37,1.3,2.61,2.81,1.8,2.52-1.35,4.4-.52,6.3,1.09,1.37,1.16,2.76,1.44,4.53.49,1.59-.85,3.58-.88,5.03-2.21.5-.46,1.26-.46,1.85.02,2.2,1.8,4.79,1.12,6.97.51,1.75-.49,3.46-.46,5.18-.7,1.03-.14,1.67-.59,2.2-1.38,1.06-.39,2.06-.38,2.98.38.35.84-1.38.58-.8,1.33.69.9,1.5-.51,2.1-.23,2.4,1.13,4.97-.19,7.49.83,2.41.97,5.24.26,7.83,0,3.53-.35,6.94-.09,10.45.3,5,.56,10.08.5,15.1,0,2.18-.22,4.35-.07,6.47-.02,2.75.07,5.49-.22,8.26-.04,2.72.17,5.43.25,8.1.85.51.12,1.13.36,1.55.19,5-2.04,10.24-.69,15.33-1.21,6.1-.62,12.2-.1,18.29-.36,3.34-.14,6.58.24,9.71,1.45.58.22,1.19.24,1.75-.02,2.17-1,4.39-.52,6.63-.4,3.13.16,6.22.44,9.41-.4,3.28-.86,6.78-1.14,10.2-.08,2.44.76,4.83.46,7.08-.78,1.35-.75,2.58-1.09,4.01.05,1.14.91,2.87,1.15,3.86.13.84-.86,1.95-2.07,1.46-3.67-.22-1.12-.62-2.2-.75-3.34.34-.6.48-1.48,1.53-1.11,1,.35.85,1.18.9,1.98.21,3.43.99,4.95,4.46,5.66.52.11,1.05.31,1.53-.01.38-.25.13-.58-.05-.85-.37-.56-.72-1.16-1.57-.77-.85.4-1.38-.15-1.87-.71-.62-.7-.05-1.23.33-1.74.3-.41.42-1.13,1.02-1.12.82.02.31,1.06.85,1.37,1.09.23,1.97.85,2.83,1.51,2.34,1.39,3.38,1.22,4.85-1,.71-1.07,1.4-1.74,2.68-.91.98.45,1.7,1.22,2.43,1.98,1.37,1.16,2.66,1.63,4.03-.09.53-.67,1.35-.83,1.92.18.12.22.4.52.58.5,2.34-.28,2.41,1.05,2.53,2.92.15,2.33.47,2.23,2.61,1.21,1.32-.63,2.65.27,3.88.86.02,6.96.03,13.91.05,20.87,0,1.16-.58,2.32-.03,3.48-.42.62-.62,1.29-.64,2.05-.02.74-.27,1.4-.8,1.98-1.97,2.18-3.16,4.53-1.63,7.51.42.82-1.12,4.12-1.97,4.4-.83.26-1.2-.4-1.19-.95.1-3.44-.58-6.9.19-10.3.57-2.52.64-2.51-1.91-3.1,0-6.82,0-13.65-.02-20.47,0-.77.24-1.6-.37-2.29-1.08-1.02-2.15-2.07-3.53-2.7-.7-.38-1.37-.25-2.11-.09-1.43.31-2.83.33-4.26-.36-1.48-.71-3.1-.42-4.6.18-.85.34-1.71.51-2.49.04-1-.6-2.08-.55-3.1-.41-10.98,1.46-22.02.69-33.02.72-38.77.11-77.53.04-116.3.04-2.45,0-4.89-.07-7.33-.34-1.41-.16-2.85.4-4.32.36-8.14-.18-16.28.02-24.42-.03-2.58-.01-5.15.16-7.71-.58-1-.29-2.17-.28-3.29.22-1.56.71-3.32.56-4.91.29-5.43-.9-10.81.44-16.22.1-2.67-.17-5.42-.72-8.05.38-5.95.37-5.05,1.3-5.06,5.79-.02,23.45,0,46.89-.02,70.34,0,1.19.11,2.39-.22,3.56-.68,1.44-1.51,1.1-2.12.03-.52-.92-1.06-1.41-2.16-1.18-.8.17-1.53-.26-1.79-.94-.53-1.41-1.49-1.82-2.86-1.62Z"/><path class="cls-41" d="m276.08,54.4c1.62-.77,2.97-.22,3.4,1.42.06.23.04.66-.08.71-1.59.77-1.15,2.45-1.16,3.53-.02,2.6.25,5.2.03,7.81-.02.19.26.41.51.79.58-1.14.66-2.35,1.83-3.01.52-.29,0-1.14-.45-1.51-.53-.43-.36-1.05-.54-1.45-1-2.23,1.53-3.48,1.29-5.42,2.4-.53,1.22-3.57,3.12-4.45,0,33.51,0,67.02,0,100.53,0,3.19,0,6.38-.01,9.57-1.48-.52-2.66-1.9-4.6-1.08-.94.4-3.35-2.45-3.35-3.68,0-34.59,0-69.18,0-103.76Z"/><path class="cls-10" d="m158.09,197.48c0,4.26-3.92,8.09-8.23,8.02-4.29-.06-7.55-3.49-7.5-7.89.05-4.46,3.61-7.98,8-7.91,4.18.07,7.73,3.63,7.73,7.77Z"/><path class="cls-43" d="m44,24.02c-1-.06-2.07.34-2.99-.37-1.4-1.34-1.88-2.91-.84-4.64,1-1.66,2.57-1.94,4.34-1.39,1.46,1.13,2.36,2.49,1.83,4.43-.11,1.46-1.13,1.83-2.34,1.97Z"/><path class="cls-16" d="m57.17,24.04c-3.41.06-4.33-.85-4.25-4.26,1.29-2.16,2.62-2.82,4.43-2.16,1.7.62,2.43,1.88,2.31,3.67-.11,1.57-1.33,2.13-2.49,2.74Z"/><path class="cls-15" d="m66.36,20.36c.12-1.76,1.75-3.13,3.55-2.99,1.85.15,3.29,1.8,3.18,3.66-.12,1.89-1.71,3.19-3.71,3.04-1.9-.15-3.15-1.69-3.02-3.71Z"/><path class="cls-38" d="m95.01,24.02c-1-.05-2.05.3-2.98-.38-1.06-.95-1.58-2.13-1.23-3.54.38-1.57,1.4-2.56,3.04-2.68,1.74-.12,2.88.81,3.46,2.4.57,1.53-.02,2.7-1.27,3.61-.32.23-.68.39-1.02.59Z"/><path class="cls-43" d="m33.25,20.91c0,1.72-1.66,3.14-3.66,3.15-1.73,0-3.27-1.59-3.23-3.33.05-1.89,1.6-3.33,3.51-3.27,1.88.06,3.38,1.59,3.37,3.46Z"/><path class="cls-17" d="m106.39,23.51c-1.19,0-2.47-1.38-2.46-2.66,0-1.32,1.35-2.7,2.67-2.73,1.36-.03,2.86,1.45,2.83,2.8-.03,1.32-1.51,2.59-3.03,2.58Z"/><path class="cls-39" d="m81.9,18.18c1.71.21,3.13,1.75,2.75,3-.4,1.34-1.38,2.28-2.86,2.3-1.19.01-2.58-1.79-2.38-2.94.26-1.48,1.14-2.32,2.49-2.36Z"/><path class="cls-46" d="m237.02,18.43c1.4.08,2.24.87,2.26,2.09.02,1.34-.98,2.23-2.27,2.24-1.23.01-2.17-.88-2.19-2.11-.02-1.32.87-2.14,2.2-2.22Z"/><path class="cls-26" d="m248.53,18.59c1.05.93,1.57,1.98.75,3.34-1.14.98-2.24,1.23-3.37-.06-.88-1-.57-1.92.11-2.81.68-.88,1.59-.71,2.5-.47Z"/><path class="cls-44" d="m268.46,22.87c-1.41.08-1.94-.93-2.43-1.98.11-1.32.69-2.29,2.1-2.43,1.13-.11,1.93.55,2.22,1.59.44,1.59-.81,2.18-1.89,2.81Z"/><path class="cls-7" d="m258.51,22.8c-1.43.41-2.07-.66-2.83-1.51-.1-1.4.33-2.51,1.83-2.8,1.1-.21,1.92.34,2.34,1.37.58,1.43-.45,2.16-1.34,2.94Z"/><path class="cls-10" d="m272.87,28.83c1.45.42,2.71,1.04,2.82,2.81,0,39.88-.01,79.76-.02,119.65,0,3.06-.04,6.12,0,9.17.02,1.65-.67,2.59-2.3,2.95-.92.2-1.82.32-2.75.32-33.4,0-66.79.03-100.19-.05-3.1,0-6.22-.53-9.32-.3-8.68.65-17.37.34-26.06.29-5.56-.03-11.13-.53-16.69-.3-18.63.77-37.26.24-55.89.29-4.02.01-8.08-.54-12.11-.26-4.57.32-9.12-.26-13.67-.02-3.03.16-6.03.43-9.09.03-2.79-.37-3.39-.74-3.42-3.66,0-.53-.02-1.06-.03-1.59-.8-.69-.77-1.65-.77-2.57-.02-14.37-.02-28.75,0-43.12,0-.94.07-1.86.79-2.58-.01-25.22.03-50.43-.08-75.65-.02-4.74.76-5.46,5.28-5.35.26,0,.53-.02.79-.03,3.41-.61,6.85-.09,10.28-.2,3.42-.11,6.85.14,10.26-.32,1.38-.18,2.72.4,4.14.39,10.25-.13,20.51-.02,30.77-.02,42.84-.01,85.68.04,128.52-.03,12.46-.02,24.92.3,37.39-.2,2.64-.11,5.37-.72,8.05.19,1.02.35,2.07-.27,3.11-.42,2.29-.32,4.44.8,6.7.44,1.18-.19,2.35-.46,3.48.17Z"/><path class="cls-42" d="m24.19,109.87c0,16.09-.01,32.18-.02,48.28-.78,1.21-.48,2.96-2.65,3.5-1.67.42-2.32-.2-3.09-1.18-.52-.66-.77-1.6-1.97-1.1-.57.24-.62-.27-.62-.69,0-.33,0-.66,0-1,0-17.4,0-34.8,0-52.21.44-.05.64-.32.84-.72.58-1.18,1.11-.93,1.55.13.25.61.51,1.21.81,1.8.36.69.81,1.21,1.71.73,1.28-.69,2.02-.19,2.23,1.16.12.75.42,1.23,1.22,1.3Z"/><path class="cls-45" d="m15.87,15.32c1.08.4,1.58.93.94,2.19-.32.64-.17,1.53-.18,2.31-.02.73,0,1.46-.78,1.85.01-2.12.02-4.24.03-6.36Z"/><path class="cls-41" d="m272.87,28.83c-24.51,0-49.02.02-73.53.02-55.79,0-111.59.01-167.38.02-.6,0-1.19-.02-1.79-.03,1.57-.43,3.13-.53,4.79-.54,4.05-.03,8.11.27,12.19-.05,1.83-.14,3.75-1.23,5.92-.07,1.63.88,3.95.66,5.83-.02,1.27-.47,2.54-.58,3.67-.31,5.06,1.21,10.15.43,15.23.5,2.51.04,5.03.3,7.52.07,3.24-.3,6.46.18,9.67.02,7.87-.41,15.73.23,23.59.07,7.9-.16,15.8-.04,23.7-.04,7.97,0,15.93,0,23.9,0,7.9,0,15.8,0,23.7,0,7.97,0,15.93,0,23.9,0,7.9,0,15.8,0,23.7,0,3.43,0,6.87.1,10.3-.03,2.72-.11,5.42-.53,8.14-.75,1.11-.09,2.16.1,3.26.57,1.45.62,2.78-.77,4.32-.8.97-.02,1.81-.08,2.62.48,1.21.84,2.61.8,3.8.28,1.28-.55,2.12-.35,2.95.61Z"/><path class="cls-45" d="m44,24.02c.96-.45,1.76-1.08,2.34-1.97.51-.05.95-1.14,1.45-.3.5.84-.39,1.75-.88,1.91-1.32.43-2.24,1.47-3.43,2.01-.87-.99.91-.9.52-1.65Z"/><path class="cls-45" d="m52.5,23.04c.69.12.87.72,1.02,1.27.12.43-.14.8-.64.68-.6-.13-1.12-.43-1.11-1.16,0-.42.24-.73.74-.79Z"/><path class="cls-50" d="m109.93,99.51c-11.88,0-23.76,0-35.64,0-1.87,0-3.25-1.21-3.11-2.81.16-1.82,1.4-2.41,3.06-2.39.07,0,.13,0,.2,0,23.5,0,46.99,0,70.49-.01.93,0,1.88-.05,2.63.65.85.79,1.27,1.77.85,2.87-.4,1.06-1.2,1.71-2.44,1.69-2.19-.02-4.38,0-6.57,0-9.82,0-19.65,0-29.47,0h0Z"/><path class="cls-23" d="m133.75,70.32c-.68.54-1.49.42-2.27.42-19.64,0-39.27,0-58.91.02-1.61,0-2.86-.4-3.44-2.06-.54-1.54.31-2.95,1.94-3.16.39-.05.79-.05,1.19-.05,19.77,0,39.54,0,59.31.02.6,0,1.19.07,1.79.1,1.93,1.3,2.09,3.15.4,4.7Z"/><path class="cls-22" d="m99.27,46.25c-8.89,0-17.78,0-26.67,0-2.81,0-3.84-.7-3.83-2.61,0-1.36.6-2.31,2.03-2.5.98-.13,1.98-.21,2.97-.21,17.38-.02,34.76-.02,52.14-.03.8,0,1.59-.02,2.35.31,1.17.51,1.76,1.42,1.63,2.68-.13,1.26-.9,2.04-2.17,2.23-.59.08-1.19.07-1.79.07-8.89,0-17.78,0-26.67,0,0,.02,0,.03,0,.05Z"/><path class="cls-50" d="m153.92,145.8c7.7,0,15.4,0,23.1,0,.79,0,1.59-.08,2.35.28,1.23.59,1.83,1.63,1.68,2.89-.15,1.22-1,2-2.31,2.08-.86.05-1.72.08-2.59.08-15.14.02-30.27.02-45.41.03-.4,0-.8,0-1.19-.05-1.77-.18-2.53-1.26-2.54-2.96-.01-1.76,1.15-2.3,2.61-2.32,4.51-.06,9.03-.05,13.54-.06,3.58,0,7.17,0,10.75,0h0Z"/><path class="cls-48" d="m111.92,126.52c-6.17,0-12.33.01-18.5,0-2.15,0-3.58-1.69-2.92-3.42.45-1.18,1.39-1.68,2.66-1.67,12.53.01,25.06,0,37.59.02,1.67,0,2.95,1.19,2.87,2.63-.1,1.86-1.39,2.45-3.01,2.46-6.23.03-12.46.01-18.69.01v-.02Z"/><path class="cls-50" d="m122.18,135.37c4.18,0,8.36-.01,12.54,0,2.07,0,3.18,1.01,3.12,2.73-.05,1.57-1.2,2.5-3.19,2.51-8.43.01-16.85.01-25.28,0-2.03,0-3.23-1.03-3.24-2.69-.01-1.64,1.12-2.53,3.31-2.53,4.25-.01,8.49,0,12.74,0h0Z"/><path class="cls-50" d="m84.43,135.37c4.11,0,8.22,0,12.33,0,2.01,0,3.15.98,3.21,2.69.05,1.59-1.04,2.53-3.09,2.54-8.22.02-16.44.02-24.66.02-2.04,0-3.4-1.16-3.35-2.81.04-1.47,1.28-2.44,3.24-2.45,4.11-.02,8.22,0,12.33,0,0,0,0,.02,0,.02Z"/><path class="cls-50" d="m106.67,77.91c4.18,0,8.36-.01,12.53,0,1.81,0,2.96,1.11,2.93,2.73-.02,1.41-1.27,2.52-2.98,2.52-8.29.02-16.58.01-24.87,0-.52,0-1.1,0-1.54-.23-1.25-.62-1.89-1.67-1.57-3.1.3-1.33,1.12-1.96,2.57-1.94,4.31.06,8.62.02,12.93.02,0,0,0-.01,0-.02Z"/><path class="cls-19" d="m103.5,54c3.38,0,6.77.03,10.15-.01,1.76-.02,2.79.75,2.93,2.51.13,1.66-.96,2.66-2.95,2.67-6.76.03-13.53.03-20.29,0-1.9,0-2.72-.86-2.72-2.63,0-1.82.7-2.5,2.74-2.52,3.38-.03,6.76,0,10.15,0v-.02Z"/><path class="cls-31" d="m117.98,105.89c2.58,0,5.16-.01,7.74,0,1.82.01,2.9,1.06,2.9,2.74,0,1.56-1.03,2.44-2.94,2.45-5.23.02-10.46.03-15.68,0-1.92,0-3.1-1.02-3.12-2.56-.02-1.78.95-2.61,3.16-2.62,2.65-.02,5.29,0,7.94,0h0Z"/><path class="cls-50" d="m79.59,145.8c2.58,0,5.16.03,7.74,0,1.76-.02,2.77.81,2.91,2.54.14,1.67-.95,2.76-2.86,2.78-5.29.05-10.59.04-15.88-.02-1.83-.02-2.87-1.16-2.8-2.88.08-1.87,1.26-2.44,2.95-2.43,2.65.02,5.29,0,7.94,0Z"/><path class="cls-50" d="m91.15,105.9c2.32,0,4.65-.03,6.97,0,1.65.03,2.78,1.19,2.68,2.77-.1,1.56-.96,2.42-2.57,2.42-4.58,0-9.16.02-13.74-.04-1.7-.02-2.88-1.25-2.76-2.73.14-1.74.99-2.58,2.86-2.47,2.18.13,4.38.03,6.57.03h0Z"/><path class="cls-50" d="m66.36,77.94c2.19,0,4.37-.02,6.56,0,1.79.02,2.91,1.03,2.91,2.55,0,1.48-1.15,2.66-2.84,2.68-4.44.05-8.87.05-13.31,0-1.85-.02-3.01-1.18-2.97-2.75.05-1.69,1.01-2.48,3.09-2.5,2.19-.02,4.37,0,6.56,0v.02Z"/><path class="cls-19" d="m66.08,126.36c-2.06,0-4.12-.04-6.17.01-1.7.05-2.86-.52-3.05-2.35-.18-1.69.75-2.76,2.79-2.85,2.98-.14,5.97-.08,8.96-.1,1.33,0,2.66-.04,3.98.01,1.82.07,2.97,1.19,2.97,2.8,0,1.65-.9,2.43-2.9,2.45-2.19.03-4.38,0-6.57,0,0,0,0,.01,0,.02Z"/><path class="cls-49" d="m101.64,145.78c2.06,0,4.12-.04,6.18.01,1.88.05,2.9.99,2.91,2.56.01,1.58-.99,2.58-2.86,2.6-4.18.06-8.37.01-12.55.04-1.88,0-2.68-1.23-2.77-2.77-.11-1.7,1.06-2.44,2.72-2.43,2.13.01,4.25,0,6.38,0v-.02Z"/><path class="cls-43" d="m60.88,99.54c-3.14,0-4.4-.8-4.35-2.74.05-1.88,1.14-2.52,4.33-2.54.26,0,.53,0,.79,0,2.39.02,3.57.91,3.61,2.72.05,1.83-.97,2.55-3.6,2.56-.26,0-.53,0-.79,0Z"/><path class="cls-9" d="m133.75,70.32c.77-1.64.71-3.22-.4-4.7,1.85-.03,3.69-.08,5.54-.08,1.48,0,2.37.8,2.56,2.23.19,1.49-.62,2.39-2.02,2.72-1.9.45-3.8.17-5.68-.17Z"/><path class="cls-8" d="m63.35,68.15c0,1.76-1.35,2.99-3.27,2.97-1.78-.03-3.29-1.4-3.33-3.02-.04-1.9,1.19-2.95,3.42-2.93,2.06.02,3.17,1.07,3.18,2.98Z"/><path class="cls-12" d="m59.99,151.37c-1.92,0-3.35-1.21-3.41-2.85-.06-1.84,1.21-2.93,3.42-2.92,2.08,0,3.21,1.01,3.23,2.87.02,1.77-1.24,2.91-3.24,2.9Z"/><path class="cls-29" d="m63.34,138.22c-.04,1.67-1.37,2.82-3.2,2.76-1.99-.06-3.34-1.36-3.3-3.16.04-1.73,1.2-2.7,3.2-2.69,2.11.01,3.34,1.17,3.29,3.1Z"/><path class="cls-32" d="m60.14,46.74c-1.95,0-3.33-1.32-3.3-3.16.02-1.7,1.26-2.78,3.15-2.78,1.89,0,3.19,1.22,3.23,3,.03,1.62-1.34,2.93-3.08,2.93Z"/><path class="cls-40" d="m75.56,108.53c.02,1.51-1.53,2.94-3.17,2.93-1.62,0-3.1-1.44-3.11-3.01,0-1.57,1.31-2.89,2.93-2.94,1.68-.06,3.33,1.42,3.35,3.02Z"/><path class="cls-27" d="m131,80.56c0,1.55-1.49,2.95-3.14,2.97-1.53.02-3.08-1.49-3.12-3.03-.04-1.83,1.19-2.95,3.24-2.95,1.66,0,3.03,1.37,3.02,3.01Z"/><path class="cls-1" d="m82.25,77.53c1.9,0,3.22,1.22,3.25,2.99.02,1.58-1.44,3.02-3.07,3-1.59-.02-3.17-1.65-3.15-3.24.02-1.65,1.21-2.75,2.97-2.75Z"/><path class="cls-13" d="m84.38,124.19c0,1.51-1.37,2.79-2.99,2.81-1.67.02-3.29-1.52-3.26-3.09.03-1.81,1.21-2.9,3.08-2.85,1.79.04,3.16,1.4,3.16,3.13Z"/><path class="cls-8" d="m60.09,59.59c-1.95-.03-3.26-1.21-3.24-2.93.01-1.76,1.13-2.72,3.13-2.71,2.07.02,3.22,1.04,3.25,2.88.02,1.66-1.26,2.79-3.13,2.76Z"/><path class="cls-36" d="m139.68,77.55c1.71.01,3.04,1.3,3.09,2.99.04,1.58-1.41,2.96-3.12,2.97-1.6,0-3.05-1.44-3.07-3.04-.02-1.67,1.31-2.93,3.1-2.91Z"/><path class="cls-37" d="m63.29,108.56c0,1.73-1.12,2.87-2.83,2.9-1.67.03-3.25-1.52-3.19-3.12.06-1.63,1.28-2.74,3.03-2.75,1.8,0,2.99,1.18,2.99,2.97Z"/><path class="cls-34" d="m138.13,40.82c1.87,0,3.18,1.22,3.24,3.01.05,1.52-1.46,2.97-3.08,2.97-1.49,0-2.89-1.58-2.86-3.22.03-1.65,1.11-2.76,2.71-2.76Z"/><path class="cls-30" d="m122.12,148.36c.04,1.6-1.35,2.97-3.04,3-1.56.03-2.83-1.23-2.89-2.87-.06-1.61,1.18-2.95,2.75-2.97,1.74-.03,3.15,1.23,3.19,2.85Z"/><path class="cls-5" d="m82.48,53.93c2,.02,3.16,1.16,3.09,3.02-.06,1.52-1.44,2.68-3.12,2.61-1.62-.07-2.86-1.34-2.86-2.94,0-1.79.98-2.7,2.89-2.68Z"/><path class="cls-47" d="m74.87,56.77c-.03,1.62-1.44,2.86-3.2,2.81-1.51-.04-2.82-1.52-2.75-3.08.07-1.62,1.34-2.68,3.12-2.61,1.77.07,2.87,1.18,2.84,2.88Z"/><path class="cls-33" d="m42.77,42.49c-1.51-.02-2.7-1.29-2.64-2.83.06-1.5,1.18-2.51,2.73-2.46,1.55.05,2.83,1.28,2.84,2.71.01,1.38-1.38,2.6-2.93,2.58Z"/><path class="cls-3" d="m45.44,49.51c.06,1.55-1.29,2.91-2.69,2.81-1.46-.1-2.22-1.1-2.43-2.45-.18-1.23,1.19-2.62,2.49-2.52,1.44.11,2.5.79,2.63,2.17Z"/><path class="cls-25" d="m45.39,98.62c-.02,1.32-1.09,2-2.55,2.04-1.49.04-2.3-.94-2.36-2.36-.06-1.41.55-2.43,2.16-2.47,1.61-.05,2.69.92,2.75,2.8Z"/><path class="cls-4" d="m43.02,79.49c1.59-.02,2.28.91,2.35,2.36.06,1.21-1.42,2.49-2.73,2.3-1.42-.2-2.26-1.07-2.18-2.6.08-1.49.89-2.13,2.55-2.07Z"/><path class="cls-11" d="m42.65,87.54c1.65.03,2.82,1.18,2.7,2.53-.13,1.45-.92,2.3-2.45,2.29-1.27,0-2.72-1.33-2.57-2.5.18-1.41,1.1-2.19,2.31-2.33Z"/><path class="cls-35" d="m45.47,115.13c-.1,1.51-1.11,2.15-2.49,2.29-1.32.14-2.57-1.11-2.49-2.5.08-1.48.88-2.32,2.41-2.31,1.62.01,2.37.96,2.57,2.52Z"/><path class="cls-18" d="m45.38,65.41c-.15,1.48-1.12,2.2-2.65,2.15-1.52-.05-2.26-1-2.29-2.44-.03-1.57.98-2.3,2.41-2.25,1.44.05,2.56.69,2.53,2.54Z"/><path class="cls-2" d="m45.38,157.5c.05,1.25-1.21,2.54-2.5,2.57-1.24.03-2.47-1.24-2.46-2.59.01-1.47.9-2.13,2.24-2.23,1.48-.11,2.67.92,2.72,2.24Z"/><path class="cls-24" d="m43.04,75.98c-1.61-.02-2.47-.91-2.56-2.3-.1-1.41.64-2.42,2.19-2.5,1.53-.08,2.81,1.07,2.76,2.48-.06,1.56-1.12,2.11-2.39,2.32Z"/><path class="cls-28" d="m42.97,120.95c1.42-.09,2.36.64,2.41,2.29.05,1.65-1.1,2.18-2.45,2.29-1.54.12-2.36-.79-2.46-2.26-.11-1.57.77-2.31,2.5-2.32Z"/><path class="cls-14" d="m45.35,141.29c-.02,1.26-1.39,2.59-2.66,2.41-1.43-.2-2.29-1.15-2.27-2.58.02-1.54,1.03-2.21,2.52-2.17,1.51.05,2.43.96,2.41,2.34Z"/><path class="cls-1" d="m45.39,131.14c0,1.67-1.1,2.26-2.39,2.48-1.19.21-2.63-1.23-2.54-2.49.09-1.35.81-2.17,2.27-2.2,1.57-.03,2.48.68,2.66,2.2Z"/></g></svg>