<?xml version="1.0" encoding="UTF-8"?><svg id="Layer_2" xmlns="http://www.w3.org/2000/svg" viewBox="0 0 301.8 377.06"><defs><style>.cls-1{fill:#cfdbe2;}.cls-1,.cls-2,.cls-3,.cls-4,.cls-5,.cls-6,.cls-7,.cls-8,.cls-9,.cls-10,.cls-11,.cls-12,.cls-13,.cls-14,.cls-15{stroke-width:0px;}.cls-2{fill:#60879d;}.cls-3{fill:#b6c8d2;}.cls-4{fill:#f5f8f9;}.cls-5{fill:#f6f6f7;}.cls-6{fill:#e8cccc;}.cls-7{fill:#f1f4f6;}.cls-8{fill:#f2f6fd;}.cls-9{fill:#9bb3c1;}.cls-10{fill:#162a3d;}.cls-11{fill:#f0fdfe;}.cls-12{fill:#7b9bae;}.cls-13{fill:#182c3f;}.cls-14{fill:#beced7;}.cls-16{stroke:#f6f6f7;stroke-miterlimit:10;stroke-width:5px;}.cls-16,.cls-15{fill:#d9e2e7;}</style></defs><g id="Layer_1-2"><ellipse class="cls-16" cx="150.9" cy="193.02" rx="148.4" ry="145.09"/><path class="cls-11" d="m86.46,226.1c1.09.02,2.17.03,3.26.05.32,0,.64,0,.95,0,1.39.03,2.8.22,4.17-.17,1.56,0,3.12,0,4.69,0,11.15.43,22.31.31,33.46.07,8.73.03,17.47.08,26.2.07,26.6,0,53.2-.04,79.81-.06,1.57.05,3.14.14,4.72.15,1.24,0,1.67.47,1.44,1.75-.35,1.93-.43,3.9-.82,5.82-1.95,9.74-7.63,16.17-17.21,18.98-3.66,1.07-7.49.72-11.25.93-10.5-.02-21-.04-31.5-.05-17.06-.02-34.13-.05-51.19-.06-5.98,0-11.95.02-17.93.03-10.24,0-20.48,0-30.72.01-4.94-.17-9.92.31-14.81-.65-11.21-2.21-19.52-12.17-20.22-24.42-.11-1.93.65-2.38,2.45-2.37,9.44.06,18.87.01,28.31,0,2.06-.03,4.12-.05,6.19-.08Zm57.67,10.98c-1.53,1.94-1.42,3.85.12,5.73.52,1,1.33,1.73,2.27,2.32,2.16,1.35,4.84,1.15,6.54-.46,1.7-1.61,2.06-4.58.81-6.73-1.5-2.59-4.06-3.71-6.88-3.04-.87.49-2.15.26-2.6,1.48l-.26.7Z"/><path class="cls-8" d="m242.32,200.08c-.86.62-1.48-.08-2.17-.39-.63-1.82-2.06-2.94-3.61-3.86-7.26-4.28-13.38-9.81-18.14-16.75-1.12-1.64-1.63-3.7-2.42-5.57-.26-.61-.19-1.4-1.37-2.07.72,3.2,1.4,6,2.51,8.68,2.59,6.24,4.05,12.68,3.61,19.48-.95,1.16-.31,2.54-.54,3.79-.13.04-.26.09-.38.16-17.56-.02-35.13-.04-52.69-.05-11.34,0-22.69,0-34.03.07-.85,0-2.47-.68-2.44.8.02.99,1.59.54,2.44.54,26.39.03,52.78.02,79.17,0,2.52,0,5.04-.01,7.55-.02.14.04.27.07.41.09.05,5.06.09,10.12.14,15.18-.66.13-1.31.26-1.97.39-5.42-.04-10.85-.12-16.27-.12-20.92-.01-41.84,0-62.77,0-1.25,0-2.51.08-3.76.13l.05-.13c-.18-.19-.35-.19-.52,0-.31,0-.61.02-.92.02-.48-.29-.95-.25-1.42.02-.91.29-2.01-.44-2.8.52-1-.66-2.07-1.25-2.06-2.69.05-4.4.34-8.81.05-13.18-.29-4.4,1.86-7.22,4.98-9.75,5.19-4.21,10.16-8.63,13.72-14.4,4.77-7.74,5.72-16.46,6.52-25.22.65-.87.32-1.88.37-2.83.46-4.06,1.09-8.11,1.01-12.5,2.19,1.13,4.22,1.47,6.35,1.03,3.56.37,4.02.18,4.44-3.63.28-2.5,1.23-3.18,3.66-3.01,3.51.24,7.05.06,10.58.06,4.25-.01,8.51-.02,12.76-.03.32,0,.64,0,.96,0,2.2-.01,4.4-.03,6.6-.04.32,0,.65,0,.97-.01.31-.03.61-.05.92-.08.6.08,1.21.16,1.81.24.72.71.72,1.7.95,2.58,1.01,3.8,2.89,4.92,6.86,4.01,1.7-.28,1.6.9,1.73,2.02.95,8.24,1.68,16.51,3.27,24.67,1.13,5.77,3.96,10.66,7.81,15.03.48.55.99.99,1.73,1.12,1.62,3.55,5.34,4.83,7.96,7.3,2.62,2.47,6.29,3.75,8.11,7.13.09.42.18.85.27,1.27Zm-76-14.01c.08.22.16.45.24.67,7.15,8.47,22.39,9.44,31.11,1.71,10.48-7.51,11.05-22.3,1.21-31.68-.79-.75-1.7-1.36-2.55-2.04-3.62-2.86-7.69-4.57-12.33-4.76-2.16-.8-4.26-.04-6.36.28-.41.06-.24.48-.22.77-.51,0-1.02.02-1.53.02-.99-.12-1.91-.07-2.46.95h.01c-.52-.24-.86-.12-.96.48h.02c-.65-.35-1.04.1-1.44.48l.02-.02c-.3.02-.49.15-.5.48h0c-5.71,3.09-8.89,8.02-10.3,14.22-1.18,6.42.37,12.12,4.56,17.11.18.12.35.25.53.37,0,0-.02-.02-.02-.02.17.17.34.34.51.51l-.03-.04c.17.17.34.34.5.51l-.02-.02Zm47.91-16.69s.1.09.15.14c.04-.13.09-.25.11-.39,0-.04-.1-.09-.16-.15-.04.13-.09.26-.1.39Z"/><path class="cls-11" d="m83.58,143.5c-.03,3.53,0,7.06.49,10.59,0-6.97,0-13.94,0-20.91.79-.02,1.58-.04,2.37-.05.06,6.44.09,12.87.19,19.31.04,2.35.24,4.7.36,7.04.09,5.24,2.42,9.45,5.98,13.12,3.16,3.26,6.74,6.1,9.26,10,5.69,8.81,3.32,19.85-5.61,25.5-.65.41-1.48.6-1.77,1.45-.77.06-1.44.3-1.88.98-.14.01-.27.04-.41.08-5.66,2.82-11.79,3.11-17.93,3.23-5.35.11-10.7.02-16.05.06-.81,0-1.77-.35-2.36.61-.5-.04-1-.09-1.5-.13,0-.69-.49-1.13-.81-1.67-5.45-9.26-4.52-21.78,2.08-29.57,2.85-3.36,6.66-5.43,10.09-8.04,4.33-3.3,7.76-7.14,8.23-13.07.38-4.72.16-9.41.27-14.11.09-3.85,0-7.7.04-11.55.03-2.94.36-3.23,3.24-3.26,1.1-.01,2.21.11,3.27-.3.28.05.56.1.84.15.21.09.42.18.64.27,1.06,3.35,1.01,6.8.98,10.26Zm2.53,26.33c1.65,3.69,4.36,6.69,6.63,9.98,3.24,4.7,6.13,9.52,5.96,15.51-.07,2.52-.37,5-1.81,7.19-.28.43-.65.92-.18,1.7,1.57-1.05,1.84-2.85,2.27-4.32,1.44-4.96.51-9.7-1.5-14.41-2.28-5.35-6.48-9.38-9.36-14.31-2.19-3.75-3.45-7.67-3.6-11.98-.01-.36-.13-.73-.2-1.09-.21.02-.42.05-.62.07-.26,4.08.76,7.93,2.43,11.65Zm-28.89,26.12c-.12.49.07.94.58,1.14.45.18.91-.08.94-.44.32-3.36,1.71-6.48,2.37-9.77-2.39,2.6-3.13,5.84-3.89,9.07Zm.75,9.27c.77.02,1.06-.71.93-1.36-.16-.78-.06-1.98-1.18-2-.79-.01-.56.96-.64,1.59.17.64-.35,1.73.9,1.77Zm38.11.25c-.02-.11-.37-.28-.49-.23-.18.07-.36.3-.41.5-.07.27.12.42.42.4.32-.11.56-.32.49-.67Z"/><path class="cls-5" d="m213.89,130.29c.8-1.45,2.22-1.03,3.37-.92,3.54.34,7.21-.07,10.5,1.78,2.91,1.64,3.33,3.88.88,6.17-1.06,1-.45,2.23-1.05,3.2.6,2.08,2.35,3.06,4.01,4.07,4.19,2.56,8.75,4.15,13.59,4.92,1.03-.12,1.91-.28,2.31-1.54,1.27-3.95,2.79-7.82,3.61-11.9-.45-3.02-.06-6.13-1.03-9.09-4.48-4.08-10.14-5.14-15.83-6.07-7.21-1.18-14.43-2.13-21.75-2.5-10.29-.53-20.59-1.08-30.89-.79-14.13.4-28.3.61-42.24,3.32-9.36,1.82-16.46,6.67-18.92,16.49-.89,3.57-1.04,7.29-.86,10.99,1.51.63,2.92,1.49,4.6,1.68,6.59.75,12.79-.35,18.53-3.76.25-1.4-.15-2.77-.22-4.16-.14-2.81-.63-5.72,1.63-8.06,1.09-2.42,3.13-3.21,5.6-3.39,1.03-.07,2.22.24,2.96-.86,1.48-2.75,4.73-3.33,7.08-1.27.71.14,1.42.27,2.13.41.94-.05,1.88-.13,2.83-.14,13.16-.02,26.31-.02,39.47-.03,2.24-1.94,4.82-2,6.66-.16.3.02.6.05.91.07.21-.19.36-.14.45.12.3.16.6.31.9.47.18.18.36.36.54.54.02.17.1.3.24.39Z"/><path class="cls-10" d="m115.27,253.61c-10.24,0-20.48,0-30.72.01-.52,5-1.42,9.96-1.4,15,3.39-.05,6.78-.16,10.12.52,2.67.54,3.38,1.71,2.88,4.38-.49,2.62-.98,5.25-1.46,7.88.63.36.47.88.36,1.44-1.39,6.97-2.58,13.99-4.23,20.9-.92,3.87-.91,7.92-2.47,11.66-.38.91-1.07,1.69-1,2.83.19,3.42-1.17,6.61-1.88,9.86-.96,4.33-1.63,8.74-2.89,13-.57,1.92.05,4.38-2.28,5.6-2.21,8.48-4.41,16.96-6.63,25.44-.96,3.67-1.4,3.96-5.2,3.7-11.43.03-22.85.05-34.28.09-1,0-2.03-.17-3.07.24,1.26.98,245.23,1.28,247.86.37,0-.23,0-.46,0-.69-14.22,0-28.45,0-42.67,0-2.14.03-4.28.06-6.42.09l-1.99.08c-.94-.04-1.89-.11-2.83-.11-47.53,0-95.05.02-142.58.03-2.21,0-4.41-.07-6.62-.04-1.23.02-1.49-.43-1.11-1.57.96-2.91,1.78-5.87,2.76-8.77,8.75-25.75,17.55-51.49,26.27-77.25,3.9-11.53,7.66-23.12,11.48-34.68Z"/><path class="cls-13" d="m227.89,376l1.99-.08c-.08-.39-.13-.78-.24-1.16-9.75-33.33-17.6-67.14-25.25-100.99-.77-3.39.32-4.89,3.84-5.02,2.9-.11,5.82-.02,8.73-.02.22-.15.44-.29.67-.44-.55-4.87-1.52-9.69-1.74-14.59-10.5-.02-21-.04-31.5-.05,1.1,3.1,2.18,6.21,3.31,9.3,6.33,17.35,12.7,34.68,19.02,52.04,6.98,19.2,14.45,38.22,20.7,57.68.34,1.07,1.06,2.12.48,3.34Z"/><path class="cls-6" d="m216.96,268.73c-2.91,0-5.82-.09-8.73.02-3.52.13-4.61,1.63-3.84,5.02,7.65,33.86,15.5,67.66,25.25,100.99.11.38.16.77.24,1.16,2.14-.03,4.28-.06,6.42-.09-.04-.13-.07-.26-.1-.39-1.34.12-1.26-.89-1.35-1.73-.82-7.96-2.59-15.77-3.89-23.65-1.7-10.28-3.4-20.56-5.25-30.82-1.74-9.64-3.31-19.31-4.98-28.96-1.24-7.18-2.52-14.36-3.78-21.54Z"/><path class="cls-6" d="m94.69,281.4c.49-2.63.97-5.25,1.46-7.88.5-2.67-.21-3.84-2.88-4.38-3.34-.68-6.74-.57-10.12-.52-.64,3.85-1.16,7.73-1.93,11.56-1.4,6.91-1.67,13.97-2.91,20.91-1.21,6.77-1.82,13.65-2.79,20.46-.79,5.58-1.91,11.12-2.55,16.71-.78,6.84-2.22,13.58-2.7,20.47-.28,4.03-1.16,8.03-1.94,12.01-.34,1.75-.48,3.41.12,5.09,3.8.27,4.24-.03,5.2-3.7,2.22-8.48,4.42-16.96,6.63-25.44.42-2.05.81-4.11,1.28-6.14,1.8-7.81,3.7-15.6,5.43-23.43,2.63-11.89,5.14-23.81,7.7-35.72Z"/><path class="cls-4" d="m114.06,55.59c3.93-.45,7.56-2.06,11.4-2.92,6.38-1.43,12.81-2.31,19.33-2.82,4.89-.39,9.76-.47,14.63-.33,15.58.47,30.72,3.27,45.4,8.67,11.45,4.21,22.25,9.63,32.26,16.55,6.07,4.19,11.82,8.83,17.18,13.95,8.33,7.97,15.62,16.81,21.88,26.43,5.88,9.03,10.52,18.73,14.15,28.92,3.63,10.19,5.82,20.67,7.13,31.38.95,7.82,1.19,15.68.85,23.53-.47,11-2.14,21.84-5.17,32.48-3.12,10.95-7.41,21.39-13.06,31.24-4.73,8.24-9.72,16.34-16.25,23.36-.54.58-1.28,1.22-.54,2,.86.91,1.41-.1,1.89-.61,4.69-4.91,8.76-10.33,12.35-16.04,6.12-9.73,11.27-19.98,15.1-30.86,3.27-9.3,5.36-18.86,6.71-28.61,1-7.17,1.6-14.37,1.35-21.6-.55-16.25-2.99-32.16-8.54-47.55-4.13-11.47-9.62-22.19-16.49-32.22-6.14-8.97-13.26-17.1-21.11-24.66-7.94-7.65-16.89-13.88-26.29-19.41-8.53-5.02-17.65-8.95-27.13-12-9.39-3.02-18.94-5.23-28.73-6.28-8.84-.94-17.68-1.37-26.6-.75-9.63.67-18.99,2.49-28.23,5.14-.5.14-1.08,0-1.62,0-1.56.43-1.35,1.94-1.85,3.02Z"/><path class="cls-7" d="m255.44,130.23c2.51.75,4.28,3.9,4.06,6.59-.31,3.8.15,4.48,3.84,5.74.52.18,1.08.28,1.56.53,1.34.7,3.63,1.3,3.78,2.22.41,2.62,1.76,4.87,2.27,7.41.22,1.07-.1,2.93,2.2,2.16.56-.19.74.89,1.14,1.32,2.72,2.94,2.54,7.41,5.45,10.23.04.04.08.17.06.19-1.81,1.61.11,3.01.34,4.45.88,5.41,2.07,10.77,2.97,16.18.48,2.9,1.12,5.79,1.06,8.79-.05,2.87.07,5.76.21,8.62.52,11.06-.18,21.98-2.28,32.87-.37,1.91-1.59,3.27-1.82,5.06-.33,2.55-1.97,4.64-2.32,7.27-.16,1.21-.86,3.17-2.44,4.06-.13-.17-.26-.35-.39-.52-.39-1.91-2.02-2.72-5-2.4.55,1.15,1.99.8,2.64,1.65-.17.36-.34.72-.52,1.07-1.22-.02-2.31-.93-3.59-.51l-.63-.07c.07-1.27.68-2.35,1.21-3.48.91-1.96,2.27-3.77,2.54-5.97.27-2.21,1.28-4.19,2.04-6.19.47-1.24.22-3.08,1.87-3.81,1.85,0,3.56,1.05,6.08.82-2.15-1.67-4.26-1.21-6.11-1.64-.87-2.26-.44-3.94,1.23-4.76,1.19,1.26,2.81,1.31,4.31,1.26.91-.03.33-1.03-1.11-1.28-.77-.13-1.54-.26-2.31-.37-.23-.04-.47-.04-.7-.05-.74-.77-.67-1.58-.1-2.4,1.49,1.46,3.49,1.32,5.32,1.74-1.53-1.3-3.46-1.61-5.27-2.21-.89-1.38-.58-2.96-.37-4.36.38-2.54-.47-5.32,1.37-7.6,1.56.59,3.08,1.4,5.2.81-1.75-1.24-3.43-1.1-5.09-1.04-1.82-2.43-1.75-3.29.35-4.33,1.57-.41,2.99.97,5.13.21-2.15-1.23-4.05-.42-5.83-.57-1.93-.95-.09-1.15.32-1.64,1.53-.02,2.98.8,4.58.29-1.52-.54-2.93-1.66-4.72-.68-.29-2.42-1.61-4.8-.24-7.27,1.27.64,2.68.69,4.05.89.44.07,1.06,0,1.11-.55.06-.64-.56-.64-1-.62-1.39.03-2.78.11-4.16.18-.85-.6-1.14-1.49-1.09-2.45.08-1.47.27-2.93.42-4.39,1.7.24,3.29,1.74,5.13.47-1.68-.34-3.28-1.08-5.04-.82-.47-.54-.07-1.1-.05-1.65,1.55.24,3.09.42,5.31-.03-2.13-1.1-3.71-.64-5.24-.65-.95-.48-2.18-.89-.51-2.03,1.57-.07,3.08,1.06,5,.2-1.65-1.1-3.28-.77-4.82-.86-.63-.33-1.58-.33-1.68-1.2-.05-.49.67-.4,1.06-.54h5.09c-1.54-1.62-3.38-.63-5.08-.77-1.57-.34-.52-1.37-.57-2.12,1.78.35,3.47-.34,5.21-.48-1.78-.78-3.54-.71-5.3.12-1.78-.98-.97-2.81-1.37-4.24,1.82-.37,3.65-.73,5.47-1.1-1.89-1.06-3.6.02-5.38.22-.65-.59-1.27-1.18-.39-2.06,1.78.2,3.54.26,5.69-1.22-2.35.17-4.07.3-5.78.43-.99-1.1-1.54-2.23-.33-3.53,1.65-.06,3.16-.56,5.21-1.56-2.4-.34-3.87.49-5.34,1.29-2.54-.55-1.85-2.61-2-4.28,1.8-.48,3.74-.69,5.6-2.63-2.56.38-4.1,1.54-5.84,2.19-.44-1.27-.89-2.54-1.33-3.82,2.24.69,3.44-1.2,5.04-2.09-1.71.52-3.54.75-4.93,2.08-.94-.35-1.38-.94-.89-1.95,1.35-.53,2.69-1.06,4.04-1.59-.07-.21-.13-.43-.2-.64-1.51-.07-2.82.53-3.91,1.83-1.92-.08-1.1-1.19-.55-1.83,1.62-1.87,1.08-3.25-.27-5.13-.85-1.19-2.16-1.64-2.91-2.83-2.25-3.54-3.63-3.8-7-1.56.07-.54.15-1.09.22-1.63l.18-1.26c-.22-.26-.39-.24-.5.09l-.04.89c-.64-2.48.34-5.01-.32-7.53-.92-3.54-2.74-6.37-5.65-8.61-.66.87,0,1.4,0,1.99-1.33,1.42.02,3.38-1,4.86-.45-3.02-.06-6.13-1.03-9.09,2.31.2,3.24,2.61,5.37,3.24Zm21.12,117.41c-.66-1.63-2.39-1.49-3.72-1.96-.39-.14-1.16.19-.91.72.71,1.53,2.51,1.29,3.57,2.02.67-.05,1.3-.22,1.07-.78Zm.5-2.73c.29.17.68.03.7-.34.01-.26-.17-.7-.37-.77-1.34-.46-2.54-1.43-4.26-1.42.86,1.81,2.65,1.79,3.93,2.54Zm-2.7-5.48c1,1.89,2.02,2.4,5.05,2.49-1.84-.94-3.21-1.96-5.05-2.49Zm4.01-36.17c1.46.72,2.97,1.21,5.29,1.2-1.97-1.67-3.59-1.62-5.29-1.2Zm1.43,6.54c-.48-.11-1.01.02-1.12.55-.15.73.53.58.92.65,1.12.2,2.25.36,3.75.59-1.12-1.45-2.38-1.53-3.55-1.79Zm2.56,14.19c-1.48-1.19-2.83-1.62-4.94-1.41,1.67,1.42,2.97,1.97,4.94,1.41Zm-6.79-44.95c1.54.62,3-.14,4.49-.43-1.61-1.13-3.02-.07-4.49.43Zm.08,51.39c2,1.65,3.72,1.52,5.46,1.18-1.5-1-3.2-.83-5.46-1.18Zm2.81-36.66c-.38-.07-.85.1-.86.58-.01.6.48.48.85.42,1.18-.18,2.3.64,4.17-.08-1.78-.4-2.96-.7-4.15-.92Zm4.84,22.39c-1.93-1.08-3.41-1.27-5.66-.67,2.13.64,3.59,1.02,5.66.67Zm-5.13,1.79c1.43.66,2.85,1.35,4.97.54-1.95-.96-3.45-.79-4.97-.54Zm-.13,2.21c1.57.92,2.94,1.72,5.23,1.02-2.01-.75-3.4-1.37-5.23-1.02Zm-.82-54.39c-1.75-.03-3.21.77-4.57,1.8,1.71-.15,3.22-.75,4.57-1.8Zm-3.89,5.37c2.21,1.04,3.68.85,5.59-.79-2.07.29-3.53.5-5.59.79Zm1.58,67.09c1.74.36,2.91,1.14,4.36.61-1.22-.64-2.42-1.54-4.36-.61Zm-4.38,10.65c1.83,1.03,3.11,1.63,4.89,1.19-1.49-.63-2.76-1.29-4.89-1.19Zm7.73-47.99c1.39.92,2.91.78,4.41.52-1.42-.96-2.92-.7-4.41-.52Zm2.6,35.67c-2.05-1.15-3.66-1.09-5.32-.81,1.45.85,3,1.14,5.32.81Zm-29.1-107.23s.14-.11.13-.14c-.02-.1-.09-.2-.14-.29-.05.05-.1.09-.16.15.06.1.11.2.16.29Z"/><path class="cls-4" d="m54.26,78.8c-.25,1.56-1.67,2.22-2.56,3.28-.94,1.11-2.3,1.9-2.4,3.82-2.29-2.18-4.81-3-7.42-3.59-1.38-.31-3.05-.74-3.81.83-.83,1.71-.62,3.57.84,5.01.66.65,1.5,1.12,2.47,1.83-1.45.65-2.53,1.5-3.51,2.46-.38.38-.98.9-.93,1.29.4,3.65-2.32,5.7-4.22,8.05-9.48,11.7-17.08,24.48-22.47,38.55-3.84,10.01-6.41,20.37-8.03,30.97-1.39,9.13-1.82,18.33-1.31,27.5.58,10.49,2.16,20.84,4.86,31.08,3.47,13.13,8.96,25.31,15.9,36.87,4.41,7.35,9.67,14.12,15.27,20.61.55.64,1.28,1.49,2.16.73.95-.83.03-1.53-.52-2.17-8.81-10.13-16.17-21.17-22.06-33.26-5.79-11.91-9.6-24.39-11.76-37.37-.95-5.7-1.38-11.51-1.72-17.32-.79-13.62.96-26.95,3.97-40.14,1.91-8.36,4.86-16.41,8.41-24.23,4.44-9.78,9.94-18.91,16.55-27.36,1.84-2.35,3.81-4.6,5.71-6.9,1.21-1.46,2.57-2.36,4.65-2.19,1.93.16,3.63-.85,5.24-1.88,0,0,.03,0,.03,0,.47-.47.95-.94,1.42-1.41.04-.19.09-.37.13-.56.79-1.52,2.09-2.84,1.35-4.85-.28-.76.49-.44.87-.42.2-1.8,1.18-3.12,2.43-4.37,1.26-1.26,2.99-2.01,3.9-3.63-.35-.74-.21-2.37-1.38-1.78-.74.37-1.46.14-2.06.54Z"/><path class="cls-1" d="m87,159.47c.09,5.24,2.42,9.45,5.98,13.12,3.16,3.26,6.74,6.1,9.26,10,5.69,8.81,3.32,19.85-5.61,25.5-.65.41-1.48.6-1.77,1.46.07.68.14,1.43-.63,1.73-.6.23-.84-.49-1.25-.75-.14.01-.27.04-.41.08-1.08,3.16-1.51,6.62-5.72,7.63-3.96.95-6.47,4.31-6.57,7.94,2.06-.03,4.12-.05,6.19-.08.27-.89.85-1.58,1.76-1.7,2.6-.35,4.47-2.25,6.84-3.08,2.05-.72,2.71-3.63,5.43-3.41.65.05.5-.65.19-1.05-.39-.52-.76-1.01-.13-1.73.68.38,1.75,1.69,1.88,1.19.37-1.44,1.76-1.65,2.46-2.65,1.82-2.59,1.78-6.11,4.32-8.29.58-.5.49-1.02-.04-1.6-.39-.43-.71-1.08.39-.97.84.09.92-.32.79-.99-.81-4.03,1.76-6.59,4.05-9.27-1.89-6.55-6.62-10.82-12.04-14.27-5.61-3.57-10.1-7.74-11.32-14.59-1.78-.42-1.33-1.95-1.56-3.14-1.83.04-.61-2.05-1.79-2.58-.25.54-.47,1.02-.69,1.5Z"/><path class="cls-13" d="m135.12,220.45c-.31,0-.61.02-.92.02-.47,0-.94.01-1.42.02-.91.29-2.01-.44-2.8.52.06.05.1.13.17.16q3.19,1.18,2.85,4.88c8.73.03,17.47.08,26.2.08,26.6,0,53.2-.04,79.81-.06.07-1.52.13-3.05.2-4.57-1-1.35-2.74.09-3.8-1.01h-5.65c-.95.73-1.91.73-2.87,0-.46,0-.93,0-1.39,0-.32.42-.65.42-.97,0l-.23-.04-.23.05c-.94.72-1.89.72-2.84.01-.29-.11-.58-.22-.86-.33-.66.13-1.31.26-1.97.39,0,1.59-1.21,1.55-2.17,1.36-3.76-.74-7.49,0-11.23.02-10.22.05-20.44,0-30.67.03-.93,0-1.87.15-2.8.25-4.44.47-8.71,1.85-13.11,2.51-7.26,1.09-14.59.37-21.88.51-1,.02-2.16-.06-2.67-1.11-.54-1.11.45-1.65,1.11-2.32.31-.31.42-.81.61-1.23,0,0,.05-.13.05-.13-.17,0-.35,0-.52,0Z"/><path class="cls-8" d="m119.63,149.84c-.3,3.7.31,7.32.77,10.97.21,1.66,1.03,2.39,2.55,2.48,8.56.51,16.91-.14,24.51-4.68-.88-3.02-1.73-6.04-2.64-9.05-.22-.73-.37-1.56-1.24-1.91-.78.38-1.54.78-2.33,1.12-7.07,3.07-14.23,4.39-21.62,1.07Z"/><path class="cls-13" d="m213.89,130.29c-.14-.09-.22-.22-.25-.39-.18-.18-.36-.36-.53-.54-.3-.16-.6-.31-.9-.47-.15-.04-.3-.08-.45-.12-.3-.02-.6-.05-.91-.07-.94,1.06-1.22,2.26-1.05,3.67.36,3.09.87,6.14,1.64,9.16,1.7-.28,1.6.9,1.73,2.02.95,8.24,1.68,16.51,3.27,24.67,1.13,5.77,3.96,10.66,7.81,15.03.48.55.99.99,1.73,1.12-3.42-5.28-3.74-11.42-4.72-17.35-1.42-8.6-2.55-17.25-3.85-25.87-.25-1.67-.28-3.42-1.78-4.72-1.11-.96-.67-1.55.72-1.68,2.53-.25,5.03.14,7.55.3,1.47.09,1.99,1.57,3.32,2.63-.29-1.46-.87-2.26-1.44-3.06-.53-.28-1.06-.56-1.59-.85-2.7-.63-5.44-.75-8.2-.74-.69,0-1.47.08-1.75-.83-.1-.53-.2-1.07-.31-1.6-.09-.1-.1-.2-.05-.32Z"/><path class="cls-8" d="m227.03,142.49c-1.41,2.34-2.84,4.67-4.24,7.02-1.69,2.82-1.59,3.84,1.12,5.86,5.32,3.97,11.39,6.11,17.94,6.97,1.85-3.71,3.73-7.4,4.35-11.57-7.26-.74-13.73-3.31-19.16-8.28Z"/><path class="cls-2" d="m114.06,55.59c.5-1.08.29-2.59,1.85-3.02-.32-.01-.52-.15-.49-.5-1.78.02-2.73-1.7-4.33-2.07.14.43.29.86.43,1.29,1.78,1.07,2.58,2.39,1.13,4.32-.23.31-.38.68-.57,1.02-1.27,5.04-3.43,9.8-4.52,15.27-1.4-1.68-2.36-3.07-2.52-4.88-.23-.8-.47-1.59-.7-2.39-.25.14-.51.28-.76.42.11.36.21.71.32,1.07.12.11.13.23.04.36-.13.92-1.4,1.25-1.23,2.33.4-.32.83-.45,1.28-.13,1.85,1.29,3.09,4.8,2.54,7.06-2.08,8.59-5.52,16.69-9.05,24.92-1.59-2.22-1.77-4.72-1.97-7.2-.51-6.41-3.26-11.7-8.28-16.46.14,7.22.71,13.83,4.87,19.59.39.54.98,1.03,1.57.88,1.15-.29,1.07.59,1.51,1.15,1.94,2.47,1.12,4.59-.22,7.06-3.94,7.25-7.61,14.65-11.43,21.96-.28.53-.16,1.78-1.44,1.26-.84,1.05.39,1.4.7,2.07,3.3-4.9,5.74-10.27,8.49-15.47,1.95-3.68,3.82-7.4,5.75-11.1,1.32-2.53,2.55-2.93,5.29-1.82.34.14.77.09,1.15.12.58-.39.47-.77-.01-1.15-1.38-.55-.8-1.49-.49-2.38-.32-.03-.64-.06-.96-.09-.66,1.13-1.21,2.41-3.12,2.01,2.38-6.14,4.74-12.22,7.09-18.3-.09-.59-.3-1.2.33-1.64.67-2.3,1.34-4.6,2.01-6.9.26-.89.46-1.85,1.75-1.69-.03-.45.29-1.11-.68-.95-.62.1-.77-.26-.49-.8,1.3-5.22,3.28-10.21,5.19-15.23Z"/><path class="cls-13" d="m227.03,142.49c5.43,4.97,11.9,7.54,19.16,8.28,3.25.04,3.35.12,2.36,3-.84,2.42-1.82,4.8-2.72,7.2-.36.97-.91,1.78-1.81,2.33,1.87.24,3.77.36,5.6.76,1.83.4,2.71-.21,3.36-1.92,1.68-4.41,3.18-8.87,4.56-13.38.16-.51.44-.99.66-1.48.07-.54.15-1.09.22-1.63-.13-.08-.25-.17-.36-.27-.64-2.48.34-5.01-.32-7.53-.92-3.54-2.74-6.37-5.65-8.61-.66.87,0,1.4,0,1.99.62.7.54,1.6.64,2.43.53,4.21-.54,8.2-1.73,12.17q-1.32,4.39-5.84,3.7c-4.84-.78-9.4-2.36-13.59-4.92-1.66-1.01-3.41-2-4.01-4.07-.96.44-.76,1.21-.55,1.97Z"/><path class="cls-5" d="m54.29,18.79c-3.8,2.88-2.5,6.25-.71,9.82-1.48-.14-2.7-.26-3.93-.37-1.64-.15-2.83.51-3.22,2.12-.36,1.48.1,2.76,1.44,3.68,3.33,2.31,7.02,2.59,10.86,2,1.01-.16,2.01-.36,3.04-.32-.03-.1-.11-.14-.21-.12-.1-.33.01-.58.3-.75.13-.12.26-.24.39-.35-.15-.04-.35-.04-.43-.13-.15-.19-.04-.33.18-.23.12.05.18.24.26.36,1.87-.46,2.69-2.11,3.85-3.37-.16-.52-.39-1.03-.48-1.56-.55-3.11-1.21-6.15-3.99-8.19-.96-.71-.47-1.71-.28-2.61,0,0,0,0,0,0-.69.01-1.31-.09-1.43-.95-.73-.43-1.53-.51-2.36-.43-.35,2.19-1.93,1.52-3.27,1.4Z"/><path class="cls-7" d="m249.13,287.08c.29-4,3.48-6.46,5.42-9.51.76-1.2,1.19-2.35,1.58-3.59.15-.46-.26-1.07.25-1.53,2.93-2.65,4.38-6.22,5.95-9.7.49-1.09.83.02,1.22-.08.71,2.48,2.93,2.15,4.7,2.65-1.17-1.52-3.24-1.36-4.57-2.59-.33-2.12.43-3.63,2.48-4.42,1.15.5,2.29,1.01,3.44,1.49.45.18,1.01.24,1.19-.33.17-.54-.31-.92-.75-1.01-1.29-.26-2.59-.42-3.89-.62-.77-1.63,1.43-2.34,1.18-3.8.44,0,.88,0,1.32,0,.13.16.25.33.38.49-.33.32-.65.64-.98.96-.33.19-.42.66-.19.74,1.53.58,2.96,1.58,4.73,1.22.39-.02.79-.03,1.18-.05-.81,3.12-2.04,6.02-4.23,8.47-.39.43-.52,1.13-.65,1.74-.58,2.79-2.59,4.77-4.16,6.94-.63.87-1.31,1.67-1.7,2.69-.73,1.93-1.65,3.71-3.03,5.31-1.29,1.51-2.85,3.34-3.33,4.9-.71,2.29-1.89,2.49-3.59,2.73-1.38-.96-3.46-1.02-3.95-3.1Zm10.55-16.25c.1.09.2.18.3.28.1.5.52.49.89.54.8.73,1.78.99,3,1.37-.54-1.56-1.85-1.24-2.68-1.74-.31-.17-.63-.33-.94-.5-.19.02-.38.04-.57.05Zm2.75-1.11c-.54-.22-.94-.82-1.62-.61-.1.03-.2.44-.12.56.38.62,1.05.43,1.63.52.73.73,1.59,1.14,2.77.87-.82-.4-1.65-.81-2.47-1.21-.06-.05-.11-.11-.18-.13Zm4.4-9.22c-.67-.25-1.25-.26-1.54.48-.28.73.17,1.26.78,1.47,1.14.38,2.29,1.01,3.73.4-.66-1.45-1.8-1.9-2.96-2.34Zm-4.13,14.08c-1.43-1.08-2.84-2.23-4.87-1.56,1.55.73,3.03,1.68,4.87,1.56Zm-8.27,5.01c-.14-.04-.47.17-.52.32-.15.45.17.79.52.92,1.2.46,2.42.85,3.92,1.37-.71-2.19-2.45-2.22-3.92-2.61Zm2.66-2.46c-.38-.19-.79-.2-.98.25-.2.47.13.69.54.81,1.19.32,2.2,1.38,4.33.91-1.7-.86-2.8-1.42-3.9-1.96Zm-6.41,8.27c.59,2.06,2.24,2.9,3.74,1.9-1.25-.63-2.46-1.25-3.74-1.9Zm13.73-18.89c0,.75.54.85,1.12.84.43-.01,1.04.1,1-.59-.03-.65-.56-.86-1.15-.91-.49-.02-.98-.01-.97.66Z"/><path class="cls-14" d="m102.95,99.18c-.32.89-.89,1.84.49,2.38,2.19-.06,4.4,0,6.56-.48,3.37-.61,6.58-1.74,9.81-3-1.11,1.9-3.05,2.85-4.53,4.29,3.23.73,5.72-1.23,8.2-2.59,2.73-1.5,4.85-3.94,7.01-6.23.89-.94.73-1.45-.5-1.72-.38-.08-.77-.23-1.15-.23-5.94.06-11.93-.69-17.8.91-.7.19-1.32.47-1.89.9-1.93,2.07-4.73,3.21-6.21,5.76Z"/><path class="cls-2" d="m54.26,78.8c.6-.4,1.32-.16,2.06-.54,1.17-.59,1.03,1.04,1.38,1.78,2.55,4.19,3.91,8.92,6.63,13.68-4.2-1.12-7.8-2.12-11.42-3.01-.95-.23-1.2-.82-1.42-1.58l-.13-1.16s0,.06,0,.06c-.38-.02-1.15-.34-.87.42.75,2.01-.56,3.33-1.35,4.85,3.16-2.71,6.28-.78,9.42.06.68.18,1.38.48,2.07.47,3.46-.05,4.87,2.21,5.96,5,.46,1.18.43,1.66-.98,1.76-2.2.16-4.39.48-6.6.31-2.15.51-4.44.12-6.53.94,2.5.12,4.98.11,7.46.13.62,0,1.52-.28,1.4.91.7-.31,1.36-.73,2.09-.91,4.08-1.01,4.16-.97,5.96,2.95,2.75,5.99,5.46,12,8.21,18,.21.45.53.86.97,1.56.73-1.38.09-2.23-.3-3.07-5.58-12.12-11.1-24.26-16.82-36.31-1.01-2.13-1.09-3.71.36-5.5.93-1.15,1.67-2.47,2.49-3.71-.32-.74-.82-.85-1.48-.43-.94,1.74-2.28,3.22-2.91,5.13-1.32-1.63-2.11-3.27-2.37-5.13-1.93-2.94-2.93-6.29-4.19-9.52-.27-.69-.27-1.31.55-1.75,1.07-.59,1.46-1.55,1.15-2.76-2.72,2.95-2.83,2.99-6.2.95-.92-.56-1.73-1.31-2.59-1.98-.15,1.99,1.21,2.8,2.77,3.23,1.95.54,2.9,1.74,3.52,3.62.96,2.88,2.25,5.66,3.35,8.5.17.43,1.06,1.52-.58,1.08-.53.53-1.05,1.07-1.58,1.6.18.12.36.23.54.35Z"/><path class="cls-8" d="m216.96,268.73c1.26,7.18,2.54,14.36,3.78,21.54,1.67,9.65,3.24,19.32,4.98,28.96,1.85,10.26,3.55,20.54,5.25,30.82,1.3,7.88,3.07,15.69,3.89,23.65.09.84,0,1.85,1.35,1.73-.06-4.88-1.19-9.62-1.98-14.4-2.56-15.45-5.19-30.89-7.84-46.33-1.76-10.27-3.6-20.52-5.39-30.78-.74-4.24-1.4-8.5-2.19-12.73-.19-1.01-.05-2.24-1.18-2.9-.22.15-.44.29-.67.44Z"/><path class="cls-2" d="m62.25,34.5c1.87-.46,2.69-2.11,3.85-3.37.28,0,.56,0,.84-.01.19.74.12,1.43-.55,1.91-1.41,1.01-.68,1.64.28,2.45,3.61,3.06,6.8,6.55,10.14,9.89,1.07,1.07,1.68,2.59,3.86,3.69,0-4.67,0-8.88,0-13.09,0-1.03.03-2.04.71-2.9,1.33.12,1.72-.91,2.17-1.81,1.58-3.15,3.14-6.32,4.25-9.68,1.03-2.83,2.95-5.33,3.16-8.47.32-.11.65-.21.97-.32.35.05.71.09,1.06.14,0,.28-.01.57-.02.85-1.69,1.94-2.05,4.54-3.31,6.68-2.23,3.8-3.01,7.49.2,11.16.4.46.28,1.25.97,1.67.68-.28.82-1.04,1.23-1.57-.07.66-.13,1.33-.2,1.99,0,.16,0,.32.01.49.11-.05.23-.1.34-.15,3.12-.47,6.11-1.45,9.07-2.5-.32,1.1-1.13,1.63-2.18,1.92-1.59.44-3.14,1.07-4.75,1.37-2.02.38-3.26,1.38-4.12,3.29-1.98,4.38-4.91,8.18-7.93,11.89-.85-.14-1.59.2-2.34.51-3.65-4.17-7.55-8.09-11.47-12.01-1.96-1.96-3.78-3.58-6.75-2.8-.03-.1-.11-.14-.21-.12.3-.17.36-.44.3-.75.13-.12.26-.24.39-.35,0,0,.01,0,.01,0Zm26.91,3.57c.98-1.8,1.28-3.41.18-5.27-.95-1.6-1.68-3.34-2.6-5.21-1.5,2.5-2.52,4.98-4.35,6.95-.24.26-.35.72-.35,1.09-.02,4.27-.02,8.54-.02,12.98,2.56-3.5,5.1-6.84,7.13-10.55Z"/><path class="cls-8" d="m111.09,50c1.6.37,2.55,2.09,4.33,2.07,3.24-.74,6.45-1.53,8.59-4.39.55-.73,1.55-1.42.95-2.45-.65-1.11-1.82-1.06-2.96-.77-.21.05-.44.03-.67.04-.42-.74.07-1.41.08-2.09.02-1.61.14-3.35-1.7-4.01-1.81-.65-3.59-.23-5.03,1.13-.51.48-.86,1.12-1.28,1.68-.42.57-.73,1.29-1.54.28-.62-.78-1.61-.68-2.37-.2-.82.52-.91,1.47-.73,2.34.45,2.24,1.04,4.43,2.32,6.37Z"/><path class="cls-5" d="m102.69,68.82c-.17-1.08,1.1-1.41,1.23-2.33-.14-.11-.15-.22-.04-.36-.11-.36-.21-.71-.32-1.07-.7-1.55-1.41-3.1-2.11-4.65-.75.16-1.17-.3-1.53-.84-.83-1.22-1.98-1.97-3.41-1.41-1.53.6-3.12,1.52-3.18,3.39-.04,1.35-.3,1.44-1.56,1.3-1.72-.2-3.98-.62-4.61,1.63-.58,2.12.83,3.85,2.65,4.79,3.89,2.01,7.88,2.5,11.79-.1.31-.2.73-.24,1.1-.35Z"/><path class="cls-5" d="m62.82,75.49c.66-.43,1.16-.31,1.48.43,2.97.01,5.98.47,8.69-1.36.87-.58,1.66-1.21,2.31-1.99.83-.98,1.51-2.2.89-3.44-.61-1.23-2.01-.86-2.99-.65-1.8.39-2.16-.1-1.49-1.72.24-.57.4-1.2.48-1.82.27-2.22-.49-2.94-2.67-2.46-1.53.34-3.04.81-4.55,1.23,0,0-.09,0-.09,0-.84.98-1.69,1.97-2.53,2.95-.47,2.98-1.18,5.97.48,8.83Z"/><path class="cls-3" d="m94.85,225.99c1.56,0,3.13,0,4.69,0,1.98-2.03,4.85-2.64,7.03-4.43,2.02-1.67,3.77-3.44,4.95-5.77.49-.98.98-1.96,1.46-2.95,2.44-5.09,3.41-10.41,2.42-16.02-1.55,2.4-2.96,4.82-3,7.83-.03,1.8-1.15,3.25-2.35,4.45-.81.81-2.95.59-1.66,2.75.27.45-.44.41-.82.39-.53-.03-.79.26-.49.7.71,1.03.41,1.29-.74,1.32-.72.02-.99.68-.99,1.38,0,.75-.13,1.47-.87,1.79-2.54,1.09-3.94,3.66-6.56,4.78-1.32.57-3.03,1.73-3.07,3.78Z"/><path class="cls-3" d="m61.34,102.9c.12-1.2-.78-.91-1.4-.91-2.48-.03-4.96-.01-7.46-.13,2.09-.82,4.39-.43,6.53-.94-.13-.51-.52-.67-.97-.87-3.88-1.79-7.82-1.67-11.81-.43-1.83.85-3.19,2.24-4.27,3.9-.8,1.22-.56,2.18.86,2.81,3.85,1.72,7.76,2.95,12.03,1.69,2.53-.75,4.67-2.02,6.01-4.38.17-.25.35-.51.52-.76l-.04.04Z"/><path class="cls-7" d="m115.39,196.81c.99,5.61.02,10.93-2.42,16.02-.47.99-.97,1.97-1.46,2.95,2.56-1.42,3.3-4.09,4.21-6.51,3.77-10.12.24-23.27-9.26-30.04-2.81-2-5.63-4.01-8.3-6.19-3.55-2.9-5.63-6.54-5.65-11.34-.02-8.87-.26-17.74-.45-26.6-.01-.59.55-1.71-.88-1.6-.05,10.06-.09,20.13-.14,30.19,1.22,6.85,5.71,11.02,11.32,14.59,5.42,3.45,10.16,7.73,12.04,14.27.66,1.34.87,2.79.99,4.26Z"/><path class="cls-8" d="m46.25,60.43c.86.66,1.67,1.42,2.59,1.98,3.37,2.05,3.48,2.01,6.2-.95,1.89-2.59,1.94-5.34.15-7.67-.38-.49-.71-1.02-1.01-1.56-.81-1.47-1.59-3.08-3.67-2.59-2.07.49-3.13,2.04-3.29,4.07-.11,1.37.09,2.61-1.95,1.64-.61-.29-1.29.23-1.33.95-.06,1.03-.56,2.22.6,3.01.56.38,1.4.34,1.7,1.11Z"/><path class="cls-1" d="m46.23,99.61c3.99-1.25,7.92-1.36,11.81.43.45.21.84.36.97.87,2.21.17,4.4-.15,6.6-.31,1.42-.1,1.44-.58.98-1.76-1.09-2.79-2.49-5.05-5.96-5-.69,0-1.38-.28-2.07-.47-3.14-.84-6.26-2.78-9.42-.06-.04.19-.09.37-.13.56.09,1.04-.37,1.52-1.42,1.41,0,0-.03,0-.03,0,.45.68.43,1.24-.33,1.72-.97.61-1.09,1.58-1.01,2.61Z"/><path class="cls-13" d="m53.72,78.45c.53-.53,1.05-1.07,1.58-1.6-5.21-6.23-12.05-8.89-20.32-9.3,4.78,6.62,10.59,10.76,18.74,10.9Z"/><path class="cls-9" d="m81.39,33.07c1.33.12,1.72-.91,2.17-1.81,1.58-3.15,3.14-6.32,4.25-9.68-1.62-4.23-4.01-8.01-6.85-11.6-1.3,7.76-.21,15.42.44,23.09Z"/><path class="cls-9" d="m121.43,68.42c3.91-2.29,6.83-5.61,10.21-9.38-7.75,1.26-14.38,3.31-19.22,9.1-.16.24-.33.49-.49.73,0,0,.01-.04.01-.04,0,3.28.11,3.31,3.27,1.96,1.91-.82,3.63-2.11,5.77-2.37,0,0-.03.02-.03.02.16-.27.32-.21.48,0Z"/><path class="cls-4" d="m66.11,31.13c.28,0,.56,0,.84-.01,3.46-3.63,4.5-8.09,4.23-12.9-.08-1.46-1.26-2.39-2.82-2.22-2.02.22-3.19,1.54-3.65,3.43-.19.8-.03,1.69-.03,2.76-1.6-.91-1.7-2.92-3.33-3.41-.18.9-.68,1.9.28,2.61,2.78,2.04,3.44,5.08,3.99,8.19.09.53.32,1.04.48,1.56Z"/><path class="cls-9" d="m92.23,34.05c3.12-.47,6.11-1.45,9.07-2.5,2.12-1.11,3.05-3.2,4.09-5.15.84-1.56,1.84-3.05,2.29-4.79l.02.02c-4.71,2.19-9.47,4.31-13.78,7.24-.89.6-1.77,1.55-1.86,2.84-.07.66-.13,1.33-.2,1.99.12.11.24.22.35.34Z"/><path class="cls-3" d="m87,159.47c.22-.48.45-.97.69-1.5,1.18.53-.03,2.62,1.79,2.58.04-2.27-.08-4.53-.06-6.8.08-6.65.37-13.31-.14-19.96-.77-.98-1.89-.46-2.85-.66.06,6.44.09,12.87.19,19.31.04,2.35.24,4.7.36,7.04Z"/><path class="cls-2" d="m119.63,149.84c7.39,3.32,14.55,2,21.62-1.07.79-.34,1.56-.75,2.33-1.12,1.18-.93,1.92-2.43,3.58-2.75-.02-.76-.05-1.52-.07-2.29-.01-.19-.03-.38-.04-.57,0-.29-.01-.58-.02-.87-.3-4.34,1.49-6.46,5.76-6.85q.62-.06.38-1.33c-.34.01-.69.02-1.03.04-4.97.76-7.48,3.42-6.72,8.27.45,2.84-.78,3.91-2.69,5.05-5.74,3.4-11.95,4.5-18.53,3.76-1.67-.19-3.09-1.05-4.6-1.68.02.47.03.95.05,1.42Z"/><path class="cls-2" d="m235.4,220.48c1.06,1.1,2.8-.34,3.8,1.01.7.02,1.41.12,2.1.06,1.79-.14,3.01-1.01,3.01-2.93,0-5.25,0-10.51-.14-15.76-.04-1.58-.12-3.39-2.12-4.05.09.42.18.85.27,1.27q1.15,3.42-2.34,3.4c-6.6-.03-13.19-.06-19.79-.08-.13.04-.26.09-.38.16,0,.45,0,.9,0,1.35.14.04.27.07.41.09,7.14-.16,14.27-.3,21.41-.49,1.34-.04,1.28.79,1.29,1.7.01,3.92-.06,7.84.11,11.76.09,2.12-.95,2.59-2.7,2.51-1.64-.08-3.28-.36-4.92,0Z"/><path class="cls-14" d="m104.32,64.64c.23.8.47,1.59.7,2.39,1.67-.37,2.25-1.47,2.21-3.09-.05-2.18.14-4.38-.37-6.54-.19-.59-.39-1.18-.58-1.76-1.78-2.93-4.15-5.4-6.24-8.1-.27-.35-.55-.91-1.09-.48-.34.27-.18.7.14,1.01,1.78,3.11,2.43,6.6,3.37,10,.62,2.2,1.24,4.39,1.86,6.59Z"/><path class="cls-3" d="m147.16,144.91c-1.65.32-2.4,1.82-3.58,2.75.86.34,1.01,1.17,1.24,1.91.91,3.01,1.77,6.03,2.64,9.05,2.3.31,3.05-1.94,4.63-2.82-.99-3.92-3.05-7.36-4.93-10.88Z"/><path class="cls-9" d="m113.82,79.53c2.66,1.21,5.4.81,8.06.19,3.78-.88,7.1-2.69,10-6.04-6.15,1-11.93,1.49-17.1,4.41.07.74-.49,1.06-.96,1.44Z"/><path class="cls-7" d="m91.94,12.79c.35.05.71.09,1.06.14.26-.31.6-.37.98-.31l3.09-2.17c2.29-1.33,2.81-3.42,2.52-5.86-.49.1-.79.44-1.09.82-1.12,1.47-2.54,1.31-3.98.62-1.43-.69-2.09-1.79-1.54-3.4-.87.47-1.59,1.35-2.75.99.07,1.91-.19,3.78-.82,5.59-.05.21-.09.42-.14.63.89.98,1.78,1.96,2.68,2.95Z"/><path class="cls-13" d="m82.76,130.97c-.31-.66-1.54-1.02-.7-2.07-.11-8.37-.21-16.74-.32-25.11-.02-1.41-.05-2.82-.08-4.22-.62-.74-.42-1.63-.43-2.46-.02-4.28,0-8.56-.02-12.83,0-.8.32-1.78-.83-2.17.01,13.22-.18,26.45.33,39.67.4.31.41.63.02.96,0,.31.01.63.02.94.05.05.14.1.13.14-.02.12-.08.22-.13.34,0,.16,0,.32,0,.48.72.97.6,2.13.31,3.11-.17.57-.66-.91-1.27-.29.53,1.77,1.24,3.5,1.33,5.38.28.05.56.1.84.15.27-.67.53-1.34.8-2Z"/><path class="cls-12" d="m89.29,133.78c.5,6.65.21,13.31.14,19.96-.03,2.27.09,4.53.06,6.8.23,1.19-.22,2.72,1.56,3.14.05-10.06.09-20.13.14-30.19-.67-.15-1.31-.08-1.9.29Z"/><path class="cls-13" d="m82.32,50.02c-.85-.14-1.59.2-2.34.51.11.13.22.26.34.39.88.69,1.28,1.44.3,2.37-.38,4.15-.33,8.31-.16,12.47,1.05,1.07-1.1.88-.68,1.7.88,1.1.48,2.39.5,3.61.05,3.2.06,6.4.08,9.6,1.14-.35.78-1.32.86-2.1.11-1.03-.3-2.15.45-3.09.03-7.52.06-15.03.07-22.55,0-1.02-.09-2.03.58-2.91Z"/><path class="cls-9" d="m67.98,52.05c-2.36-3.43-6.62-6.92-10.55-8.46,3.36,4.8,6.08,9.6,11.03,12.49,1.63-1.56-.8-2.63-.48-4.03Z"/><path class="cls-3" d="m244.02,163.3c.9-.55,1.44-1.36,1.81-2.33.91-2.4,1.89-4.77,2.72-7.2.99-2.87.89-2.95-2.36-3-.62,4.17-2.5,7.86-4.35,11.57.42,1.02,1.24,1.12,2.18.95Z"/><path class="cls-5" d="m92.97,2.63c-.54,1.61.11,2.71,1.54,3.4,1.45.69,2.86.85,3.98-.62.29-.38.59-.72,1.09-.82.41-2.28-.4-4.03-2.68-4.5-1.87-.39-3.36.55-3.93,2.54Z"/><path class="cls-7" d="m90.69,42c4.27,1.65,11.74-2.28,13.75-5.56.5-.81.71-1.72-.21-2.28-1.02-.62-1.47.33-1.64,1.06-.31,1.37-1.6,1.34-2.43,1.98-2.73,2.12-5.82,3.53-9.48,4.8Z"/><path class="cls-7" d="m62.82,75.49c-1.66-2.86-.95-5.85-.48-8.83-2.48,1.02-1.71,3.58-1.61,5.06.13,2.04-.43,2.58-2.06,2.98-.42.1-.76.52-1.13.79.27,1.86,1.06,3.5,2.37,5.13.63-1.91,1.97-3.39,2.91-5.13Z"/><path class="cls-7" d="m147.16,144.91c1.88,3.52,3.94,6.96,4.93,10.88.37-.01.73-.02,1.1-.03.66-.88.32-1.88.37-2.83-.78-.03-1.02-.61-1.27-1.2-.54-1.3-.97-2.66-1.63-3.89-1.19-2.23-1.7-4.83-3.63-6.66,0,.29.01.58.02.87.05.06.14.12.14.17,0,.14-.06.27-.1.4.02.76.05,1.52.07,2.29Z"/><path class="cls-2" d="m81.68,75.48c-.75.94-.34,2.05-.45,3.09-.08.78.28,1.75-.86,2.1,0,.48.01.96.02,1.44,1.15.38.83,1.37.83,2.17.03,4.28,0,8.56.02,12.83,0,.84-.2,1.73.43,2.46,0-8.03,0-16.06.01-24.09Z"/><path class="cls-7" d="m106.28,55.63c.19.59.39,1.18.58,1.76,1.89.78,3.42-.85,5.21-.76.19-.34.34-.71.57-1.02,1.45-1.92.66-3.24-1.13-4.32.31,1.52-.75,2.31-1.78,2.92-1.06.62-2.29.96-3.45,1.42Z"/><path class="cls-9" d="m115.28,102.37c1.47-1.44,3.42-2.39,4.53-4.29-3.23,1.25-6.44,2.39-9.81,3-.92,1.26.34,1.32.96,1.73,1.48.27,2.89-.24,4.32-.44Z"/><path class="cls-12" d="m120.98,68.41c-2.14.27-3.86,1.56-5.77,2.37-3.16,1.35-3.27,1.33-3.27-1.96-1.17.44-1.32,2.44-3.06,1.99-.28.54-.13.9.49.8.97-.16.65.5.68.95,4.26.23,7.99-.92,10.93-4.16Z"/><path class="cls-9" d="m102.47,58.05c-.95-3.39-1.6-6.88-3.37-10,.09,3.2.44,6.36,1.41,9.42.23.72.28,1.57,1.13,1.93.28-.45.56-.91.84-1.36Z"/><path class="cls-4" d="m269.03,254.53c-.33.32-.65.64-.98.96,1.55.56,3.2.9,4.54,1.96.39-.02.79-.03,1.18-.05.14-.05.27-.11.4-.16,0-.08,0-.16,0-.24.32-.67.65-1.34.97-2.01.06-.15.15-.27.27-.37.04-.24.09-.48.13-.72-.13-.17-.26-.35-.39-.52-.74-.39-1.48-.79-2.35-.75-.17.36-.34.72-.52,1.07.51.52,1.71.78,1.2,1.72-.64,1.2-1.28-.15-1.93-.28-.85-.17-1.68-.41-2.52-.62Z"/><path class="cls-12" d="m113.82,79.53c.46-.38,1.03-.7.96-1.44-3,.54-5.48,2.53-8.48,3.06-.63.44-.41,1.05-.33,1.64,2.62-1.09,5.24-2.17,7.85-3.26Z"/><path class="cls-4" d="m89.4,9.21c.62-1.81.88-3.68.82-5.59-.28-.9-.91-1.03-1.66-.69-.79.36-1.06,1.06-1.16,1.9-.25,1.9,1.35,2.91,2.01,4.37Z"/><path class="cls-13" d="m78.09,64.06c-1.68-2.85-3.81-5.33-6.24-7.56-.49.1-.89.31-.99.86,2.91,1.56,4.3,4.55,6.43,6.84.27-.05.54-.09.81-.14Z"/><path class="cls-7" d="m82.6,133.24c1.06,3.35,1.01,6.8.98,10.26-.03,3.53,0,7.06.49,10.59,0-6.97,0-13.94,0-20.91-.49.02-.98.04-1.47.07Z"/><path class="cls-9" d="m213.94,130.61c.1.53.2,1.07.31,1.6.84-.01,1.69.03,2.53-.05,1.95-.18,3.96.58,5.84-.44-2.93-.09-5.67-1.67-8.68-1.11Z"/><path class="cls-3" d="m56.23,214.52c-.5-.04-1-.09-1.5-.13,1.61,2.81,3.51,5.34,6.67,6.7-1.99-1.99-3.73-4.16-5.16-6.56Z"/><path class="cls-12" d="m102.47,58.05c-.28.45-.56.91-.84,1.36-.06.33-.12.67-.18,1,.7,1.55,1.41,3.1,2.11,4.65.25-.14.51-.28.76-.42-.62-2.2-1.24-4.39-1.86-6.59Z"/><path class="cls-3" d="m222.61,131.72c-1.88,1.02-3.9.26-5.84.44-.84.08-1.68.04-2.53.05.28.91,1.06.83,1.75.83,2.76,0,5.5.11,8.2.74-.17-.63-.34-1.27-.5-1.9-.36-.05-.71-.1-1.07-.16Z"/><path class="cls-12" d="m102.95,99.18c1.48-2.55,4.27-3.7,6.21-5.76-3.16.92-5.68,2.64-7.16,5.67.32.03.64.06.96.09Z"/><path class="cls-12" d="m110.95,102.81c-.62-.41-1.88-.47-.96-1.73-2.16.49-4.37.42-6.56.48.48.38.59.76.01,1.15,2.5.03,5,.07,7.51.1Z"/><path class="cls-12" d="m70.86,57.36c.1-.55.5-.76.99-.86-1.29-1.48-2.58-2.97-3.87-4.45-.32,1.4,2.11,2.48.48,4.03.74.55,1.47,1.1,2.4,1.28Z"/><path class="cls-2" d="m253.09,290.18c-1.38-.96-3.46-1.02-3.95-3.1-1.19,1.66.41,2.21,1.31,2.73.71.41,1.69.78,2.64.37Z"/><path class="cls-12" d="m271.36,165.24c1.8-.48,3.74-.69,5.6-2.63-2.56.38-4.1,1.54-5.84,2.19.08.15.16.3.24.44Z"/><path class="cls-12" d="m266.17,258.32c1.15.5,2.29,1.01,3.44,1.49.45.18,1.01.24,1.19-.33.17-.54-.31-.92-.75-1.01-1.29-.26-2.59-.42-3.89-.62,0,.16,0,.31.01.47Z"/><path class="cls-12" d="m276.91,228.11c1.19,1.26,2.81,1.31,4.31,1.26.91-.03.33-1.03-1.11-1.28-.77-.13-1.54-.26-2.31-.37-.23-.04-.47-.04-.7-.05-.06.15-.13.29-.19.44Z"/><path class="cls-9" d="m275.71,233.69c1.85,0,3.56,1.05,6.08.82-2.15-1.67-4.26-1.21-6.11-1.64.01.27.02.55.03.82Z"/><path class="cls-2" d="m97.06,10.44c-1.03.72-2.06,1.45-3.09,2.17,0,.33,0,.66,0,.98,1.87-.23,3.08-1.1,3.08-3.16Z"/><path class="cls-9" d="m223.68,131.88c.17.63.34,1.27.5,1.9.53.28,1.06.57,1.59.85.96-.2,1.68-.62.57-1.48-.76-.59-1.77-.86-2.66-1.27Z"/><path class="cls-12" d="m269.79,160.98c2.24.69,3.44-1.2,5.04-2.09-1.71.52-3.54.75-4.93,2.08,0,0-.12.02-.12.02Z"/><path class="cls-12" d="m277.74,198.61c1.27.64,2.68.69,4.05.89.44.07,1.06,0,1.11-.55.06-.64-.56-.64-1-.62-1.39.03-2.78.11-4.16.18,0,0,0,.11,0,.11Z"/><path class="cls-12" d="m274.21,177.06c1.82-.37,3.65-.73,5.47-1.1-1.89-1.06-3.6.02-5.38.22-.03.3-.06.59-.09.89Z"/><path class="cls-12" d="m275.66,181.65c1.78.35,3.47-.34,5.21-.48-1.78-.78-3.54-.71-5.3.12.1.1.13.22.08.35Z"/><path class="cls-12" d="m273.91,174.11c1.78.2,3.54.26,5.69-1.22-2.35.17-4.07.3-5.78.43.03.26.06.52.09.79Z"/><path class="cls-9" d="m263.56,262.68c.71,2.48,2.93,2.15,4.7,2.65-1.17-1.52-3.24-1.36-4.57-2.59,0,0-.13-.06-.13-.06Z"/><path class="cls-9" d="m277,225.26c1.49,1.46,3.49,1.32,5.32,1.74-1.53-1.3-3.46-1.61-5.27-2.21,0,.16-.01.31-.04.46Z"/><path class="cls-12" d="m278.04,212.84c1.56.59,3.08,1.4,5.2.81-1.75-1.24-3.43-1.1-5.09-1.04.03.11,0,.18-.11.23Z"/><path class="cls-2" d="m78.09,64.06c-.27.05-.54.09-.81.14.6,1.27,1.55,2.26,2.5,3.26-.42-.82,1.73-.63.68-1.7-1.65.62-1.42-1.36-2.37-1.7Z"/><path class="cls-12" d="m276.22,184.54h5.09c-1.54-1.62-3.38-.63-5.08-.77,0,.26,0,.52,0,.77Z"/><path class="cls-12" d="m276.66,186.93c1.57-.07,3.08,1.06,5,.2-1.65-1.1-3.28-.77-4.82-.86-.06.22-.13.43-.19.65Z"/><path class="cls-2" d="m79.79,127.45c.62-.62,1.1.86,1.27.29.29-.99.41-2.14-.31-3.11-.18.49-.14,1.32-1.05.65-.26.13-.52.26-.78.4.13.67.35,1.29.86,1.78Z"/><path class="cls-12" d="m273.49,169.79c1.65-.06,3.16-.56,5.21-1.56-2.4-.34-3.87.49-5.34,1.29,0,0,.15.1.15.1l-.02.17Z"/><path class="cls-9" d="m269.01,159.02c1.35-.53,2.69-1.06,4.04-1.59-.07-.21-.13-.43-.2-.64-1.51-.07-2.82.53-3.91,1.83.07.12.09.26.07.4Z"/><path class="cls-12" d="m277.06,191.66c1.7.24,3.29,1.74,5.13.47-1.68-.34-3.28-1.08-5.04-.82.02.13-.01.25-.09.36Z"/><path class="cls-12" d="m278.12,206.27c1.53-.02,2.98.8,4.58.29-1.52-.54-2.93-1.66-4.72-.68.11.11.16.24.14.39Z"/><path class="cls-12" d="m277.1,189.64c1.55.24,3.09.42,5.31-.03-2.13-1.1-3.71-.64-5.24-.65-.02.23-.05.45-.07.68Z"/><path class="cls-12" d="m278.49,208.28c1.57-.41,2.99.97,5.13.21-2.15-1.23-4.05-.42-5.83-.57.23.12.46.25.7.37Z"/><path class="cls-12" d="m91.94,12.79c-.89-.98-1.78-1.96-2.68-2.95-.17,1.47.6,2.46,1.7,3.27.32-.11.65-.21.97-.32Z"/><path class="cls-4" d="m54.29,18.79c1.34.12,2.92.79,3.27-1.4-1.24.13-2.5.19-3.27,1.4Z"/><path class="cls-2" d="m80.63,53.29c.98-.93.58-1.68-.3-2.37.1.79.2,1.58.3,2.37Z"/><path class="cls-4" d="m59.93,17.82c.11.86.73.96,1.43.95-.14-.82-.73-.96-1.43-.95Z"/><path class="cls-12" d="m93.99,13.6c0-.33,0-.66,0-.98-.38-.06-.72,0-.98.31,0,.28-.01.57-.02.85.34-.06.67-.12,1.01-.18Z"/><path class="cls-4" d="m267.34,254.05c.44,0,.88,0,1.32,0,0-.28.02-.56.03-.84l-.63-.07c-.45.14-.82.34-.71.91Z"/><path class="cls-13" d="m78.93,125.67c.26-.13.52-.26.78-.4-.13-.51-.27-1.25-.93-.93-.67.32-.1.9.15,1.33Z"/><path class="cls-2" d="m80.73,122.73c.39-.33.38-.65-.02-.96,0,.32.01.64.02.96Z"/><path class="cls-7" d="m275.41,254.62c-.12.1-.21.23-.27.37.08-.13.67.11.27-.37Z"/><path class="cls-12" d="m111.93,68.86c.16-.24.33-.48.49-.73-.16.24-.33.48-.49.73Z"/><path class="cls-9" d="m107.69,21.61s.02.02.02.02c0,0-.02-.02-.02-.02Z"/><polygon class="cls-7" points="64.87 63.71 64.96 63.71 64.9 63.54 64.87 63.71"/><path class="cls-12" d="m121.43,68.42c-.16-.21-.32-.26-.48,0,.16,0,.32,0,.48,0Z"/><path class="cls-2" d="m61.38,102.86c-.17.25-.35.51-.52.76.28-.18.57-.35.52-.76Z"/><path class="cls-2" d="m80.75,124.14c.04-.11.1-.22.13-.34,0-.04-.09-.09-.13-.14,0,.16,0,.32,0,.48Z"/><path class="cls-7" d="m274.17,257c0,.08,0,.16,0,.24,0,0,.15-.11.15-.11l-.15-.13Z"/><path class="cls-14" d="m115.39,196.81c-.12-1.47-.32-2.92-.99-4.26-2.29,2.68-4.86,5.24-4.05,9.27.13.66.05,1.07-.79.99-1.11-.11-.79.54-.39.97.53.57.62,1.1.04,1.6-2.54,2.18-2.5,5.7-4.32,8.29-.71,1-2.09,1.21-2.46,2.65-.13.5-1.2-.8-1.88-1.19-.63.72-.27,1.21.13,1.73.3.4.46,1.11-.19,1.05-2.72-.22-3.39,2.69-5.43,3.41-2.37.84-4.24,2.73-6.84,3.08-.9.12-1.48.81-1.76,1.7,1.09.01,2.17.03,3.26.05.32-.37.64-.37.95,0,1.39.03,2.8.22,4.17-.17.03-2.04,1.74-3.21,3.06-3.77,2.62-1.12,4.02-3.69,6.56-4.78.74-.32.88-1.04.87-1.79,0-.7.27-1.36.99-1.38,1.16-.03,1.46-.29.74-1.32-.3-.44-.04-.73.49-.7.38.02,1.08.06.82-.39-1.29-2.16.85-1.93,1.66-2.75,1.2-1.2,2.32-2.65,2.35-4.45.04-3.01,1.45-5.43,3-7.83Z"/><path class="cls-13" d="m144.26,242.82c.52,1,1.33,1.73,2.27,2.32,2.16,1.35,4.84,1.15,6.54-.46,1.7-1.61,2.06-4.58.81-6.73-1.5-2.59-4.06-3.71-6.88-3.04,0,0-.01.03-.01.03.25,1.34,1.43.51,2.12.87,1.84.96,2.89,3.52,2.03,5.44-.98,2.2-3.07,2.71-6.05,1.46-.28.04-.56.07-.84.11Z"/><path class="cls-12" d="m144.26,242.82c.28-.04.56-.07.84-.11-1.61-1.66-1.14-3.69-1-5.66l.04.04c-1.53,1.94-1.42,3.85.12,5.73Z"/><path class="cls-12" d="m146.99,234.94s.01-.03.01-.03c-.87.49-2.15.26-2.6,1.48.06.06.12.12.18.19,1.12-.09,1.52-1.22,2.41-1.64Z"/><path class="cls-1" d="m90.68,226.16c-.31-.38-.63-.38-.95,0,.32,0,.64,0,.95,0Z"/><path class="cls-12" d="m144.4,236.39c-.09.23-.18.46-.26.7,0,0-.04-.04-.04-.04.4.09.46-.17.48-.47-.06-.06-.12-.13-.18-.19Z"/><path class="cls-1" d="m177.41,151.02c-.51,0-1.02.02-1.53.02-.65.75-1.51.97-2.46.95,0,0,.01-.01.01-.01-.14.52-.54.52-.96.49,0,0,.02-.01.02-.01-.32.64-.85.64-1.44.5,0,0,.02-.02.02-.02.06.39-.14.51-.5.48,0,0,0-.01,0-.01.04,1-.89,1.2-1.44,1.67-2.03,1.73-3.96,3.57-5.24,5.91-.8,1.47-2.37,2.78-1.65,4.81,1.3-.93,1.85-2.4,2.57-3.71,1.78-3.21,3.43-4.26,6.48-3.94-.51-2.3.49-3.77,2.56-4.64.84-.65,1.84-1.13,2.73-.36,1.01.89.22,1.82-.34,2.66-.02.46-.04.93-.05,1.39,1.12.12.51.9.54,1.44h0c.91.43,2.67-1.65,2.84.96,1.01.21,2.24-.52,3.31.8-2.42.1-4.58-.01-6.65.66-.3.38-.71.4-1.14.39l-.07.02c-.22.15-.43.3-.65.45l-.03.02c-.33,1.05-.67,2.1-1,3.15.67.06.93-.42,1.24-.9,1.57-2.47,4.98-3.6,8.03-2.7,2.76.82,4.56,3.38,4.58,6.4.02,3.12-1.94,5.1-4.11,6.78-2.52,1.94-8.13.05-9.55-2.78-1.14-2.27-.15-4.47-.29-6.69-2.51,2.41-.68,5.43-.99,8.63-1.75-2.12-1.64-4.22-1.77-6.26-1.95.89-4.19-.72-6.27.55.82.59,1.55.45,2.23.41,1.55-.1,1.89.76,1.76,2.05-.17,1.73-2.24,2.72-4.71,2.18-1.65-.36-2-1.46-1.61-3.02.29-1.18.88-2.37.35-3.64-1.37.09-.82,1.44-1.36,2.07-1.01,5.85.51,11.05,4.06,15.73.21.38,1.03.55.42,1.22,0,0-.02-.02-.02-.02.6-.26.77-.09.51.51,0,0-.03-.04-.03-.04.6-.25.77-.09.5.51,0,0-.02-.02-.02-.02.14-.29.31-.31.53-.08,1.25-1.02,1.19-3,2.77-3.78.5-.78,1.1-1.51,1.47-2.34.73-1.63,2.35-2.89,2.11-4.94-.04-.18-.17-.47-.12-.51.23-.17.33.04.39.24,1.1.63,2.21,1.25,3.31,1.88.45.07.91.15,1.36.22,3.99.79,7.15-.7,9.82-3.55,1.61-3.97,1.93-7.75-1.65-10.93-.53-.2-.71-.64-.93-1.12.77-.22,1.07.26,1.42.66,6.29,3.87,6.59,11.41.57,16.01l-.04-.03c-.33.19-.65.39-.98.58-.13.14-.13.27.02.4.81.21,2.03-.57,2.3.95,1.22-.61,1.54.19,1.79,1.12,1.21.93,1.47,1.98.37,3.19.01.31-.13.48-.44.49-.15.16-.29.31-.44.47-2.93.25-3.42-.1-3.82-2.71-1.58-.91-2.16.21-2.73,1.34.01.53-.02,1.08.46,1.46.58-.6,1.46-.47,1.51.13.17,1.87,2.03,2.24,2.78,3.54,2.15-.58,3.75-2.14,5.64-3.18.43-.37.86-.74,1.29-1.11,0,0-.02.02-.02.02.03-.14.07-.27.12-.4-.79-.53-.7-1.42-.92-2.19.3-1.61-1.67-2.05-1.79-3.44-.81-.05-1.26-.26-.49-1.05.14-.73.29-1.46.43-2.2q-1.02-1.32.37-2.74c.07.48.15.94.22,1.4.26-.17.53-.35.79-.52.45-.64.93-.63,1.42-.05.16.32.43.93.46.92.81-.31.75-1.14.99-1.79-.41-.36-.81-.71-1.22-1.07,0,0,.03.05.03.05-2.8-1.08-1.36-3.13-1.12-4.91-.02-.85-.03-1.7-.05-2.55-1.21-.27-1.64-1.19-1.59-2.25.06-1.16.98-1.89,1.79-2.62.18-.16.49-.14.49.15,0,.29-.15.58-.24.87.15.16.3.32.45.48,0,0-.07-.03-.07-.03,1.3.98,2.98,1.66,2.9,3.72,0,.63-.01,1.25-.02,1.88.15,1.14-.49,2.26-.08,3.41.8-.29.96.34.98.83.02.5-.33.82-.9.52h0c.44.68-.3.94-.49,1.39,2.57,1.5-.38,2.14-.5,3.23,1.48,1.1,2.02,2.63,2,4.41,4.44-6.86,3.59-18.41-3.61-25-.28-.06-.57-.12-.85-.18-.84.9-.56,3.06-2.75,2.46-.21.23-.41.46-.62.69-.41,1.15-1.08,1.66-2.26.9-.28-.11-.55-.21-.83-.32-1.6-.89-1.72-2.11-.8-3.56-.07-.09-.15-.19-.22-.28.12,0,.23.01.35.02l.1.03c-.17-1.15.92-2.15.37-3.34l-.15-.02-.04.14c-.18-.12-.36-.23-.55-.35l-.94-.07c-.82.76-2.11,1.05-2.37,2.37,0,.36-.18.57-.53.66.64,2.29-.36,3.02-2.52,2.65-.66.04-1.52.63-1.93-.05-.43-.7-.32-1.66.15-2.43.58-.95,1.32-1.73,2.5-1.92-.22-.38,1.19-1.15-.31-1.25-1-.07-2.06.31-2.98-.39-.27.11-.55.22-.82.32Z"/><path class="cls-3" d="m235.4,220.48c1.64-.36,3.28-.08,4.92,0,1.75.08,2.79-.39,2.7-2.51-.16-3.91-.09-7.84-.11-11.76,0-.9.05-1.73-1.29-1.7-7.14.19-14.27.33-21.41.49.05,5.06.09,10.12.14,15.18.29.11.58.22.86.33.95,0,1.89,0,2.84-.01l.23-.05s.23.04.23.04c.32-.19.65-.19.97,0,.46,0,.93,0,1.39,0,.96-.27,1.91-.28,2.87-.01h5.65Z"/><path class="cls-10" d="m135.59,220.57c-.2.42-.31.92-.61,1.23-.66.66-1.65,1.21-1.11,2.32.51,1.06,1.67,1.13,2.67,1.11,7.3-.14,14.62.58,21.88-.51,4.4-.66,8.67-2.04,13.11-2.51.93-.1,1.87-.25,2.8-.25,10.22-.02,20.44.02,30.67-.03,3.74-.02,7.47-.76,11.23-.02.97.19,2.16.23,2.17-1.36-5.42-.04-10.85-.12-16.27-.12-20.92-.01-41.84,0-62.77,0-1.25,0-2.51.08-3.76.13Z"/><path class="cls-7" d="m240.15,199.69c-.63-1.82-2.06-2.94-3.61-3.86-7.26-4.28-13.38-9.81-18.14-16.75-1.12-1.64-1.63-3.7-2.42-5.57-.26-.61-.19-1.4-1.37-2.07.72,3.2,1.4,6,2.51,8.68,2.59,6.24,4.05,12.68,3.61,19.48,6.47.03,12.94.06,19.42.09Z"/><path class="cls-15" d="m147.02,141.18c1.93,1.82,2.44,4.43,3.63,6.66.66,1.24,1.1,2.59,1.63,3.89.24.59.49,1.18,1.27,1.2.46-4.06,1.09-8.11,1.01-12.5,2.19,1.13,4.22,1.47,6.35,1.03-.61-3.08-1.23-6.17-1.83-9.25-.25-1.28-.16-2.5.69-3.58-2.34-2.07-5.59-1.48-7.08,1.27.69.95.26,2.07.47,3.1q.24,1.27-.38,1.33c-4.27.39-6.06,2.52-5.76,6.85Z"/><path class="cls-13" d="m193.79,185.58c-1.89,1.04-3.49,2.6-5.64,3.18-1.47.72-3.04,1.05-4.66,1.18-4.39,1.07-8.45.11-12.37-1.9-1.14-.58-1.15-1.25-.55-2.24,1.49-2.47,3.05-4.9,4.02-7.64.19-.53.47-1.02,1.17-.59.48-.2.9-.47,1.03-1.03-1.1-.63-2.21-1.25-3.31-1.88-.09.09-.18.18-.27.27.25,2.04-1.37,3.31-2.11,4.94-.38.83-.98,1.56-1.47,2.34,1.42.79,1.25,1.59.03,2.42l.02-.02c-.53,1.28-1.49,1.9-2.86,1.91-.08.08-.17.15-.25.22,7.15,8.47,22.39,9.44,31.11,1.71-2.22-.58-.48-1.97-.28-2.6.48-1.48.23-1.72-1.17-1.35-.36.1-.77,0-1.16,0,0,0,.02-.02.02-.02-.06.8.02,1.76-1.29,1.11Z"/><path class="cls-10" d="m195.06,184.5c.39,0,.8.09,1.16,0,1.4-.37,1.65-.13,1.17,1.35-.2.63-1.95,2.03.28,2.6,10.48-7.51,11.05-22.3,1.21-31.68-.79-.75-1.7-1.36-2.55-2.04-.3.07-.61.13-.91.2,7.2,6.59,8.05,18.14,3.61,25-1.07,1.59-2.25,3.07-3.85,4.17-.05.13-.09.27-.12.4Z"/><path class="cls-12" d="m219.81,204.91c0-.45,0-.9,0-1.35-17.56-.02-35.13-.04-52.69-.05-11.34,0-22.69,0-34.03.07-.85,0-2.47-.68-2.44.8.02.99,1.59.54,2.44.54,26.39.03,52.78.02,79.17,0,2.52,0,5.04-.01,7.55-.02Z"/><path class="cls-15" d="m211.44,141.53c-.77-3.01-1.28-6.07-1.64-9.16-.16-1.41.11-2.62,1.05-3.67-1.84-1.85-4.42-1.78-6.66.16-.16.63-.32,1.26-.47,1.89,0,.79,0,1.59,0,2.38.16.61.13,1.22-.09,1.81.72.71.72,1.7.95,2.58,1.01,3.8,2.89,4.92,6.86,4.01Z"/><path class="cls-3" d="m240.15,199.69c-6.47-.03-12.94-.06-19.42-.09-.95,1.15-.31,2.54-.54,3.79,6.6.03,13.19.05,19.79.08q3.49.02,2.34-3.4c-.86.62-1.48-.08-2.17-.39Z"/><path class="cls-2" d="m159.77,128.62c-.84,1.08-.93,2.3-.69,3.58.6,3.09,1.22,6.17,1.83,9.25,3.56.37,4.02.18,4.44-3.63.28-2.5,1.23-3.18,3.66-3.01,3.51.24,7.05.06,10.58.06-.44-1.11-1.42-.77-2.22-.78-2.5-.04-5,0-7.5-.03-.81,0-1.8.27-2.11-.93-.77-.02-1.54-.1-2.31-.04-1.39.1-2.04-.47-1.9-1.87-.08-.16-.16-.32-.24-.47-.48-.57-.95-1.15-1.43-1.72-.71-.14-1.42-.27-2.13-.41Z"/><path class="cls-10" d="m167.78,133.14c.3,1.2,1.3.92,2.11.93,2.5.03,5,0,7.5.03.8.01,1.78-.32,2.22.78,4.25-.01,8.5-.02,12.76-.03.07-.32.2-.64.59-.53.16.05.25.34.38.52,2.2-.01,4.4-.03,6.6-.04.31-.78.64-.79.97-.01.31-.03.61-.05.92-.08.2-.58.99-.81.96-1.54-11.66-.01-23.33-.02-34.99-.03Z"/><path class="cls-9" d="m162.26,165.8c-.72-2.03.85-3.34,1.65-4.81,1.28-2.34,3.21-4.19,5.24-5.91.55-.47,1.48-.67,1.44-1.67-5.71,3.1-8.89,8.03-10.3,14.24.2.18.41.36.61.54.54-.63,0-1.98,1.36-2.07-.07-.1-.07-.21,0-.31Z"/><path class="cls-12" d="m160.9,168.18c-.2-.18-.41-.36-.61-.54-1.18,6.42.37,12.12,4.56,17.11.04-.28.07-.56.11-.84-3.55-4.68-5.08-9.88-4.06-15.73Z"/><path class="cls-12" d="m195.42,154.92c.3-.07.61-.13.91-.2-3.62-2.86-7.69-4.57-12.33-4.76-.35.19-.7.39-1.06.58,1.09.18,2.27-.19,3.29.5.31.02.63.05.94.07.26,0,.56-.07.55.35l.04-.14s.15.02.14.02c2.41.76,4.74,1.68,6.66,3.4.28.06.57.12.85.18Z"/><path class="cls-9" d="m182.94,150.54c.35-.19.7-.39,1.06-.58-2.16-.8-4.26-.04-6.36.28-.41.06-.24.48-.22.77.27-.11.55-.22.82-.32,1.57-.05,3.14-.1,4.71-.15Z"/><path class="cls-2" d="m202.77,133.17c.03.73-.75.95-.96,1.54.6.08,1.21.16,1.81.24.22-.59.25-1.2.09-1.81-.32.01-.63.02-.95.03Z"/><path class="cls-9" d="m173.42,151.99c.95.02,1.81-.2,2.46-.95-.99-.12-1.91-.07-2.46.95Z"/><path class="cls-2" d="m193.32,134.84c-.12-.18-.21-.47-.38-.52-.39-.11-.52.21-.59.53.32,0,.64,0,.96,0Z"/><path class="cls-2" d="m200.9,134.79c-.33-.77-.66-.77-.97.01.32,0,.65,0,.97-.01Z"/><path class="cls-7" d="m214.34,168.99c-.04.13-.09.26-.1.39,0,.04.1.09.15.14.04-.13.09-.25.11-.39,0-.04-.1-.09-.16-.15Z"/><path class="cls-3" d="m132.78,220.49c.47,0,.94-.01,1.42-.02-.48-.29-.95-.25-1.42.02Z"/><path class="cls-9" d="m171.06,152.95c.59.14,1.12.14,1.44-.5-.65-.34-1.04.11-1.44.5Z"/><path class="cls-9" d="m172.47,152.47c.42.04.82.03.96-.49-.52-.23-.86-.11-.96.49Z"/><path class="cls-13" d="m164.96,183.91c-.04.28-.07.56-.11.84.18.12.35.25.53.37.61-.66-.21-.84-.42-1.22Z"/><path class="cls-13" d="m165.87,185.61c.26-.6.09-.76-.51-.51.17.17.34.34.51.51Z"/><path class="cls-9" d="m170.58,153.42c.35.03.55-.09.5-.48-.3.02-.49.15-.5.48Z"/><path class="cls-13" d="m166.85,185.99c-.21-.23-.39-.21-.53.08.08.22.16.45.24.67.09-.07.17-.14.25-.22.01-.18.02-.35.03-.53Z"/><path class="cls-3" d="m135.12,220.45c.17,0,.35,0,.52,0-.18-.19-.35-.19-.52,0Z"/><path class="cls-13" d="m166.34,186.09c.27-.6.1-.76-.5-.51.17.17.34.34.5.51Z"/><path class="cls-7" d="m83.68,158.18c-.26,4.08.76,7.93,2.43,11.65,1.65,3.69,4.36,6.69,6.63,9.98,3.24,4.7,6.13,9.52,5.96,15.51-.07,2.52-.37,5-1.81,7.19-.28.43-.65.92-.18,1.7,1.57-1.05,1.84-2.85,2.27-4.32,1.44-4.96.51-9.7-1.5-14.41-2.28-5.35-6.48-9.38-9.36-14.31-2.19-3.75-3.45-7.67-3.6-11.98-.01-.36-.13-.73-.2-1.09-.21.02-.42.05-.62.07Z"/><path class="cls-7" d="m61.11,186.88c-2.39,2.6-3.13,5.84-3.89,9.07-.12.49.07.94.58,1.14.45.18.91-.08.94-.44.32-3.36,1.71-6.48,2.37-9.77Z"/><path class="cls-7" d="m57.07,203.45c.17.64-.35,1.73.9,1.77.77.02,1.06-.71.93-1.36-.16-.78-.06-1.98-1.18-2-.79-.01-.56.96-.64,1.59Z"/><path class="cls-15" d="m92.97,210.53c.42.26.65.98,1.25.75.77-.3.7-1.04.63-1.73-.77.06-1.44.3-1.88.98Z"/><path class="cls-7" d="m95.59,206.14c.32-.11.57-.32.49-.67-.02-.11-.37-.28-.49-.23-.18.07-.36.3-.41.5-.07.27.12.42.41.4Z"/><path class="cls-15" d="m161.9,129.03c.48.57.95,1.15,1.43,1.72,1.13-1.31,4.32-1.11,5.43.35,2.82.04,5.63.08,8.45.11,8.48-.08,16.96-.15,25.44-.23.36-.07.72-.15,1.07-.22.16-.63.32-1.26.47-1.89-13.16,0-26.31.01-39.47.03-.94,0-1.88.09-2.83.14Z"/><path class="cls-14" d="m245.18,149.51q4.53.69,5.84-3.7c1.2-3.97,2.26-7.96,1.73-12.17-.1-.82-.02-1.73-.64-2.43-1.33,1.42.02,3.38-1,4.86-.82,4.08-2.35,7.95-3.61,11.9-.4,1.26-1.28,1.42-2.31,1.54Z"/><path class="cls-14" d="m142.72,146.35c1.92-1.14,3.14-2.21,2.69-5.05-.76-4.85,1.75-7.51,6.72-8.27-3.81-1.57-5.59,1.83-8.05,3.52-.69-.98,0-1.68.05-2.42-2.26,2.34-1.77,5.25-1.63,8.06.07,1.38.47,2.75.22,4.16Z"/><path class="cls-3" d="m144.13,134.13c-.04.74-.74,1.44-.05,2.42,2.46-1.69,4.23-5.09,8.05-3.52.34-.01.69-.02,1.03-.04-.2-1.03.23-2.15-.47-3.1-.75,1.1-1.94.78-2.96.86-2.46.18-4.51.97-5.6,3.39Z"/><path class="cls-15" d="m211.76,128.78c.15.04.3.08.45.12-.09-.26-.24-.31-.45-.12Z"/><path class="cls-15" d="m213.11,129.36c.18.18.36.36.53.54-.18-.18-.36-.36-.53-.54Z"/><path class="cls-13" d="m94.69,281.4c-2.56,11.91-5.07,23.82-7.7,35.72-1.73,7.83-3.63,15.62-5.43,23.43-.47,2.04-.85,4.1-1.28,6.14,2.33-1.22,1.71-3.68,2.28-5.6,1.27-4.26,1.93-8.67,2.89-13,.72-3.25,2.07-6.44,1.88-9.86-.06-1.14.62-1.92,1-2.83,1.56-3.73,1.55-7.79,2.47-11.66,1.65-6.91,2.84-13.93,4.23-20.9.11-.56.27-1.09-.36-1.44Z"/><path class="cls-9" d="m275.49,248.42c.67-.05,1.3-.22,1.07-.78-.66-1.63-2.39-1.49-3.72-1.96-.39-.14-1.16.19-.91.72.71,1.53,2.51,1.29,3.57,2.02Z"/><path class="cls-9" d="m268.68,253.2c0,.28-.02.56-.03.84.13.16.25.33.38.49.84.21,1.67.45,2.52.62.65.13,1.29,1.49,1.93.28.5-.94-.7-1.2-1.2-1.72-1.22-.02-2.31-.93-3.59-.51Z"/><path class="cls-12" d="m273.14,242.38c.86,1.81,2.65,1.79,3.93,2.54.29.17.68.03.7-.34.01-.26-.17-.7-.37-.77-1.34-.46-2.54-1.43-4.26-1.42Z"/><path class="cls-9" d="m272.79,252.64c.88-.04,1.61.36,2.35.75-.39-1.91-2.02-2.72-5-2.4.55,1.15,1.99.8,2.64,1.65Z"/><path class="cls-12" d="m279.41,241.93c-1.84-.94-3.21-1.96-5.05-2.49,1,1.89,2.02,2.4,5.05,2.49Z"/><path class="cls-12" d="m283.66,204.46c-1.97-1.67-3.59-1.62-5.29-1.2,1.46.72,2.97,1.21,5.29,1.2Z"/><path class="cls-12" d="m283.36,211.59c-1.12-1.45-2.38-1.53-3.55-1.79-.48-.11-1.01.02-1.12.55-.15.73.53.58.92.65,1.12.2,2.25.36,3.75.59Z"/><path class="cls-12" d="m277.42,222.58c1.67,1.42,2.97,1.97,4.94,1.41-1.48-1.19-2.83-1.62-4.94-1.41Z"/><path class="cls-12" d="m280.07,178.61c-1.61-1.13-3.02-.07-4.49.43,1.54.62,3-.14,4.49-.43Z"/><path class="cls-12" d="m281.11,231.61c-1.5-1-3.2-.83-5.46-1.18,2,1.65,3.72,1.52,5.46,1.18Z"/><path class="cls-12" d="m282.61,194.69c-1.78-.4-2.96-.7-4.15-.92-.38-.07-.85.1-.86.58-.01.6.48.48.85.42,1.18-.18,2.3.64,4.17-.08Z"/><path class="cls-12" d="m277.65,215.48c2.13.64,3.59,1.02,5.66.67-1.93-1.08-3.41-1.27-5.66-.67Z"/><path class="cls-12" d="m283.14,218.49c-1.95-.96-3.45-.79-4.97-.54,1.43.66,2.85,1.35,4.97.54Z"/><path class="cls-12" d="m283.27,221.18c-2.01-.75-3.4-1.37-5.23-1.02,1.57.92,2.94,1.72,5.23,1.02Z"/><path class="cls-12" d="m272.65,167.57c1.71-.15,3.22-.75,4.57-1.8-1.75-.03-3.21.77-4.57,1.8Z"/><path class="cls-12" d="m278.92,170.35c-2.07.29-3.53.5-5.59.79,2.21,1.04,3.68.85,5.59-.79Z"/><path class="cls-12" d="m279.27,238.85c-1.22-.64-2.42-1.54-4.36-.61,1.74.36,2.91,1.14,4.36.61Z"/><path class="cls-12" d="m275.42,250.08c-1.49-.63-2.76-1.29-4.89-1.19,1.83,1.03,3.11,1.63,4.89,1.19Z"/><path class="cls-12" d="m282.67,201.41c-1.42-.96-2.92-.7-4.41-.52,1.39.92,2.91.78,4.41.52Z"/><path class="cls-12" d="m275.53,235.75c1.45.85,3,1.14,5.32.81-2.05-1.15-3.66-1.09-5.32-.81Z"/><path class="cls-13" d="m258.43,145.63c.06-.42.12-.84.18-1.26-.17.03-.33.06-.5.09l-.04.89c.11.1.23.19.36.27Z"/><path class="cls-15" d="m258.11,144.47c.17-.03.33-.06.5-.09-.22-.26-.39-.24-.5.09Z"/><path class="cls-13" d="m251.6,129.04c.06.1.11.2.16.29.05-.05.14-.11.13-.14-.02-.1-.09-.2-.14-.29-.05.05-.1.09-.16.15Z"/><path class="cls-1" d="m51.37,88.04s0-.06,0-.06c.29.36.61.71.13,1.16.21.75.47,1.34,1.42,1.58,3.63.89,7.22,1.89,11.42,3.01-2.72-4.76-4.08-9.49-6.63-13.68-.91,1.62-2.64,2.37-3.9,3.63-1.25,1.25-2.23,2.57-2.43,4.37Z"/><path class="cls-15" d="m47.6,95.28c1.05.11,1.51-.37,1.42-1.41-.47.47-.95.94-1.42,1.41Z"/><path class="cls-2" d="m229.76,220.48c-.96-.26-1.92-.26-2.87.01.96.72,1.92.73,2.87-.01Z"/><path class="cls-2" d="m224.07,220.49c-.95,0-1.89,0-2.84.01.95.7,1.9.71,2.84-.01Z"/><path class="cls-2" d="m225.49,220.49c-.32-.19-.65-.19-.97,0,.32.42.65.42.97,0Z"/><path class="cls-1" d="m112.07,56.64c-1.79-.09-3.32,1.55-5.21.76.51,2.16.32,4.35.37,6.54.04,1.63-.54,2.73-2.21,3.09.16,1.81,1.12,3.19,2.52,4.88,1.09-5.47,3.25-10.22,4.52-15.27Z"/><path class="cls-12" d="m103.88,66.13c-.11.13-.1.25.04.36.09-.13.08-.25-.04-.36Z"/><path class="cls-15" d="m62.24,34.5s.01,0,.01,0c-.09-.13-.15-.31-.26-.36-.22-.1-.33.04-.18.23.08.1.28.09.43.13Z"/><path class="cls-15" d="m61.56,35.6c.3-.17.36-.44.3-.75-.29.18-.4.42-.3.75Z"/><path class="cls-9" d="m269.81,262.85c-.66-1.45-1.8-1.9-2.96-2.34-.67-.25-1.25-.26-1.54.48-.28.73.17,1.26.78,1.47,1.14.38,2.29,1.01,3.73.4Z"/><path class="cls-12" d="m257.84,273.02c1.55.73,3.03,1.68,4.87,1.56-1.43-1.08-2.84-2.23-4.87-1.56Z"/><path class="cls-12" d="m258.37,282.21c-.71-2.19-2.45-2.22-3.92-2.61-.14-.04-.47.17-.52.32-.15.45.17.79.52.92,1.2.46,2.42.85,3.92,1.37Z"/><path class="cls-12" d="m261.01,279.09c-1.7-.86-2.8-1.42-3.9-1.96-.38-.19-.79-.2-.98.25-.2.47.13.69.54.81,1.19.32,2.2,1.38,4.33.91Z"/><path class="cls-9" d="m272.59,257.46c-1.34-1.06-2.98-1.4-4.54-1.96-.33.19-.42.66-.19.74,1.53.58,2.96,1.58,4.73,1.22Z"/><path class="cls-12" d="m254.43,287.3c-1.25-.63-2.46-1.25-3.74-1.9.59,2.06,2.24,2.9,3.74,1.9Z"/><path class="cls-9" d="m265.4,265.85c-.49-.02-.98-.01-.97.66,0,.75.54.85,1.12.84.43-.01,1.04.1,1-.59-.03-.65-.56-.86-1.15-.91Z"/><path class="cls-12" d="m262.32,270.2c.73.73,1.59,1.14,2.77.87-.82-.4-1.65-.81-2.47-1.21-.09.12-.19.23-.29.34Z"/><path class="cls-12" d="m260.87,271.65c.8.73,1.78.99,3,1.37-.54-1.56-1.85-1.24-2.68-1.74-.11.13-.21.25-.32.38Z"/><path class="cls-12" d="m262.62,269.86c-.06-.05-.11-.11-.18-.13-.54-.22-.94-.82-1.62-.61-.1.03-.2.44-.12.56.38.62,1.05.43,1.63.52.1-.11.2-.22.29-.34Z"/><path class="cls-12" d="m261.19,271.28c-.31-.17-.63-.33-.94-.5-.08.12-.17.23-.27.33.1.5.52.49.89.54.11-.13.21-.25.32-.38Z"/><path class="cls-12" d="m260.25,270.78c-.19.02-.38.04-.57.05.1.09.2.18.3.28.1-.1.2-.21.27-.33Z"/><path class="cls-4" d="m51.5,89.15c.48-.45.16-.8-.13-1.16.04.39.09.77.13,1.16Z"/><path class="cls-9" d="m91.88,33.71c0,.16,0,.32.01.49.11-.05.23-.1.34-.15-.12-.11-.24-.22-.35-.34Z"/><path class="cls-3" d="m147.08,142.62c.04-.13.09-.27.1-.4,0-.05-.09-.11-.14-.17.01.19.03.38.04.57Z"/><path class="cls-6" d="m144.58,236.58c-.01.3-.08.56-.48.47-.15,1.97-.61,4,1,5.66,2.97,1.25,5.06.74,6.05-1.46.85-1.92-.19-4.48-2.03-5.44-.7-.36-1.87.47-2.12-.87-.89.42-1.29,1.55-2.41,1.64Z"/><path class="cls-6" d="m173.28,165.2c.13,2.22-.86,4.42.29,6.69,1.42,2.83,7.03,4.72,9.55,2.78,2.17-1.68,4.13-3.66,4.11-6.78-.02-3.02-1.82-5.58-4.58-6.4-3.05-.9-6.46.23-8.03,2.7-.31.48-.57.96-1.24.9,0,0-.1.1-.1.1Z"/><path class="cls-15" d="m162.26,165.8c-.08.1-.08.21,0,.31.53,1.27-.06,2.46-.35,3.64-.39,1.55-.04,2.66,1.61,3.02,2.48.54,4.54-.45,4.71-2.18.13-1.29-.21-2.14-1.76-2.05-.68.04-1.41.18-2.23-.41,2.09-1.27,4.32.34,6.27-.55.23-2.6,1.39-4.57,3.86-5.63,0,0,.03-.02.03-.02.22-.15.43-.3.65-.45,0,0,.07-.02.07-.02.25-.49.58-.88,1.2-.87,1.09-.33,2.19-.66,3.28-.99-.17-2.61-1.93-.53-2.84-.96-.05.03-.09.06-.14.08.05-.03.09-.06.14-.08-.03-.54.58-1.32-.54-1.44-.35.54-.39,1.43-1.64,1.23.75-1.27,1.27-2.55.29-3.86-3.2.93-3.4,1.31-2.45,4.59.38.17.68.67,1.48.08-.64-.04-1.04-.06-1.44-.08-.38-.33-.75-.66-1.13-1-3.06-.32-4.71.73-6.48,3.94-.73,1.31-1.28,2.78-2.57,3.71Z"/><path class="cls-14" d="m183.49,189.95c1.62-.13,3.19-.47,4.66-1.18-.75-1.3-2.61-1.67-2.78-3.54-.05-.6-.93-.73-1.51-.13.02.99-.93,1.16-1.46,1.65-.79.73-1.68,1.6-2.84.81-1.1-.75-1.55-1.91-1.34-3.24.08-.53.29-1.04.44-1.56.07-2.25,1.93-1.1,2.95-1.55-.27-.56-.77-.66-1.33-.8-2.9-.72-3.62,1.91-5.14,3.28-1.18,1.07-2.5,2.56-2.04,3.95.39,1.18,2.49.84,3.79,1.28,2.16.73,4.55-.22,6.6,1.04Z"/><path class="cls-10" d="m187.37,177.84c6.02-4.6,5.72-12.14-.57-16.01-.16.15-.33.3-.49.46,3.59,3.18,3.26,6.96,1.65,10.93.85.86.82,1.81.03,2.61-.61.61-.87,1.2-.62,2.02Z"/><path class="cls-7" d="m195.21,173.3c.16.32.43.93.46.92.81-.31.75-1.14.99-1.79.29-.05.58-.09.86-.14,2.57,1.5-.38,2.14-.5,3.23.33,2.67-.71,4.75-2.77,6.4.3-1.61-1.67-2.05-1.79-3.44-.16-.35-.33-.7-.49-1.05.14-.73.29-1.46.43-2.2.45-.34.47-.86.58-1.34.26-.17.53-.35.79-.52.47-.02.95-.03,1.42-.05Zm-2.08,3.18c.02,1.12.95,1.32,1.76,1.45.74.12.86-.48.83-1.07-.06-1-.74-1.44-1.53-1.71-.84.12-1.07.69-1.06,1.33Z"/><path class="cls-15" d="m178.66,182.75c-.15.52-.36,1.03-.44,1.56-.21,1.34.24,2.5,1.34,3.24,1.17.79,2.06-.08,2.84-.81.53-.49,1.48-.66,1.46-1.65-.48-.39-.45-.93-.46-1.46-.59-.25-.92-.69-1.02-1.32-1.27-.13-2.53-.1-3.73.44Z"/><path class="cls-14" d="m174.38,161.94c-2.47,1.07-3.63,3.03-3.86,5.63.13,2.03.02,4.14,1.77,6.26.31-3.2-1.52-6.22.99-8.63,0,0,.1-.1.09-.11.33-1.05.67-2.1,1-3.15Z"/><path class="cls-2" d="m187.37,177.84c-.24-.81.01-1.41.62-2.02.8-.8.83-1.75-.03-2.61-2.67,2.85-5.83,4.34-9.82,3.55.63,1.18,1.76.72,2.72.84,1.4.18,3-.21,3.94,1.34.54-.02,1.08-.05,1.63-.07l-.06-.1c-.15-.13-.15-.26-.02-.4-.03-.79.36-.88.98-.58l.04.03Z"/><path class="cls-14" d="m197.03,175.51c.33,2.67-.71,4.75-2.77,6.4.22.77.13,1.66.92,2.19,1.59-1.11,2.78-2.59,3.85-4.17.01-1.78-.52-3.31-2-4.41Z"/><path class="cls-15" d="m194.57,154.74c-1.92-1.73-4.25-2.64-6.66-3.4.55,1.19-.54,2.19-.37,3.34.91-.8,1.88-.96,2.92-.26,1.24.54,1.54,1.55,1.36,2.78,2.19.6,1.91-1.56,2.75-2.46Z"/><path class="cls-7" d="m195.48,171.4s-.03-.05-.03-.05c.89.06,1.79.12,2.57-.45,0,0,0-.01,0-.01-.02-.45-.05-.9-.07-1.35-.41-1.15.23-2.27.08-3.41-3.42.41-4.44,2.51-2.55,5.27Z"/><path class="cls-12" d="m184.8,178.95c-.93-1.55-2.54-1.16-3.94-1.34-.96-.12-2.09.33-2.72-.84-.45-.07-.91-.15-1.36-.22-.13.55-.54.83-1.03,1.03,2.74,2.28,5.8,2.41,9.04,1.38Z"/><path class="cls-14" d="m186.37,178.78s.06.1.06.1c-.59,1.69-2.72,1-3.56,2.29.02.46-.09.86-.48,1.14.1.62.43,1.07,1.02,1.31.57-1.13,1.15-2.26,2.73-1.34.68-.72,1.31-1.53,2.41-1.64.04-.3.09-.61.13-.91-.27-1.52-1.49-.74-2.3-.95Z"/><path class="cls-7" d="m194.31,163.93c.02.85.03,1.7.05,2.55,1.23-.75,2.46-1.49,3.69-2.24.08-2.06-1.6-2.74-2.9-3.72-.16.64-.8,1.29.04,1.91.25.1.67.16.72.32.14.5-.33.51-.67.6l-.92.57Z"/><path class="cls-7" d="m180.81,156.73c2.16.37,3.16-.36,2.52-2.65-.79-.6-1.63-.94-2.49-.22-1.09.91-.51,1.91-.03,2.87Z"/><path class="cls-9" d="m180.81,156.73c-.48-.96-1.06-1.95.03-2.87.86-.72,1.71-.39,2.49.22.35-.08.53-.3.53-.65-.77-.39-1.4-1.07-2.34-1.09-1.18.19-1.92.97-2.5,1.92-.47.77-.58,1.73-.15,2.43.42.68,1.27.09,1.93.05Z"/><path class="cls-12" d="m198.04,164.25c-1.23.75-2.46,1.49-3.69,2.24-.24,1.78-1.68,3.83,1.12,4.91-1.89-2.76-.88-4.85,2.55-5.27,0-.63.01-1.25.02-1.88Z"/><path class="cls-15" d="m181.52,152.33c.94.02,1.57.69,2.34,1.09.26-1.32,1.55-1.61,2.37-2.37-1.02-.69-2.2-.32-3.29-.5-1.57.05-3.14.1-4.71.15.92.69,1.98.32,2.98.39,1.5.1.09.86.31,1.25Z"/><path class="cls-9" d="m194.31,163.93c.31-.19.62-.38.92-.57-.02-.31-.03-.62-.05-.92-.84-.62-.19-1.27-.04-1.91,0,0,.07.03.07.03-.15-.16-.3-.32-.45-.48.09-.29.25-.58.24-.87,0-.29-.32-.31-.49-.15-.81.73-1.73,1.46-1.79,2.62-.05,1.05.37,1.98,1.59,2.25Z"/><path class="cls-12" d="m166.85,185.99c-.01.18-.02.35-.03.53,1.37,0,2.34-.64,2.86-1.91-.08-.06-.16-.12-.23-.19.05,0,.11,0,.13.03.04.05.06.12.08.18,1.22-.82,1.38-1.63-.03-2.42-1.58.78-1.52,2.76-2.77,3.78Z"/><path class="cls-12" d="m171.32,158.15c.38.33.75.66,1.13,1h-.04c-.95-3.27-.75-3.65,2.45-4.58.13-.09.27-.15.43-.17-.22-.7-.75-.9-1.42-.89-2.07.88-3.07,2.35-2.56,4.64Z"/><path class="cls-12" d="m188.54,180.65c-1.1.11-1.73.92-2.41,1.64.41,2.62.9,2.97,3.82,2.71.01-.11.02-.23.04-.34-.76-.18-1.79.33-2.22-.69-.5-1.19-.02-2.21.82-3.09-.08-.06-.09-.14-.05-.23Z"/><path class="cls-12" d="m190.46,154.42c-1.05-.7-2.01-.54-2.92.26,0,0-.1-.03-.1-.04.05.13,0,.22-.12.27-.93,1.45-.81,2.67.8,3.56,0-.16.06-.3.19-.4-.11-1.62-.84-3.66,2.17-3.11,0-.18,0-.36,0-.54Z"/><path class="cls-9" d="m179.6,159.59c-1.09.33-2.19.66-3.28.99-.02.16-.04.32-.05.48,2.07-.68,4.23-.56,6.65-.66-1.07-1.32-2.3-.59-3.31-.8Z"/><path class="cls-15" d="m173.88,153.5c.67-.01,1.2.19,1.42.89.32.47.64.94.97,1.41.56-.84,1.35-1.77.34-2.66-.88-.77-1.88-.29-2.73.36Z"/><path class="cls-9" d="m176.27,155.8c-.32-.47-.64-.94-.97-1.41-.16.02-.3.08-.43.17.98,1.31.45,2.59-.29,3.86,1.25.2,1.29-.69,1.64-1.23.02-.46.04-.93.05-1.39Z"/><path class="cls-14" d="m192.41,175.22c.45-.34.47-.86.58-1.34-.07-.46-.14-.91-.22-1.4q-1.38,1.42-.37,2.74Z"/><path class="cls-9" d="m190.46,154.42c0,.18,0,.36,0,.54.52.81.6,1.68.33,2.59.14.11.27.23.41.34.21-.23.42-.46.62-.69.18-1.23-.12-2.24-1.36-2.78Z"/><path class="cls-9" d="m188.54,180.65c-.05.09-.03.17.05.23.56-.03,1.13-.18,1.65.19.07-.07.15-.14.22-.21-.25-.93-.57-1.73-1.79-1.12-.04.31-.09.61-.13.92Z"/><path class="cls-9" d="m198.01,170.9c-.78.57-1.68.5-2.57.45.4.36.81.72,1.22,1.07.29-.05.58-.09.86-.14.19-.45.92-.71.49-1.38Z"/><path class="cls-9" d="m190.83,184.04c1.09-1.2.84-2.25-.37-3.18-.07.07-.15.14-.22.21.33.96,1.05,1.84.57,2.96h.02Z"/><path class="cls-9" d="m188.93,158.79c1.18.75,1.85.25,2.26-.9-.14-.11-.27-.22-.41-.34-.45.44-.83,1-1.58.89-.09.12-.18.23-.27.35Z"/><path class="cls-10" d="m193.79,185.58c1.31.65,1.23-.3,1.29-1.11-.43.37-.86.74-1.29,1.11Z"/><path class="cls-9" d="m197.95,169.54c.02.45.05.9.07,1.35.58.3.93-.03.9-.52-.02-.48-.18-1.11-.98-.83Z"/><path class="cls-14" d="m176.26,161.06c.02-.16.04-.32.05-.48-.62-.01-.94.38-1.2.87.43.01.85-.02,1.14-.39Z"/><path class="cls-14" d="m192.47,178.46c-.16-.35-.33-.7-.49-1.05-.77.79-.32,1,.49,1.05Z"/><path class="cls-10" d="m186.8,161.83c-.34-.41-.65-.88-1.42-.66.21.48.4.92.93,1.12.16-.15.33-.3.49-.46Z"/><path class="cls-14" d="m193.79,173.35c.47-.02.95-.03,1.42-.05-.49-.58-.97-.59-1.42.05Z"/><path class="cls-10" d="m187.33,177.81c-.62-.3-1-.21-.98.58.33-.19.65-.39.98-.58Z"/><path class="cls-9" d="m188.1,158.47c.28.11.56.21.83.32.09-.12.18-.23.27-.35-.3-.12-.61-.25-.91-.37-.13.1-.19.23-.19.4Z"/><path class="cls-7" d="m194.76,160.08c.15.16.3.32.45.48-.15-.16-.3-.32-.45-.48Z"/><path class="cls-13" d="m173.48,174.67c-.06-.2-.16-.41-.39-.24-.05.04.08.33.12.51.09-.08.18-.17.27-.27Z"/><path class="cls-14" d="m175.05,161.47c-.22.15-.43.3-.65.45.22-.15.43-.3.65-.45Z"/><path class="cls-9" d="m189.99,184.66c-.01.11-.02.23-.04.34.15-.16.29-.31.44-.47l-.05-.07c-.15.01-.27.08-.35.2Z"/><path class="cls-9" d="m190.39,184.53c.31-.01.45-.18.44-.49,0,0-.02-.02-.02-.01-.16.15-.31.29-.47.44l.05.07Z"/><path class="cls-15" d="m187.31,154.91c.13-.05.17-.14.12-.27-.11,0-.23,0-.34-.01.07.09.15.19.22.28Z"/><path class="cls-15" d="m187.72,151.46c.01-.42-.29-.35-.55-.35.18.12.36.23.55.35Z"/><path class="cls-15" d="m182.87,181.17c.84-1.3,2.97-.6,3.56-2.29-.54.02-1.08.05-1.63.07-3.24,1.03-6.31.9-9.04-1.38-.7-.43-.98.05-1.17.59-.97,2.74-2.53,5.18-4.02,7.64-.6,1-.59,1.66.55,2.24,3.92,2.01,7.99,2.97,12.37,1.9-2.05-1.26-4.44-.3-6.6-1.04-1.3-.44-3.4-.1-3.79-1.28-.46-1.39.86-2.88,2.04-3.95,1.52-1.37,2.24-4.01,5.14-3.28.56.14,1.06.24,1.33.8.42,0,.84-.02,1.26-.03Z"/><path class="cls-3" d="m177.2,131.21c-2.82-.04-5.63-.08-8.45-.11-1.73.04-3.46.09-5.19.13-.14,1.4.51,1.97,1.9,1.87.76-.05,1.54.02,2.31.04,11.66.01,23.33.02,34.99.03.32-.01.63-.02.95-.03,0-.79,0-1.59,0-2.38-.36.07-.72.15-1.07.22-.36,1.1-1.3.68-2,.69-7.07.03-14.15.03-21.22.03-.77,0-1.59.17-2.23-.48Z"/><path class="cls-1" d="m163.57,131.23c1.73-.04,3.46-.08,5.19-.13-1.11-1.46-4.3-1.66-5.43-.35.08.16.16.32.24.47Z"/><path class="cls-9" d="m177.2,131.21c.64.65,1.46.48,2.23.48,7.07,0,14.15,0,21.22-.03.7,0,1.64.42,2-.69-8.48.08-16.96.16-25.44.23Z"/><path class="cls-12" d="m172.45,159.14c.4.02.8.05,1.44.08-.8.6-1.1.09-1.48-.08,0,0,.03,0,.03,0Z"/><path class="cls-1" d="m176.76,158.63s-.09.06-.14.08c.05-.03.09-.06.14-.08,0,0,0,0,0,0Z"/><path class="cls-3" d="m182.87,181.17c-.42,0-.84.02-1.26.03-1.01.46-2.88-.7-2.95,1.55,1.2-.53,2.45-.57,3.73-.44.39-.28.5-.68.48-1.14Z"/><path class="cls-12" d="m194.18,175.15c-.84.12-1.07.69-1.06,1.33.02,1.12.95,1.32,1.76,1.45.74.12.86-.48.83-1.07-.06-1-.74-1.44-1.53-1.71Z"/><path class="cls-1" d="m195.18,162.44c.02.31.03.62.05.92.33-.09.8-.1.67-.6-.04-.16-.47-.22-.72-.32Z"/><path class="cls-13" d="m169.66,184.63c-.03-.06-.04-.13-.08-.18-.02-.03-.09-.02-.13-.03.08.06.16.12.23.19,0,0-.02.02-.02.02Z"/><path class="cls-7" d="m190.34,184.46c.16-.15.31-.29.47-.44.47-1.11-.24-2-.57-2.96-.52-.37-1.09-.22-1.65-.19-.84.88-1.31,1.9-.82,3.09.43,1.02,1.46.51,2.22.69.09-.12.21-.19.35-.2Z"/><path class="cls-7" d="m188.29,158.08c.3.12.61.25.91.37.76.11,1.14-.45,1.58-.89.27-.91.19-1.78-.33-2.59-3.01-.55-2.28,1.5-2.17,3.11Z"/></g></svg>