<?xml version="1.0" encoding="utf-8"?>
<!-- Generator: Adobe Illustrator 28.2.0, SVG Export Plug-In . SVG Version: 6.00 Build 0)  -->
<svg version="1.1" id="Layer_1" xmlns="http://www.w3.org/2000/svg" xmlns:xlink="http://www.w3.org/1999/xlink" x="0px" y="0px"
	 viewBox="0 0 24 24" style="enable-background:new 0 0 24 24;" xml:space="preserve">
<g>
	<path d="M4,19h9v2H3c-0.5,0-1-0.5-1-1V4c0-0.5,0.5-1,1-1h7.4l2,2H21c0.5,0,1,0.5,1,1v6h-2V7h-8.4l-2-2H4V19z"/>
	<path d="M20.8,13.4c-0.7-0.1-1.5,0.1-2.2,0.6c-0.6-0.6-1.3-0.9-2-1c-0.8-0.1-1.5,0.2-2.1,0.7s-1,1.3-1.1,2.1
		c-0.3,3.3,2.7,5.5,4,6.4l0.4,0.3l0.4-0.2c1.5-0.7,4.9-2.2,5.2-5.5c0-0.1,0-0.3,0-0.4C23.4,14.9,22.3,13.6,20.8,13.4z M19.4,19.9
		c-0.3,0.2-0.7,0.4-1.2,0.7c-0.1,0.1-0.2,0.1-0.3,0.1c-0.1-0.1-0.2-0.1-0.2-0.2c-0.4-0.3-0.7-0.6-1-0.9c-1.3-1.2-1.8-2.4-1.7-3.6
		c0.1-0.8,0.6-1.4,1.3-1.4h0.1c0.4,0,0.8,0.3,1.1,0.7l0.8,1l1-0.8c0.4-0.3,0.9-0.5,1.3-0.4c0.3,0,0.7,0.2,0.9,0.5
		c0.2,0.3,0.3,0.7,0.3,1.2C21.7,17.9,20.9,18.9,19.4,19.9z"/>
</g>
</svg>
